G04 #@! TF.GenerationSoftware,KiCad,Pcbnew,5.0.2-bee76a0~70~ubuntu18.04.1*
G04 #@! TF.CreationDate,2019-01-14T20:29:46+01:00*
G04 #@! TF.ProjectId,AC Relay,41432052-656c-4617-992e-6b696361645f,rev?*
G04 #@! TF.SameCoordinates,PX41672a0PY5c0c740*
G04 #@! TF.FileFunction,Copper,L1,Top*
G04 #@! TF.FilePolarity,Positive*
%FSLAX46Y46*%
G04 Gerber Fmt 4.6, Leading zero omitted, Abs format (unit mm)*
G04 Created by KiCad (PCBNEW 5.0.2-bee76a0~70~ubuntu18.04.1) date lun 14 ene 2019 20:29:46 CET*
%MOMM*%
%LPD*%
G01*
G04 APERTURE LIST*
G04 #@! TA.AperFunction,ComponentPad*
%ADD10C,1.524000*%
G04 #@! TD*
G04 #@! TA.AperFunction,SMDPad,CuDef*
%ADD11R,0.700000X0.510000*%
G04 #@! TD*
G04 #@! TA.AperFunction,SMDPad,CuDef*
%ADD12R,0.700000X1.450000*%
G04 #@! TD*
G04 #@! TA.AperFunction,Conductor*
%ADD13C,0.100000*%
G04 #@! TD*
G04 #@! TA.AperFunction,SMDPad,CuDef*
%ADD14C,0.875000*%
G04 #@! TD*
G04 #@! TA.AperFunction,ComponentPad*
%ADD15R,1.700000X1.700000*%
G04 #@! TD*
G04 #@! TA.AperFunction,ComponentPad*
%ADD16O,1.700000X1.700000*%
G04 #@! TD*
G04 #@! TA.AperFunction,SMDPad,CuDef*
%ADD17C,0.400000*%
G04 #@! TD*
G04 #@! TA.AperFunction,SMDPad,CuDef*
%ADD18R,2.500000X1.000000*%
G04 #@! TD*
G04 #@! TA.AperFunction,SMDPad,CuDef*
%ADD19R,1.000000X1.800000*%
G04 #@! TD*
G04 #@! TA.AperFunction,SMDPad,CuDef*
%ADD20C,0.950000*%
G04 #@! TD*
G04 #@! TA.AperFunction,ComponentPad*
%ADD21O,3.960000X1.980000*%
G04 #@! TD*
G04 #@! TA.AperFunction,ComponentPad*
%ADD22R,3.960000X1.980000*%
G04 #@! TD*
G04 #@! TA.AperFunction,SMDPad,CuDef*
%ADD23R,2.000000X3.800000*%
G04 #@! TD*
G04 #@! TA.AperFunction,SMDPad,CuDef*
%ADD24R,2.000000X1.500000*%
G04 #@! TD*
G04 #@! TA.AperFunction,ComponentPad*
%ADD25C,1.800000*%
G04 #@! TD*
G04 #@! TA.AperFunction,ViaPad*
%ADD26C,0.800000*%
G04 #@! TD*
G04 #@! TA.AperFunction,Conductor*
%ADD27C,0.350000*%
G04 #@! TD*
G04 #@! TA.AperFunction,Conductor*
%ADD28C,0.250000*%
G04 #@! TD*
G04 #@! TA.AperFunction,Conductor*
%ADD29C,0.400000*%
G04 #@! TD*
G04 #@! TA.AperFunction,Conductor*
%ADD30C,0.300000*%
G04 #@! TD*
G04 #@! TA.AperFunction,Conductor*
%ADD31C,0.254000*%
G04 #@! TD*
G04 APERTURE END LIST*
D10*
G04 #@! TO.P,U3,1*
G04 #@! TO.N,Net-(J1-Pad2)*
X16778000Y40948000D03*
G04 #@! TO.P,U3,2*
G04 #@! TO.N,Net-(J1-Pad1)*
X16778000Y35948000D03*
G04 #@! TO.P,U3,3*
G04 #@! TO.N,GND*
X46178000Y46148000D03*
G04 #@! TO.P,U3,4*
G04 #@! TO.N,+5V*
X46178000Y30748000D03*
G04 #@! TD*
D11*
G04 #@! TO.P,U1,1*
G04 #@! TO.N,+5V*
X27957000Y23053000D03*
G04 #@! TO.P,U1,2*
G04 #@! TO.N,GND*
X27957000Y24003000D03*
G04 #@! TO.P,U1,3*
G04 #@! TO.N,+5V*
X27957000Y24953000D03*
G04 #@! TO.P,U1,4*
G04 #@! TO.N,Net-(U1-Pad4)*
X25637000Y24953000D03*
G04 #@! TO.P,U1,5*
G04 #@! TO.N,+3V3*
X25637000Y23053000D03*
G04 #@! TD*
D12*
G04 #@! TO.P,SW1,1*
G04 #@! TO.N,/Button*
X28178000Y2246000D03*
X28178000Y7406000D03*
G04 #@! TO.P,SW1,2*
G04 #@! TO.N,GND*
X26178000Y7406000D03*
X26178000Y2246000D03*
G04 #@! TD*
D13*
G04 #@! TO.N,GND*
G04 #@! TO.C,C2*
G36*
X28078691Y21555947D02*
X28099926Y21552797D01*
X28120750Y21547581D01*
X28140962Y21540349D01*
X28160368Y21531170D01*
X28178781Y21520134D01*
X28196024Y21507346D01*
X28211930Y21492930D01*
X28226346Y21477024D01*
X28239134Y21459781D01*
X28250170Y21441368D01*
X28259349Y21421962D01*
X28266581Y21401750D01*
X28271797Y21380926D01*
X28274947Y21359691D01*
X28276000Y21338250D01*
X28276000Y20825750D01*
X28274947Y20804309D01*
X28271797Y20783074D01*
X28266581Y20762250D01*
X28259349Y20742038D01*
X28250170Y20722632D01*
X28239134Y20704219D01*
X28226346Y20686976D01*
X28211930Y20671070D01*
X28196024Y20656654D01*
X28178781Y20643866D01*
X28160368Y20632830D01*
X28140962Y20623651D01*
X28120750Y20616419D01*
X28099926Y20611203D01*
X28078691Y20608053D01*
X28057250Y20607000D01*
X27619750Y20607000D01*
X27598309Y20608053D01*
X27577074Y20611203D01*
X27556250Y20616419D01*
X27536038Y20623651D01*
X27516632Y20632830D01*
X27498219Y20643866D01*
X27480976Y20656654D01*
X27465070Y20671070D01*
X27450654Y20686976D01*
X27437866Y20704219D01*
X27426830Y20722632D01*
X27417651Y20742038D01*
X27410419Y20762250D01*
X27405203Y20783074D01*
X27402053Y20804309D01*
X27401000Y20825750D01*
X27401000Y21338250D01*
X27402053Y21359691D01*
X27405203Y21380926D01*
X27410419Y21401750D01*
X27417651Y21421962D01*
X27426830Y21441368D01*
X27437866Y21459781D01*
X27450654Y21477024D01*
X27465070Y21492930D01*
X27480976Y21507346D01*
X27498219Y21520134D01*
X27516632Y21531170D01*
X27536038Y21540349D01*
X27556250Y21547581D01*
X27577074Y21552797D01*
X27598309Y21555947D01*
X27619750Y21557000D01*
X28057250Y21557000D01*
X28078691Y21555947D01*
X28078691Y21555947D01*
G37*
D14*
G04 #@! TD*
G04 #@! TO.P,C2,2*
G04 #@! TO.N,GND*
X27838500Y21082000D03*
D13*
G04 #@! TO.N,+3V3*
G04 #@! TO.C,C2*
G36*
X26503691Y21555947D02*
X26524926Y21552797D01*
X26545750Y21547581D01*
X26565962Y21540349D01*
X26585368Y21531170D01*
X26603781Y21520134D01*
X26621024Y21507346D01*
X26636930Y21492930D01*
X26651346Y21477024D01*
X26664134Y21459781D01*
X26675170Y21441368D01*
X26684349Y21421962D01*
X26691581Y21401750D01*
X26696797Y21380926D01*
X26699947Y21359691D01*
X26701000Y21338250D01*
X26701000Y20825750D01*
X26699947Y20804309D01*
X26696797Y20783074D01*
X26691581Y20762250D01*
X26684349Y20742038D01*
X26675170Y20722632D01*
X26664134Y20704219D01*
X26651346Y20686976D01*
X26636930Y20671070D01*
X26621024Y20656654D01*
X26603781Y20643866D01*
X26585368Y20632830D01*
X26565962Y20623651D01*
X26545750Y20616419D01*
X26524926Y20611203D01*
X26503691Y20608053D01*
X26482250Y20607000D01*
X26044750Y20607000D01*
X26023309Y20608053D01*
X26002074Y20611203D01*
X25981250Y20616419D01*
X25961038Y20623651D01*
X25941632Y20632830D01*
X25923219Y20643866D01*
X25905976Y20656654D01*
X25890070Y20671070D01*
X25875654Y20686976D01*
X25862866Y20704219D01*
X25851830Y20722632D01*
X25842651Y20742038D01*
X25835419Y20762250D01*
X25830203Y20783074D01*
X25827053Y20804309D01*
X25826000Y20825750D01*
X25826000Y21338250D01*
X25827053Y21359691D01*
X25830203Y21380926D01*
X25835419Y21401750D01*
X25842651Y21421962D01*
X25851830Y21441368D01*
X25862866Y21459781D01*
X25875654Y21477024D01*
X25890070Y21492930D01*
X25905976Y21507346D01*
X25923219Y21520134D01*
X25941632Y21531170D01*
X25961038Y21540349D01*
X25981250Y21547581D01*
X26002074Y21552797D01*
X26023309Y21555947D01*
X26044750Y21557000D01*
X26482250Y21557000D01*
X26503691Y21555947D01*
X26503691Y21555947D01*
G37*
D14*
G04 #@! TD*
G04 #@! TO.P,C2,1*
G04 #@! TO.N,+3V3*
X26263500Y21082000D03*
D13*
G04 #@! TO.N,+5V*
G04 #@! TO.C,C1*
G36*
X27951691Y27397947D02*
X27972926Y27394797D01*
X27993750Y27389581D01*
X28013962Y27382349D01*
X28033368Y27373170D01*
X28051781Y27362134D01*
X28069024Y27349346D01*
X28084930Y27334930D01*
X28099346Y27319024D01*
X28112134Y27301781D01*
X28123170Y27283368D01*
X28132349Y27263962D01*
X28139581Y27243750D01*
X28144797Y27222926D01*
X28147947Y27201691D01*
X28149000Y27180250D01*
X28149000Y26667750D01*
X28147947Y26646309D01*
X28144797Y26625074D01*
X28139581Y26604250D01*
X28132349Y26584038D01*
X28123170Y26564632D01*
X28112134Y26546219D01*
X28099346Y26528976D01*
X28084930Y26513070D01*
X28069024Y26498654D01*
X28051781Y26485866D01*
X28033368Y26474830D01*
X28013962Y26465651D01*
X27993750Y26458419D01*
X27972926Y26453203D01*
X27951691Y26450053D01*
X27930250Y26449000D01*
X27492750Y26449000D01*
X27471309Y26450053D01*
X27450074Y26453203D01*
X27429250Y26458419D01*
X27409038Y26465651D01*
X27389632Y26474830D01*
X27371219Y26485866D01*
X27353976Y26498654D01*
X27338070Y26513070D01*
X27323654Y26528976D01*
X27310866Y26546219D01*
X27299830Y26564632D01*
X27290651Y26584038D01*
X27283419Y26604250D01*
X27278203Y26625074D01*
X27275053Y26646309D01*
X27274000Y26667750D01*
X27274000Y27180250D01*
X27275053Y27201691D01*
X27278203Y27222926D01*
X27283419Y27243750D01*
X27290651Y27263962D01*
X27299830Y27283368D01*
X27310866Y27301781D01*
X27323654Y27319024D01*
X27338070Y27334930D01*
X27353976Y27349346D01*
X27371219Y27362134D01*
X27389632Y27373170D01*
X27409038Y27382349D01*
X27429250Y27389581D01*
X27450074Y27394797D01*
X27471309Y27397947D01*
X27492750Y27399000D01*
X27930250Y27399000D01*
X27951691Y27397947D01*
X27951691Y27397947D01*
G37*
D14*
G04 #@! TD*
G04 #@! TO.P,C1,1*
G04 #@! TO.N,+5V*
X27711500Y26924000D03*
D13*
G04 #@! TO.N,GND*
G04 #@! TO.C,C1*
G36*
X26376691Y27397947D02*
X26397926Y27394797D01*
X26418750Y27389581D01*
X26438962Y27382349D01*
X26458368Y27373170D01*
X26476781Y27362134D01*
X26494024Y27349346D01*
X26509930Y27334930D01*
X26524346Y27319024D01*
X26537134Y27301781D01*
X26548170Y27283368D01*
X26557349Y27263962D01*
X26564581Y27243750D01*
X26569797Y27222926D01*
X26572947Y27201691D01*
X26574000Y27180250D01*
X26574000Y26667750D01*
X26572947Y26646309D01*
X26569797Y26625074D01*
X26564581Y26604250D01*
X26557349Y26584038D01*
X26548170Y26564632D01*
X26537134Y26546219D01*
X26524346Y26528976D01*
X26509930Y26513070D01*
X26494024Y26498654D01*
X26476781Y26485866D01*
X26458368Y26474830D01*
X26438962Y26465651D01*
X26418750Y26458419D01*
X26397926Y26453203D01*
X26376691Y26450053D01*
X26355250Y26449000D01*
X25917750Y26449000D01*
X25896309Y26450053D01*
X25875074Y26453203D01*
X25854250Y26458419D01*
X25834038Y26465651D01*
X25814632Y26474830D01*
X25796219Y26485866D01*
X25778976Y26498654D01*
X25763070Y26513070D01*
X25748654Y26528976D01*
X25735866Y26546219D01*
X25724830Y26564632D01*
X25715651Y26584038D01*
X25708419Y26604250D01*
X25703203Y26625074D01*
X25700053Y26646309D01*
X25699000Y26667750D01*
X25699000Y27180250D01*
X25700053Y27201691D01*
X25703203Y27222926D01*
X25708419Y27243750D01*
X25715651Y27263962D01*
X25724830Y27283368D01*
X25735866Y27301781D01*
X25748654Y27319024D01*
X25763070Y27334930D01*
X25778976Y27349346D01*
X25796219Y27362134D01*
X25814632Y27373170D01*
X25834038Y27382349D01*
X25854250Y27389581D01*
X25875074Y27394797D01*
X25896309Y27397947D01*
X25917750Y27399000D01*
X26355250Y27399000D01*
X26376691Y27397947D01*
X26376691Y27397947D01*
G37*
D14*
G04 #@! TD*
G04 #@! TO.P,C1,2*
G04 #@! TO.N,GND*
X26136500Y26924000D03*
D15*
G04 #@! TO.P,J2,1*
G04 #@! TO.N,GND*
X21336000Y22733000D03*
D16*
G04 #@! TO.P,J2,2*
G04 #@! TO.N,+3V3*
X21336000Y20193000D03*
G04 #@! TO.P,J2,3*
G04 #@! TO.N,/Flash*
X21336000Y17653000D03*
G04 #@! TO.P,J2,4*
G04 #@! TO.N,/Rst*
X21336000Y15113000D03*
G04 #@! TO.P,J2,5*
G04 #@! TO.N,/RX*
X21336000Y12573000D03*
G04 #@! TO.P,J2,6*
G04 #@! TO.N,/TX*
X21336000Y10033000D03*
G04 #@! TD*
D13*
G04 #@! TO.N,Net-(D1-Pad1)*
G04 #@! TO.C,D1*
G36*
X16842802Y8454518D02*
X16852509Y8453079D01*
X16862028Y8450694D01*
X16871268Y8447388D01*
X16880140Y8443192D01*
X16888557Y8438147D01*
X16896439Y8432301D01*
X16903711Y8425711D01*
X16910301Y8418439D01*
X16916147Y8410557D01*
X16921192Y8402140D01*
X16925388Y8393268D01*
X16928694Y8384028D01*
X16931079Y8374509D01*
X16932518Y8364802D01*
X16933000Y8355000D01*
X16933000Y8155000D01*
X16932518Y8145198D01*
X16931079Y8135491D01*
X16928694Y8125972D01*
X16925388Y8116732D01*
X16921192Y8107860D01*
X16916147Y8099443D01*
X16910301Y8091561D01*
X16903711Y8084289D01*
X16896439Y8077699D01*
X16888557Y8071853D01*
X16880140Y8066808D01*
X16871268Y8062612D01*
X16862028Y8059306D01*
X16852509Y8056921D01*
X16842802Y8055482D01*
X16833000Y8055000D01*
X16573000Y8055000D01*
X16563198Y8055482D01*
X16553491Y8056921D01*
X16543972Y8059306D01*
X16534732Y8062612D01*
X16525860Y8066808D01*
X16517443Y8071853D01*
X16509561Y8077699D01*
X16502289Y8084289D01*
X16495699Y8091561D01*
X16489853Y8099443D01*
X16484808Y8107860D01*
X16480612Y8116732D01*
X16477306Y8125972D01*
X16474921Y8135491D01*
X16473482Y8145198D01*
X16473000Y8155000D01*
X16473000Y8355000D01*
X16473482Y8364802D01*
X16474921Y8374509D01*
X16477306Y8384028D01*
X16480612Y8393268D01*
X16484808Y8402140D01*
X16489853Y8410557D01*
X16495699Y8418439D01*
X16502289Y8425711D01*
X16509561Y8432301D01*
X16517443Y8438147D01*
X16525860Y8443192D01*
X16534732Y8447388D01*
X16543972Y8450694D01*
X16553491Y8453079D01*
X16563198Y8454518D01*
X16573000Y8455000D01*
X16833000Y8455000D01*
X16842802Y8454518D01*
X16842802Y8454518D01*
G37*
D17*
G04 #@! TD*
G04 #@! TO.P,D1,1*
G04 #@! TO.N,Net-(D1-Pad1)*
X16703000Y8255000D03*
D13*
G04 #@! TO.N,+5V*
G04 #@! TO.C,D1*
G36*
X16202802Y8454518D02*
X16212509Y8453079D01*
X16222028Y8450694D01*
X16231268Y8447388D01*
X16240140Y8443192D01*
X16248557Y8438147D01*
X16256439Y8432301D01*
X16263711Y8425711D01*
X16270301Y8418439D01*
X16276147Y8410557D01*
X16281192Y8402140D01*
X16285388Y8393268D01*
X16288694Y8384028D01*
X16291079Y8374509D01*
X16292518Y8364802D01*
X16293000Y8355000D01*
X16293000Y8155000D01*
X16292518Y8145198D01*
X16291079Y8135491D01*
X16288694Y8125972D01*
X16285388Y8116732D01*
X16281192Y8107860D01*
X16276147Y8099443D01*
X16270301Y8091561D01*
X16263711Y8084289D01*
X16256439Y8077699D01*
X16248557Y8071853D01*
X16240140Y8066808D01*
X16231268Y8062612D01*
X16222028Y8059306D01*
X16212509Y8056921D01*
X16202802Y8055482D01*
X16193000Y8055000D01*
X15933000Y8055000D01*
X15923198Y8055482D01*
X15913491Y8056921D01*
X15903972Y8059306D01*
X15894732Y8062612D01*
X15885860Y8066808D01*
X15877443Y8071853D01*
X15869561Y8077699D01*
X15862289Y8084289D01*
X15855699Y8091561D01*
X15849853Y8099443D01*
X15844808Y8107860D01*
X15840612Y8116732D01*
X15837306Y8125972D01*
X15834921Y8135491D01*
X15833482Y8145198D01*
X15833000Y8155000D01*
X15833000Y8355000D01*
X15833482Y8364802D01*
X15834921Y8374509D01*
X15837306Y8384028D01*
X15840612Y8393268D01*
X15844808Y8402140D01*
X15849853Y8410557D01*
X15855699Y8418439D01*
X15862289Y8425711D01*
X15869561Y8432301D01*
X15877443Y8438147D01*
X15885860Y8443192D01*
X15894732Y8447388D01*
X15903972Y8450694D01*
X15913491Y8453079D01*
X15923198Y8454518D01*
X15933000Y8455000D01*
X16193000Y8455000D01*
X16202802Y8454518D01*
X16202802Y8454518D01*
G37*
D17*
G04 #@! TD*
G04 #@! TO.P,D1,2*
G04 #@! TO.N,+5V*
X16063000Y8255000D03*
D13*
G04 #@! TO.N,GND*
G04 #@! TO.C,D2*
G36*
X26376691Y10379947D02*
X26397926Y10376797D01*
X26418750Y10371581D01*
X26438962Y10364349D01*
X26458368Y10355170D01*
X26476781Y10344134D01*
X26494024Y10331346D01*
X26509930Y10316930D01*
X26524346Y10301024D01*
X26537134Y10283781D01*
X26548170Y10265368D01*
X26557349Y10245962D01*
X26564581Y10225750D01*
X26569797Y10204926D01*
X26572947Y10183691D01*
X26574000Y10162250D01*
X26574000Y9649750D01*
X26572947Y9628309D01*
X26569797Y9607074D01*
X26564581Y9586250D01*
X26557349Y9566038D01*
X26548170Y9546632D01*
X26537134Y9528219D01*
X26524346Y9510976D01*
X26509930Y9495070D01*
X26494024Y9480654D01*
X26476781Y9467866D01*
X26458368Y9456830D01*
X26438962Y9447651D01*
X26418750Y9440419D01*
X26397926Y9435203D01*
X26376691Y9432053D01*
X26355250Y9431000D01*
X25917750Y9431000D01*
X25896309Y9432053D01*
X25875074Y9435203D01*
X25854250Y9440419D01*
X25834038Y9447651D01*
X25814632Y9456830D01*
X25796219Y9467866D01*
X25778976Y9480654D01*
X25763070Y9495070D01*
X25748654Y9510976D01*
X25735866Y9528219D01*
X25724830Y9546632D01*
X25715651Y9566038D01*
X25708419Y9586250D01*
X25703203Y9607074D01*
X25700053Y9628309D01*
X25699000Y9649750D01*
X25699000Y10162250D01*
X25700053Y10183691D01*
X25703203Y10204926D01*
X25708419Y10225750D01*
X25715651Y10245962D01*
X25724830Y10265368D01*
X25735866Y10283781D01*
X25748654Y10301024D01*
X25763070Y10316930D01*
X25778976Y10331346D01*
X25796219Y10344134D01*
X25814632Y10355170D01*
X25834038Y10364349D01*
X25854250Y10371581D01*
X25875074Y10376797D01*
X25896309Y10379947D01*
X25917750Y10381000D01*
X26355250Y10381000D01*
X26376691Y10379947D01*
X26376691Y10379947D01*
G37*
D14*
G04 #@! TD*
G04 #@! TO.P,D2,1*
G04 #@! TO.N,GND*
X26136500Y9906000D03*
D13*
G04 #@! TO.N,Net-(D2-Pad2)*
G04 #@! TO.C,D2*
G36*
X27951691Y10379947D02*
X27972926Y10376797D01*
X27993750Y10371581D01*
X28013962Y10364349D01*
X28033368Y10355170D01*
X28051781Y10344134D01*
X28069024Y10331346D01*
X28084930Y10316930D01*
X28099346Y10301024D01*
X28112134Y10283781D01*
X28123170Y10265368D01*
X28132349Y10245962D01*
X28139581Y10225750D01*
X28144797Y10204926D01*
X28147947Y10183691D01*
X28149000Y10162250D01*
X28149000Y9649750D01*
X28147947Y9628309D01*
X28144797Y9607074D01*
X28139581Y9586250D01*
X28132349Y9566038D01*
X28123170Y9546632D01*
X28112134Y9528219D01*
X28099346Y9510976D01*
X28084930Y9495070D01*
X28069024Y9480654D01*
X28051781Y9467866D01*
X28033368Y9456830D01*
X28013962Y9447651D01*
X27993750Y9440419D01*
X27972926Y9435203D01*
X27951691Y9432053D01*
X27930250Y9431000D01*
X27492750Y9431000D01*
X27471309Y9432053D01*
X27450074Y9435203D01*
X27429250Y9440419D01*
X27409038Y9447651D01*
X27389632Y9456830D01*
X27371219Y9467866D01*
X27353976Y9480654D01*
X27338070Y9495070D01*
X27323654Y9510976D01*
X27310866Y9528219D01*
X27299830Y9546632D01*
X27290651Y9566038D01*
X27283419Y9586250D01*
X27278203Y9607074D01*
X27275053Y9628309D01*
X27274000Y9649750D01*
X27274000Y10162250D01*
X27275053Y10183691D01*
X27278203Y10204926D01*
X27283419Y10225750D01*
X27290651Y10245962D01*
X27299830Y10265368D01*
X27310866Y10283781D01*
X27323654Y10301024D01*
X27338070Y10316930D01*
X27353976Y10331346D01*
X27371219Y10344134D01*
X27389632Y10355170D01*
X27409038Y10364349D01*
X27429250Y10371581D01*
X27450074Y10376797D01*
X27471309Y10379947D01*
X27492750Y10381000D01*
X27930250Y10381000D01*
X27951691Y10379947D01*
X27951691Y10379947D01*
G37*
D14*
G04 #@! TD*
G04 #@! TO.P,D2,2*
G04 #@! TO.N,Net-(D2-Pad2)*
X27711500Y9906000D03*
D18*
G04 #@! TO.P,U2,1*
G04 #@! TO.N,/Rst*
X46061000Y10002000D03*
G04 #@! TO.P,U2,2*
G04 #@! TO.N,Net-(U2-Pad2)*
X46061000Y12002000D03*
G04 #@! TO.P,U2,3*
G04 #@! TO.N,+3V3*
X46061000Y14002000D03*
G04 #@! TO.P,U2,4*
G04 #@! TO.N,/Relay*
X46061000Y16002000D03*
G04 #@! TO.P,U2,5*
G04 #@! TO.N,Net-(U2-Pad5)*
X46061000Y18002000D03*
G04 #@! TO.P,U2,6*
G04 #@! TO.N,Net-(U2-Pad6)*
X46061000Y20002000D03*
G04 #@! TO.P,U2,7*
G04 #@! TO.N,Net-(U2-Pad7)*
X46061000Y22002000D03*
G04 #@! TO.P,U2,8*
G04 #@! TO.N,+3V3*
X46061000Y24002000D03*
D19*
G04 #@! TO.P,U2,9*
G04 #@! TO.N,Net-(U2-Pad9)*
X43461000Y25502000D03*
G04 #@! TO.P,U2,10*
G04 #@! TO.N,Net-(U2-Pad10)*
X41461000Y25502000D03*
G04 #@! TO.P,U2,11*
G04 #@! TO.N,Net-(U2-Pad11)*
X39461000Y25502000D03*
G04 #@! TO.P,U2,12*
G04 #@! TO.N,Net-(U2-Pad12)*
X37461000Y25502000D03*
G04 #@! TO.P,U2,13*
G04 #@! TO.N,Net-(U2-Pad13)*
X35461000Y25502000D03*
G04 #@! TO.P,U2,14*
G04 #@! TO.N,Net-(U2-Pad14)*
X33461000Y25502000D03*
D18*
G04 #@! TO.P,U2,15*
G04 #@! TO.N,GND*
X30861000Y24002000D03*
G04 #@! TO.P,U2,16*
X30861000Y22002000D03*
G04 #@! TO.P,U2,17*
G04 #@! TO.N,+3V3*
X30861000Y20002000D03*
G04 #@! TO.P,U2,18*
G04 #@! TO.N,/Flash*
X30861000Y18002000D03*
G04 #@! TO.P,U2,19*
G04 #@! TO.N,/Button*
X30861000Y16002000D03*
G04 #@! TO.P,U2,20*
G04 #@! TO.N,Net-(U2-Pad20)*
X30861000Y14002000D03*
G04 #@! TO.P,U2,21*
G04 #@! TO.N,/RX*
X30861000Y12002000D03*
G04 #@! TO.P,U2,22*
G04 #@! TO.N,/TX*
X30861000Y10002000D03*
G04 #@! TD*
D13*
G04 #@! TO.N,+3V3*
G04 #@! TO.C,R1*
G36*
X26486779Y14443856D02*
X26509834Y14440437D01*
X26532443Y14434773D01*
X26554387Y14426921D01*
X26575457Y14416956D01*
X26595448Y14404974D01*
X26614168Y14391090D01*
X26631438Y14375438D01*
X26647090Y14358168D01*
X26660974Y14339448D01*
X26672956Y14319457D01*
X26682921Y14298387D01*
X26690773Y14276443D01*
X26696437Y14253834D01*
X26699856Y14230779D01*
X26701000Y14207500D01*
X26701000Y13732500D01*
X26699856Y13709221D01*
X26696437Y13686166D01*
X26690773Y13663557D01*
X26682921Y13641613D01*
X26672956Y13620543D01*
X26660974Y13600552D01*
X26647090Y13581832D01*
X26631438Y13564562D01*
X26614168Y13548910D01*
X26595448Y13535026D01*
X26575457Y13523044D01*
X26554387Y13513079D01*
X26532443Y13505227D01*
X26509834Y13499563D01*
X26486779Y13496144D01*
X26463500Y13495000D01*
X25888500Y13495000D01*
X25865221Y13496144D01*
X25842166Y13499563D01*
X25819557Y13505227D01*
X25797613Y13513079D01*
X25776543Y13523044D01*
X25756552Y13535026D01*
X25737832Y13548910D01*
X25720562Y13564562D01*
X25704910Y13581832D01*
X25691026Y13600552D01*
X25679044Y13620543D01*
X25669079Y13641613D01*
X25661227Y13663557D01*
X25655563Y13686166D01*
X25652144Y13709221D01*
X25651000Y13732500D01*
X25651000Y14207500D01*
X25652144Y14230779D01*
X25655563Y14253834D01*
X25661227Y14276443D01*
X25669079Y14298387D01*
X25679044Y14319457D01*
X25691026Y14339448D01*
X25704910Y14358168D01*
X25720562Y14375438D01*
X25737832Y14391090D01*
X25756552Y14404974D01*
X25776543Y14416956D01*
X25797613Y14426921D01*
X25819557Y14434773D01*
X25842166Y14440437D01*
X25865221Y14443856D01*
X25888500Y14445000D01*
X26463500Y14445000D01*
X26486779Y14443856D01*
X26486779Y14443856D01*
G37*
D20*
G04 #@! TD*
G04 #@! TO.P,R1,2*
G04 #@! TO.N,+3V3*
X26176000Y13970000D03*
D13*
G04 #@! TO.N,/Rst*
G04 #@! TO.C,R1*
G36*
X28236779Y14443856D02*
X28259834Y14440437D01*
X28282443Y14434773D01*
X28304387Y14426921D01*
X28325457Y14416956D01*
X28345448Y14404974D01*
X28364168Y14391090D01*
X28381438Y14375438D01*
X28397090Y14358168D01*
X28410974Y14339448D01*
X28422956Y14319457D01*
X28432921Y14298387D01*
X28440773Y14276443D01*
X28446437Y14253834D01*
X28449856Y14230779D01*
X28451000Y14207500D01*
X28451000Y13732500D01*
X28449856Y13709221D01*
X28446437Y13686166D01*
X28440773Y13663557D01*
X28432921Y13641613D01*
X28422956Y13620543D01*
X28410974Y13600552D01*
X28397090Y13581832D01*
X28381438Y13564562D01*
X28364168Y13548910D01*
X28345448Y13535026D01*
X28325457Y13523044D01*
X28304387Y13513079D01*
X28282443Y13505227D01*
X28259834Y13499563D01*
X28236779Y13496144D01*
X28213500Y13495000D01*
X27638500Y13495000D01*
X27615221Y13496144D01*
X27592166Y13499563D01*
X27569557Y13505227D01*
X27547613Y13513079D01*
X27526543Y13523044D01*
X27506552Y13535026D01*
X27487832Y13548910D01*
X27470562Y13564562D01*
X27454910Y13581832D01*
X27441026Y13600552D01*
X27429044Y13620543D01*
X27419079Y13641613D01*
X27411227Y13663557D01*
X27405563Y13686166D01*
X27402144Y13709221D01*
X27401000Y13732500D01*
X27401000Y14207500D01*
X27402144Y14230779D01*
X27405563Y14253834D01*
X27411227Y14276443D01*
X27419079Y14298387D01*
X27429044Y14319457D01*
X27441026Y14339448D01*
X27454910Y14358168D01*
X27470562Y14375438D01*
X27487832Y14391090D01*
X27506552Y14404974D01*
X27526543Y14416956D01*
X27547613Y14426921D01*
X27569557Y14434773D01*
X27592166Y14440437D01*
X27615221Y14443856D01*
X27638500Y14445000D01*
X28213500Y14445000D01*
X28236779Y14443856D01*
X28236779Y14443856D01*
G37*
D20*
G04 #@! TD*
G04 #@! TO.P,R1,1*
G04 #@! TO.N,/Rst*
X27926000Y13970000D03*
D13*
G04 #@! TO.N,+3V3*
G04 #@! TO.C,R2*
G36*
X26486779Y18507856D02*
X26509834Y18504437D01*
X26532443Y18498773D01*
X26554387Y18490921D01*
X26575457Y18480956D01*
X26595448Y18468974D01*
X26614168Y18455090D01*
X26631438Y18439438D01*
X26647090Y18422168D01*
X26660974Y18403448D01*
X26672956Y18383457D01*
X26682921Y18362387D01*
X26690773Y18340443D01*
X26696437Y18317834D01*
X26699856Y18294779D01*
X26701000Y18271500D01*
X26701000Y17796500D01*
X26699856Y17773221D01*
X26696437Y17750166D01*
X26690773Y17727557D01*
X26682921Y17705613D01*
X26672956Y17684543D01*
X26660974Y17664552D01*
X26647090Y17645832D01*
X26631438Y17628562D01*
X26614168Y17612910D01*
X26595448Y17599026D01*
X26575457Y17587044D01*
X26554387Y17577079D01*
X26532443Y17569227D01*
X26509834Y17563563D01*
X26486779Y17560144D01*
X26463500Y17559000D01*
X25888500Y17559000D01*
X25865221Y17560144D01*
X25842166Y17563563D01*
X25819557Y17569227D01*
X25797613Y17577079D01*
X25776543Y17587044D01*
X25756552Y17599026D01*
X25737832Y17612910D01*
X25720562Y17628562D01*
X25704910Y17645832D01*
X25691026Y17664552D01*
X25679044Y17684543D01*
X25669079Y17705613D01*
X25661227Y17727557D01*
X25655563Y17750166D01*
X25652144Y17773221D01*
X25651000Y17796500D01*
X25651000Y18271500D01*
X25652144Y18294779D01*
X25655563Y18317834D01*
X25661227Y18340443D01*
X25669079Y18362387D01*
X25679044Y18383457D01*
X25691026Y18403448D01*
X25704910Y18422168D01*
X25720562Y18439438D01*
X25737832Y18455090D01*
X25756552Y18468974D01*
X25776543Y18480956D01*
X25797613Y18490921D01*
X25819557Y18498773D01*
X25842166Y18504437D01*
X25865221Y18507856D01*
X25888500Y18509000D01*
X26463500Y18509000D01*
X26486779Y18507856D01*
X26486779Y18507856D01*
G37*
D20*
G04 #@! TD*
G04 #@! TO.P,R2,1*
G04 #@! TO.N,+3V3*
X26176000Y18034000D03*
D13*
G04 #@! TO.N,/Flash*
G04 #@! TO.C,R2*
G36*
X28236779Y18507856D02*
X28259834Y18504437D01*
X28282443Y18498773D01*
X28304387Y18490921D01*
X28325457Y18480956D01*
X28345448Y18468974D01*
X28364168Y18455090D01*
X28381438Y18439438D01*
X28397090Y18422168D01*
X28410974Y18403448D01*
X28422956Y18383457D01*
X28432921Y18362387D01*
X28440773Y18340443D01*
X28446437Y18317834D01*
X28449856Y18294779D01*
X28451000Y18271500D01*
X28451000Y17796500D01*
X28449856Y17773221D01*
X28446437Y17750166D01*
X28440773Y17727557D01*
X28432921Y17705613D01*
X28422956Y17684543D01*
X28410974Y17664552D01*
X28397090Y17645832D01*
X28381438Y17628562D01*
X28364168Y17612910D01*
X28345448Y17599026D01*
X28325457Y17587044D01*
X28304387Y17577079D01*
X28282443Y17569227D01*
X28259834Y17563563D01*
X28236779Y17560144D01*
X28213500Y17559000D01*
X27638500Y17559000D01*
X27615221Y17560144D01*
X27592166Y17563563D01*
X27569557Y17569227D01*
X27547613Y17577079D01*
X27526543Y17587044D01*
X27506552Y17599026D01*
X27487832Y17612910D01*
X27470562Y17628562D01*
X27454910Y17645832D01*
X27441026Y17664552D01*
X27429044Y17684543D01*
X27419079Y17705613D01*
X27411227Y17727557D01*
X27405563Y17750166D01*
X27402144Y17773221D01*
X27401000Y17796500D01*
X27401000Y18271500D01*
X27402144Y18294779D01*
X27405563Y18317834D01*
X27411227Y18340443D01*
X27419079Y18362387D01*
X27429044Y18383457D01*
X27441026Y18403448D01*
X27454910Y18422168D01*
X27470562Y18439438D01*
X27487832Y18455090D01*
X27506552Y18468974D01*
X27526543Y18480956D01*
X27547613Y18490921D01*
X27569557Y18498773D01*
X27592166Y18504437D01*
X27615221Y18507856D01*
X27638500Y18509000D01*
X28213500Y18509000D01*
X28236779Y18507856D01*
X28236779Y18507856D01*
G37*
D20*
G04 #@! TD*
G04 #@! TO.P,R2,2*
G04 #@! TO.N,/Flash*
X27926000Y18034000D03*
D13*
G04 #@! TO.N,+3V3*
G04 #@! TO.C,R3*
G36*
X26486779Y16475856D02*
X26509834Y16472437D01*
X26532443Y16466773D01*
X26554387Y16458921D01*
X26575457Y16448956D01*
X26595448Y16436974D01*
X26614168Y16423090D01*
X26631438Y16407438D01*
X26647090Y16390168D01*
X26660974Y16371448D01*
X26672956Y16351457D01*
X26682921Y16330387D01*
X26690773Y16308443D01*
X26696437Y16285834D01*
X26699856Y16262779D01*
X26701000Y16239500D01*
X26701000Y15764500D01*
X26699856Y15741221D01*
X26696437Y15718166D01*
X26690773Y15695557D01*
X26682921Y15673613D01*
X26672956Y15652543D01*
X26660974Y15632552D01*
X26647090Y15613832D01*
X26631438Y15596562D01*
X26614168Y15580910D01*
X26595448Y15567026D01*
X26575457Y15555044D01*
X26554387Y15545079D01*
X26532443Y15537227D01*
X26509834Y15531563D01*
X26486779Y15528144D01*
X26463500Y15527000D01*
X25888500Y15527000D01*
X25865221Y15528144D01*
X25842166Y15531563D01*
X25819557Y15537227D01*
X25797613Y15545079D01*
X25776543Y15555044D01*
X25756552Y15567026D01*
X25737832Y15580910D01*
X25720562Y15596562D01*
X25704910Y15613832D01*
X25691026Y15632552D01*
X25679044Y15652543D01*
X25669079Y15673613D01*
X25661227Y15695557D01*
X25655563Y15718166D01*
X25652144Y15741221D01*
X25651000Y15764500D01*
X25651000Y16239500D01*
X25652144Y16262779D01*
X25655563Y16285834D01*
X25661227Y16308443D01*
X25669079Y16330387D01*
X25679044Y16351457D01*
X25691026Y16371448D01*
X25704910Y16390168D01*
X25720562Y16407438D01*
X25737832Y16423090D01*
X25756552Y16436974D01*
X25776543Y16448956D01*
X25797613Y16458921D01*
X25819557Y16466773D01*
X25842166Y16472437D01*
X25865221Y16475856D01*
X25888500Y16477000D01*
X26463500Y16477000D01*
X26486779Y16475856D01*
X26486779Y16475856D01*
G37*
D20*
G04 #@! TD*
G04 #@! TO.P,R3,2*
G04 #@! TO.N,+3V3*
X26176000Y16002000D03*
D13*
G04 #@! TO.N,/Button*
G04 #@! TO.C,R3*
G36*
X28236779Y16475856D02*
X28259834Y16472437D01*
X28282443Y16466773D01*
X28304387Y16458921D01*
X28325457Y16448956D01*
X28345448Y16436974D01*
X28364168Y16423090D01*
X28381438Y16407438D01*
X28397090Y16390168D01*
X28410974Y16371448D01*
X28422956Y16351457D01*
X28432921Y16330387D01*
X28440773Y16308443D01*
X28446437Y16285834D01*
X28449856Y16262779D01*
X28451000Y16239500D01*
X28451000Y15764500D01*
X28449856Y15741221D01*
X28446437Y15718166D01*
X28440773Y15695557D01*
X28432921Y15673613D01*
X28422956Y15652543D01*
X28410974Y15632552D01*
X28397090Y15613832D01*
X28381438Y15596562D01*
X28364168Y15580910D01*
X28345448Y15567026D01*
X28325457Y15555044D01*
X28304387Y15545079D01*
X28282443Y15537227D01*
X28259834Y15531563D01*
X28236779Y15528144D01*
X28213500Y15527000D01*
X27638500Y15527000D01*
X27615221Y15528144D01*
X27592166Y15531563D01*
X27569557Y15537227D01*
X27547613Y15545079D01*
X27526543Y15555044D01*
X27506552Y15567026D01*
X27487832Y15580910D01*
X27470562Y15596562D01*
X27454910Y15613832D01*
X27441026Y15632552D01*
X27429044Y15652543D01*
X27419079Y15673613D01*
X27411227Y15695557D01*
X27405563Y15718166D01*
X27402144Y15741221D01*
X27401000Y15764500D01*
X27401000Y16239500D01*
X27402144Y16262779D01*
X27405563Y16285834D01*
X27411227Y16308443D01*
X27419079Y16330387D01*
X27429044Y16351457D01*
X27441026Y16371448D01*
X27454910Y16390168D01*
X27470562Y16407438D01*
X27487832Y16423090D01*
X27506552Y16436974D01*
X27526543Y16448956D01*
X27547613Y16458921D01*
X27569557Y16466773D01*
X27592166Y16472437D01*
X27615221Y16475856D01*
X27638500Y16477000D01*
X28213500Y16477000D01*
X28236779Y16475856D01*
X28236779Y16475856D01*
G37*
D20*
G04 #@! TD*
G04 #@! TO.P,R3,1*
G04 #@! TO.N,/Button*
X27926000Y16002000D03*
D13*
G04 #@! TO.N,Net-(D2-Pad2)*
G04 #@! TO.C,R4*
G36*
X28236779Y12411856D02*
X28259834Y12408437D01*
X28282443Y12402773D01*
X28304387Y12394921D01*
X28325457Y12384956D01*
X28345448Y12372974D01*
X28364168Y12359090D01*
X28381438Y12343438D01*
X28397090Y12326168D01*
X28410974Y12307448D01*
X28422956Y12287457D01*
X28432921Y12266387D01*
X28440773Y12244443D01*
X28446437Y12221834D01*
X28449856Y12198779D01*
X28451000Y12175500D01*
X28451000Y11700500D01*
X28449856Y11677221D01*
X28446437Y11654166D01*
X28440773Y11631557D01*
X28432921Y11609613D01*
X28422956Y11588543D01*
X28410974Y11568552D01*
X28397090Y11549832D01*
X28381438Y11532562D01*
X28364168Y11516910D01*
X28345448Y11503026D01*
X28325457Y11491044D01*
X28304387Y11481079D01*
X28282443Y11473227D01*
X28259834Y11467563D01*
X28236779Y11464144D01*
X28213500Y11463000D01*
X27638500Y11463000D01*
X27615221Y11464144D01*
X27592166Y11467563D01*
X27569557Y11473227D01*
X27547613Y11481079D01*
X27526543Y11491044D01*
X27506552Y11503026D01*
X27487832Y11516910D01*
X27470562Y11532562D01*
X27454910Y11549832D01*
X27441026Y11568552D01*
X27429044Y11588543D01*
X27419079Y11609613D01*
X27411227Y11631557D01*
X27405563Y11654166D01*
X27402144Y11677221D01*
X27401000Y11700500D01*
X27401000Y12175500D01*
X27402144Y12198779D01*
X27405563Y12221834D01*
X27411227Y12244443D01*
X27419079Y12266387D01*
X27429044Y12287457D01*
X27441026Y12307448D01*
X27454910Y12326168D01*
X27470562Y12343438D01*
X27487832Y12359090D01*
X27506552Y12372974D01*
X27526543Y12384956D01*
X27547613Y12394921D01*
X27569557Y12402773D01*
X27592166Y12408437D01*
X27615221Y12411856D01*
X27638500Y12413000D01*
X28213500Y12413000D01*
X28236779Y12411856D01*
X28236779Y12411856D01*
G37*
D20*
G04 #@! TD*
G04 #@! TO.P,R4,1*
G04 #@! TO.N,Net-(D2-Pad2)*
X27926000Y11938000D03*
D13*
G04 #@! TO.N,+3V3*
G04 #@! TO.C,R4*
G36*
X26486779Y12411856D02*
X26509834Y12408437D01*
X26532443Y12402773D01*
X26554387Y12394921D01*
X26575457Y12384956D01*
X26595448Y12372974D01*
X26614168Y12359090D01*
X26631438Y12343438D01*
X26647090Y12326168D01*
X26660974Y12307448D01*
X26672956Y12287457D01*
X26682921Y12266387D01*
X26690773Y12244443D01*
X26696437Y12221834D01*
X26699856Y12198779D01*
X26701000Y12175500D01*
X26701000Y11700500D01*
X26699856Y11677221D01*
X26696437Y11654166D01*
X26690773Y11631557D01*
X26682921Y11609613D01*
X26672956Y11588543D01*
X26660974Y11568552D01*
X26647090Y11549832D01*
X26631438Y11532562D01*
X26614168Y11516910D01*
X26595448Y11503026D01*
X26575457Y11491044D01*
X26554387Y11481079D01*
X26532443Y11473227D01*
X26509834Y11467563D01*
X26486779Y11464144D01*
X26463500Y11463000D01*
X25888500Y11463000D01*
X25865221Y11464144D01*
X25842166Y11467563D01*
X25819557Y11473227D01*
X25797613Y11481079D01*
X25776543Y11491044D01*
X25756552Y11503026D01*
X25737832Y11516910D01*
X25720562Y11532562D01*
X25704910Y11549832D01*
X25691026Y11568552D01*
X25679044Y11588543D01*
X25669079Y11609613D01*
X25661227Y11631557D01*
X25655563Y11654166D01*
X25652144Y11677221D01*
X25651000Y11700500D01*
X25651000Y12175500D01*
X25652144Y12198779D01*
X25655563Y12221834D01*
X25661227Y12244443D01*
X25669079Y12266387D01*
X25679044Y12287457D01*
X25691026Y12307448D01*
X25704910Y12326168D01*
X25720562Y12343438D01*
X25737832Y12359090D01*
X25756552Y12372974D01*
X25776543Y12384956D01*
X25797613Y12394921D01*
X25819557Y12402773D01*
X25842166Y12408437D01*
X25865221Y12411856D01*
X25888500Y12413000D01*
X26463500Y12413000D01*
X26486779Y12411856D01*
X26486779Y12411856D01*
G37*
D20*
G04 #@! TD*
G04 #@! TO.P,R4,2*
G04 #@! TO.N,+3V3*
X26176000Y11938000D03*
D21*
G04 #@! TO.P,J3,2*
G04 #@! TO.N,Net-(J3-Pad2)*
X7112000Y29638000D03*
D22*
G04 #@! TO.P,J3,1*
G04 #@! TO.N,Net-(J3-Pad1)*
X7112000Y24638000D03*
G04 #@! TD*
G04 #@! TO.P,J1,1*
G04 #@! TO.N,Net-(J1-Pad1)*
X7112000Y36068000D03*
D21*
G04 #@! TO.P,J1,2*
G04 #@! TO.N,Net-(J1-Pad2)*
X7112000Y41068000D03*
G04 #@! TD*
D23*
G04 #@! TO.P,Q1,4*
G04 #@! TO.N,Net-(D1-Pad1)*
X16662000Y4699000D03*
D24*
G04 #@! TO.P,Q1,2*
X22962000Y4699000D03*
G04 #@! TO.P,Q1,3*
G04 #@! TO.N,GND*
X22962000Y6999000D03*
G04 #@! TO.P,Q1,1*
G04 #@! TO.N,/Relay*
X22962000Y2399000D03*
G04 #@! TD*
D25*
G04 #@! TO.P,K1,1*
G04 #@! TO.N,Net-(D1-Pad1)*
X12035000Y4655000D03*
G04 #@! TO.P,K1,2*
G04 #@! TO.N,+5V*
X4435000Y4655000D03*
G04 #@! TO.P,K1,3*
G04 #@! TO.N,Net-(J3-Pad1)*
X4435000Y19895000D03*
G04 #@! TO.P,K1,4*
G04 #@! TO.N,Net-(J3-Pad2)*
X12035000Y17355000D03*
G04 #@! TD*
D26*
G04 #@! TO.N,/Flash*
X34163000Y18034000D03*
G04 #@! TO.N,/Rst*
X43942000Y10033000D03*
X28956000Y13152001D03*
G04 #@! TO.N,/RX*
X34036000Y12065000D03*
G04 #@! TO.N,/TX*
X34036000Y10033000D03*
G04 #@! TD*
D27*
G04 #@! TO.N,+5V*
X27357000Y23053000D02*
X26797000Y23613000D01*
X27957000Y23053000D02*
X27357000Y23053000D01*
X27239000Y24953000D02*
X27957000Y24953000D01*
X26797000Y24511000D02*
X27239000Y24953000D01*
X26797000Y23613000D02*
X26797000Y24257000D01*
X26797000Y24257000D02*
X26797000Y24511000D01*
X27711500Y26187500D02*
X27711500Y26924000D01*
X26797000Y24511000D02*
X26797000Y25273000D01*
X26797000Y25273000D02*
X27711500Y26187500D01*
X32399000Y30748000D02*
X46178000Y30748000D01*
X27711500Y26924000D02*
X28575000Y26924000D01*
X28575000Y26924000D02*
X32399000Y30748000D01*
X15733000Y8255000D02*
X14717000Y7239000D01*
X16063000Y8255000D02*
X15733000Y8255000D01*
X7019000Y7239000D02*
X4435000Y4655000D01*
X14717000Y7239000D02*
X7019000Y7239000D01*
G04 #@! TO.N,Net-(D1-Pad1)*
X17912000Y4699000D02*
X22962000Y4699000D01*
X16662000Y4699000D02*
X17912000Y4699000D01*
X16618000Y4655000D02*
X16662000Y4699000D01*
X12035000Y4655000D02*
X16618000Y4655000D01*
D28*
X16703000Y4740000D02*
X16662000Y4699000D01*
X16703000Y8255000D02*
X16703000Y4740000D01*
D29*
G04 #@! TO.N,GND*
X30860000Y24003000D02*
X30861000Y24002000D01*
X28956000Y24003000D02*
X30860000Y24003000D01*
X27957000Y24003000D02*
X28956000Y24003000D01*
X29361000Y22002000D02*
X30861000Y22002000D01*
X28956000Y22407000D02*
X29361000Y22002000D01*
X28956000Y22606000D02*
X28956000Y22407000D01*
X28376000Y21082000D02*
X28956000Y21662000D01*
X27838500Y21082000D02*
X28376000Y21082000D01*
X28956000Y21662000D02*
X28956000Y22860000D01*
X28956000Y24003000D02*
X28956000Y22860000D01*
X28956000Y22860000D02*
X28956000Y22606000D01*
X26035000Y29845000D02*
X25908000Y29718000D01*
X42338000Y46148000D02*
X46178000Y46148000D01*
X25908000Y29718000D02*
X42338000Y46148000D01*
X26136500Y7491500D02*
X26051000Y7406000D01*
X26136500Y9906000D02*
X26136500Y7491500D01*
X26178000Y5033000D02*
X26178000Y4826000D01*
X24212000Y6999000D02*
X26178000Y5033000D01*
X22962000Y6999000D02*
X24212000Y6999000D01*
X26178000Y7406000D02*
X26178000Y4826000D01*
X26178000Y4826000D02*
X26178000Y2246000D01*
X22962000Y6999000D02*
X20052000Y6999000D01*
X20052000Y6999000D02*
X18923000Y8128000D01*
X20236000Y22733000D02*
X18966000Y21463000D01*
X18966000Y21463000D02*
X18923000Y21463000D01*
X21336000Y22733000D02*
X20236000Y22733000D01*
X18923000Y8128000D02*
X18923000Y21463000D01*
X18923000Y21463000D02*
X18923000Y22733000D01*
X26136500Y26924000D02*
X23114000Y26924000D01*
X18923000Y22733000D02*
X23114000Y26924000D01*
X23114000Y26924000D02*
X25908000Y29718000D01*
X28956000Y24003000D02*
X28956000Y24892000D01*
X28956000Y24892000D02*
X32131000Y28067000D01*
X32131000Y28067000D02*
X46609000Y28067000D01*
X46609000Y28067000D02*
X46863000Y28067000D01*
X46863000Y28067000D02*
X47752000Y28956000D01*
X47752000Y44574000D02*
X46178000Y46148000D01*
X47752000Y28956000D02*
X47752000Y44574000D01*
D28*
G04 #@! TO.N,Net-(D2-Pad2)*
X27711500Y11723500D02*
X27926000Y11938000D01*
X27711500Y9906000D02*
X27711500Y11723500D01*
D30*
G04 #@! TO.N,+3V3*
X25019000Y19050000D02*
X25019000Y20574000D01*
X46061000Y24002000D02*
X44561000Y24002000D01*
X25019000Y13095000D02*
X26176000Y11938000D01*
X25551000Y13970000D02*
X25019000Y14502000D01*
X25019000Y14502000D02*
X25019000Y14732000D01*
X25019000Y15470000D02*
X25019000Y14732000D01*
X26176000Y13970000D02*
X25551000Y13970000D01*
X25019000Y14732000D02*
X25019000Y13095000D01*
X25527000Y16002000D02*
X25019000Y16510000D01*
X26176000Y16002000D02*
X25527000Y16002000D01*
X25019000Y15470000D02*
X25019000Y16510000D01*
X25019000Y16510000D02*
X25019000Y17526000D01*
X25273000Y18034000D02*
X25019000Y18288000D01*
X26176000Y18034000D02*
X25273000Y18034000D01*
X25019000Y17526000D02*
X25019000Y18288000D01*
X25019000Y18288000D02*
X25019000Y19050000D01*
X37021000Y20002000D02*
X43021000Y14002000D01*
X43021000Y14002000D02*
X44831000Y14002000D01*
X30861000Y20002000D02*
X37021000Y20002000D01*
X46061000Y14002000D02*
X44831000Y14002000D01*
X44831000Y14002000D02*
X44561000Y14002000D01*
X37021000Y20002000D02*
X39307000Y20002000D01*
X43307000Y24002000D02*
X46061000Y24002000D01*
X39307000Y20002000D02*
X43307000Y24002000D01*
X25591000Y20002000D02*
X25019000Y20574000D01*
X30861000Y20002000D02*
X25591000Y20002000D01*
X25726000Y21082000D02*
X25146000Y21662000D01*
X26263500Y21082000D02*
X25726000Y21082000D01*
X25019000Y21717000D02*
X25146000Y21844000D01*
X25146000Y21662000D02*
X25146000Y21844000D01*
X25637000Y22335000D02*
X25637000Y23053000D01*
X25146000Y21844000D02*
X25637000Y22335000D01*
X25019000Y20574000D02*
X25019000Y21717000D01*
D28*
X25019000Y21717000D02*
X23495000Y20193000D01*
X23495000Y20193000D02*
X21336000Y20193000D01*
G04 #@! TO.N,/Button*
X27926000Y16002000D02*
X29337000Y16002000D01*
X29337000Y16002000D02*
X30861000Y16002000D01*
X28178000Y7781000D02*
X28178000Y7406000D01*
X30861000Y16002000D02*
X33401000Y16002000D01*
X29287000Y8890000D02*
X28178000Y7781000D01*
X34036000Y8890000D02*
X29287000Y8890000D01*
X35433000Y13970000D02*
X35433000Y10287000D01*
X33401000Y16002000D02*
X35433000Y13970000D01*
X35433000Y10287000D02*
X34036000Y8890000D01*
X28178000Y7406000D02*
X28178000Y2246000D01*
G04 #@! TO.N,/Flash*
X30829000Y18034000D02*
X30861000Y18002000D01*
X27926000Y18034000D02*
X30829000Y18034000D01*
X30893000Y18034000D02*
X30861000Y18002000D01*
X34163000Y18034000D02*
X30893000Y18034000D01*
G04 #@! TO.N,/Rst*
X46030000Y10033000D02*
X46061000Y10002000D01*
X43942000Y10033000D02*
X46030000Y10033000D01*
X28884999Y13081000D02*
X28815000Y13081000D01*
X28815000Y13081000D02*
X27926000Y13970000D01*
X28956000Y13152001D02*
X28884999Y13081000D01*
G04 #@! TO.N,/Relay*
X47561000Y16002000D02*
X48387000Y15176000D01*
X46061000Y16002000D02*
X47561000Y16002000D01*
X48387000Y15176000D02*
X48387000Y2032000D01*
X48387000Y2032000D02*
X46990000Y635000D01*
X46990000Y635000D02*
X23368000Y635000D01*
X22962000Y1041000D02*
X22962000Y2399000D01*
X23368000Y635000D02*
X22962000Y1041000D01*
G04 #@! TO.N,/RX*
X30861000Y12002000D02*
X33973000Y12002000D01*
G04 #@! TO.N,/TX*
X30892000Y10033000D02*
X30861000Y10002000D01*
X34036000Y10033000D02*
X30892000Y10033000D01*
G04 #@! TD*
D31*
G04 #@! TO.N,GND*
G36*
X48237457Y16400345D02*
X48151331Y16486471D01*
X48108929Y16549929D01*
X47924378Y16673242D01*
X47909157Y16749765D01*
X47768809Y16959809D01*
X47705666Y17002000D01*
X47768809Y17044191D01*
X47909157Y17254235D01*
X47958440Y17502000D01*
X47958440Y18502000D01*
X47909157Y18749765D01*
X47768809Y18959809D01*
X47705666Y19002000D01*
X47768809Y19044191D01*
X47909157Y19254235D01*
X47958440Y19502000D01*
X47958440Y20502000D01*
X47909157Y20749765D01*
X47768809Y20959809D01*
X47705666Y21002000D01*
X47768809Y21044191D01*
X47909157Y21254235D01*
X47958440Y21502000D01*
X47958440Y22502000D01*
X47909157Y22749765D01*
X47768809Y22959809D01*
X47705666Y23002000D01*
X47768809Y23044191D01*
X47909157Y23254235D01*
X47958440Y23502000D01*
X47958440Y24502000D01*
X47909157Y24749765D01*
X47768809Y24959809D01*
X47558765Y25100157D01*
X47311000Y25149440D01*
X44811000Y25149440D01*
X44608440Y25109149D01*
X44608440Y26402000D01*
X44559157Y26649765D01*
X44418809Y26859809D01*
X44208765Y27000157D01*
X43961000Y27049440D01*
X42961000Y27049440D01*
X42713235Y27000157D01*
X42503191Y26859809D01*
X42461000Y26796666D01*
X42418809Y26859809D01*
X42208765Y27000157D01*
X41961000Y27049440D01*
X40961000Y27049440D01*
X40713235Y27000157D01*
X40503191Y26859809D01*
X40461000Y26796666D01*
X40418809Y26859809D01*
X40208765Y27000157D01*
X39961000Y27049440D01*
X38961000Y27049440D01*
X38713235Y27000157D01*
X38503191Y26859809D01*
X38461000Y26796666D01*
X38418809Y26859809D01*
X38208765Y27000157D01*
X37961000Y27049440D01*
X36961000Y27049440D01*
X36713235Y27000157D01*
X36503191Y26859809D01*
X36461000Y26796666D01*
X36418809Y26859809D01*
X36208765Y27000157D01*
X35961000Y27049440D01*
X34961000Y27049440D01*
X34713235Y27000157D01*
X34503191Y26859809D01*
X34461000Y26796666D01*
X34418809Y26859809D01*
X34208765Y27000157D01*
X33961000Y27049440D01*
X32961000Y27049440D01*
X32713235Y27000157D01*
X32503191Y26859809D01*
X32362843Y26649765D01*
X32313560Y26402000D01*
X32313560Y25105416D01*
X32237309Y25137000D01*
X31146750Y25137000D01*
X30988000Y24978250D01*
X30988000Y24129000D01*
X31008000Y24129000D01*
X31008000Y23875000D01*
X30988000Y23875000D01*
X30988000Y23025750D01*
X31011750Y23002000D01*
X30988000Y22978250D01*
X30988000Y22129000D01*
X32587250Y22129000D01*
X32746000Y22287750D01*
X32746000Y22628310D01*
X32649327Y22861699D01*
X32509025Y23002000D01*
X32649327Y23142301D01*
X32746000Y23375690D01*
X32746000Y23716250D01*
X32587252Y23874998D01*
X32746000Y23874998D01*
X32746000Y23997326D01*
X32961000Y23954560D01*
X33961000Y23954560D01*
X34208765Y24003843D01*
X34418809Y24144191D01*
X34461000Y24207334D01*
X34503191Y24144191D01*
X34713235Y24003843D01*
X34961000Y23954560D01*
X35961000Y23954560D01*
X36208765Y24003843D01*
X36418809Y24144191D01*
X36461000Y24207334D01*
X36503191Y24144191D01*
X36713235Y24003843D01*
X36961000Y23954560D01*
X37961000Y23954560D01*
X38208765Y24003843D01*
X38418809Y24144191D01*
X38461000Y24207334D01*
X38503191Y24144191D01*
X38713235Y24003843D01*
X38961000Y23954560D01*
X39961000Y23954560D01*
X40208765Y24003843D01*
X40418809Y24144191D01*
X40461000Y24207334D01*
X40503191Y24144191D01*
X40713235Y24003843D01*
X40961000Y23954560D01*
X41961000Y23954560D01*
X42196182Y24001340D01*
X38981843Y20787000D01*
X37098312Y20787000D01*
X37021000Y20802378D01*
X36943688Y20787000D01*
X32684277Y20787000D01*
X32568809Y20959809D01*
X32507680Y21000655D01*
X32649327Y21142301D01*
X32746000Y21375690D01*
X32746000Y21716250D01*
X32587250Y21875000D01*
X30988000Y21875000D01*
X30988000Y21855000D01*
X30734000Y21855000D01*
X30734000Y21875000D01*
X29134750Y21875000D01*
X28976000Y21716250D01*
X28976000Y21375690D01*
X29072673Y21142301D01*
X29214320Y21000655D01*
X29153191Y20959809D01*
X29037723Y20787000D01*
X28911000Y20787000D01*
X28911000Y20796250D01*
X28752250Y20955000D01*
X27965500Y20955000D01*
X27965500Y20935000D01*
X27711500Y20935000D01*
X27711500Y20955000D01*
X27691500Y20955000D01*
X27691500Y21209000D01*
X27711500Y21209000D01*
X27711500Y21229000D01*
X27965500Y21229000D01*
X27965500Y21209000D01*
X28752250Y21209000D01*
X28911000Y21367750D01*
X28911000Y21683310D01*
X28814327Y21916699D01*
X28635698Y22095327D01*
X28438977Y22176812D01*
X28554765Y22199843D01*
X28764809Y22340191D01*
X28905157Y22550235D01*
X28954440Y22798000D01*
X28954440Y23308000D01*
X28908251Y23540212D01*
X28942000Y23621690D01*
X28942000Y23716250D01*
X28976000Y23716250D01*
X28976000Y23375690D01*
X29072673Y23142301D01*
X29212975Y23002000D01*
X29072673Y22861699D01*
X28976000Y22628310D01*
X28976000Y22287750D01*
X29134750Y22129000D01*
X30734000Y22129000D01*
X30734000Y22978250D01*
X30710250Y23002000D01*
X30734000Y23025750D01*
X30734000Y23875000D01*
X29134750Y23875000D01*
X28976000Y23716250D01*
X28942000Y23716250D01*
X28942000Y23717250D01*
X28783250Y23876000D01*
X28599898Y23876000D01*
X28554765Y23906157D01*
X28307000Y23955440D01*
X27810000Y23955440D01*
X27810000Y24050560D01*
X28307000Y24050560D01*
X28554765Y24099843D01*
X28599898Y24130000D01*
X28783250Y24130000D01*
X28942000Y24288750D01*
X28942000Y24384310D01*
X28908251Y24465788D01*
X28940578Y24628310D01*
X28976000Y24628310D01*
X28976000Y24287750D01*
X29134750Y24129000D01*
X30734000Y24129000D01*
X30734000Y24978250D01*
X30575250Y25137000D01*
X29484691Y25137000D01*
X29251302Y25040327D01*
X29072673Y24861699D01*
X28976000Y24628310D01*
X28940578Y24628310D01*
X28954440Y24698000D01*
X28954440Y25208000D01*
X28905157Y25455765D01*
X28764809Y25665809D01*
X28554765Y25806157D01*
X28445407Y25827909D01*
X28474503Y25871454D01*
X28506209Y26030852D01*
X28542739Y26055261D01*
X28571809Y26098767D01*
X28575000Y26098132D01*
X28654773Y26114000D01*
X28654774Y26114000D01*
X28891046Y26160997D01*
X29158977Y26340023D01*
X29204168Y26407656D01*
X32734513Y29938000D01*
X45012343Y29938000D01*
X45386663Y29563680D01*
X45900119Y29351000D01*
X46455881Y29351000D01*
X46969337Y29563680D01*
X47362320Y29956663D01*
X47575000Y30470119D01*
X47575000Y31025881D01*
X47362320Y31539337D01*
X46969337Y31932320D01*
X46455881Y32145000D01*
X45900119Y32145000D01*
X45386663Y31932320D01*
X45012343Y31558000D01*
X32478774Y31558000D01*
X32399000Y31573868D01*
X32082953Y31511003D01*
X31946270Y31419673D01*
X31815023Y31331977D01*
X31769834Y31264347D01*
X28396165Y27890677D01*
X28261727Y27980505D01*
X27930250Y28046440D01*
X27492750Y28046440D01*
X27161273Y27980505D01*
X26998969Y27872057D01*
X26933698Y27937327D01*
X26700309Y28034000D01*
X26422250Y28034000D01*
X26263500Y27875250D01*
X26263500Y27051000D01*
X26283500Y27051000D01*
X26283500Y26797000D01*
X26263500Y26797000D01*
X26263500Y26777000D01*
X26009500Y26777000D01*
X26009500Y26797000D01*
X25222750Y26797000D01*
X25064000Y26638250D01*
X25064000Y26322690D01*
X25160673Y26089301D01*
X25339302Y25910673D01*
X25472646Y25855440D01*
X25287000Y25855440D01*
X25039235Y25806157D01*
X24829191Y25665809D01*
X24688843Y25455765D01*
X24639560Y25208000D01*
X24639560Y24698000D01*
X24688843Y24450235D01*
X24829191Y24240191D01*
X25039235Y24099843D01*
X25287000Y24050560D01*
X25987000Y24050560D01*
X25987000Y23955440D01*
X25287000Y23955440D01*
X25039235Y23906157D01*
X24829191Y23765809D01*
X24688843Y23555765D01*
X24639560Y23308000D01*
X24639560Y22798000D01*
X24688843Y22550235D01*
X24710166Y22518323D01*
X24645592Y22453749D01*
X24580047Y22409953D01*
X24536251Y22344408D01*
X24518590Y22326747D01*
X24453048Y22282953D01*
X24409254Y22217411D01*
X24409251Y22217408D01*
X24338059Y22110862D01*
X23180199Y20953000D01*
X22614178Y20953000D01*
X22406625Y21263625D01*
X22384967Y21278096D01*
X22545698Y21344673D01*
X22724327Y21523301D01*
X22821000Y21756690D01*
X22821000Y22447250D01*
X22662250Y22606000D01*
X21463000Y22606000D01*
X21463000Y22586000D01*
X21209000Y22586000D01*
X21209000Y22606000D01*
X20009750Y22606000D01*
X19851000Y22447250D01*
X19851000Y21756690D01*
X19947673Y21523301D01*
X20126302Y21344673D01*
X20287033Y21278096D01*
X20265375Y21263625D01*
X19937161Y20772418D01*
X19821908Y20193000D01*
X19937161Y19613582D01*
X20265375Y19122375D01*
X20563761Y18923000D01*
X20265375Y18723625D01*
X19937161Y18232418D01*
X19821908Y17653000D01*
X19937161Y17073582D01*
X20265375Y16582375D01*
X20563761Y16383000D01*
X20265375Y16183625D01*
X19937161Y15692418D01*
X19821908Y15113000D01*
X19937161Y14533582D01*
X20265375Y14042375D01*
X20563761Y13843000D01*
X20265375Y13643625D01*
X19937161Y13152418D01*
X19821908Y12573000D01*
X19937161Y11993582D01*
X20265375Y11502375D01*
X20563761Y11303000D01*
X20265375Y11103625D01*
X19937161Y10612418D01*
X19821908Y10033000D01*
X19937161Y9453582D01*
X20265375Y8962375D01*
X20756582Y8634161D01*
X21189744Y8548000D01*
X21482256Y8548000D01*
X21915418Y8634161D01*
X22406625Y8962375D01*
X22734839Y9453582D01*
X22850092Y10033000D01*
X22734839Y10612418D01*
X22406625Y11103625D01*
X22108239Y11303000D01*
X22406625Y11502375D01*
X22734839Y11993582D01*
X22850092Y12573000D01*
X22734839Y13152418D01*
X22406625Y13643625D01*
X22108239Y13843000D01*
X22406625Y14042375D01*
X22734839Y14533582D01*
X22850092Y15113000D01*
X22734839Y15692418D01*
X22406625Y16183625D01*
X22108239Y16383000D01*
X22406625Y16582375D01*
X22734839Y17073582D01*
X22850092Y17653000D01*
X22734839Y18232418D01*
X22406625Y18723625D01*
X22108239Y18923000D01*
X22406625Y19122375D01*
X22614178Y19433000D01*
X23420153Y19433000D01*
X23495000Y19418112D01*
X23569847Y19433000D01*
X23569852Y19433000D01*
X23791537Y19477096D01*
X24042929Y19645071D01*
X24085331Y19708530D01*
X24234001Y19857199D01*
X24234000Y19127316D01*
X24234000Y18365312D01*
X24218622Y18288000D01*
X24234000Y18210688D01*
X24234000Y17448685D01*
X24234001Y17448681D01*
X24234000Y16587312D01*
X24218622Y16510000D01*
X24234000Y16432688D01*
X24234000Y16432685D01*
X24234001Y16432681D01*
X24234000Y15547316D01*
X24234000Y14579312D01*
X24218622Y14502000D01*
X24234000Y14424687D01*
X24234001Y13172316D01*
X24218622Y13095000D01*
X24279546Y12788709D01*
X24409251Y12594592D01*
X24409254Y12594589D01*
X24453048Y12529047D01*
X24518590Y12485253D01*
X25003560Y12000283D01*
X25003560Y11700500D01*
X25070922Y11361848D01*
X25262753Y11074753D01*
X25435642Y10959232D01*
X25339302Y10919327D01*
X25160673Y10740699D01*
X25064000Y10507310D01*
X25064000Y10191750D01*
X25222750Y10033000D01*
X26009500Y10033000D01*
X26009500Y10053000D01*
X26263500Y10053000D01*
X26263500Y10033000D01*
X26283500Y10033000D01*
X26283500Y9779000D01*
X26263500Y9779000D01*
X26263500Y9759000D01*
X26009500Y9759000D01*
X26009500Y9779000D01*
X25222750Y9779000D01*
X25095750Y9652000D01*
X24765000Y9652000D01*
X24716399Y9642333D01*
X24675197Y9614803D01*
X24647667Y9573601D01*
X24638000Y9525000D01*
X24638000Y1399330D01*
X24559834Y1400751D01*
X24560157Y1401235D01*
X24609440Y1649000D01*
X24609440Y3149000D01*
X24560157Y3396765D01*
X24458436Y3549000D01*
X24560157Y3701235D01*
X24609440Y3949000D01*
X24609440Y5449000D01*
X24560157Y5696765D01*
X24459073Y5848047D01*
X24500327Y5889301D01*
X24597000Y6122690D01*
X24597000Y6713250D01*
X24438250Y6872000D01*
X23089000Y6872000D01*
X23089000Y6852000D01*
X22835000Y6852000D01*
X22835000Y6872000D01*
X21485750Y6872000D01*
X21327000Y6713250D01*
X21327000Y6122690D01*
X21423673Y5889301D01*
X21464927Y5848047D01*
X21363843Y5696765D01*
X21326495Y5509000D01*
X18309440Y5509000D01*
X18309440Y6599000D01*
X18260157Y6846765D01*
X18119809Y7056809D01*
X17909765Y7197157D01*
X17907000Y7197707D01*
X17907000Y7875310D01*
X21327000Y7875310D01*
X21327000Y7284750D01*
X21485750Y7126000D01*
X22835000Y7126000D01*
X22835000Y8225250D01*
X23089000Y8225250D01*
X23089000Y7126000D01*
X24438250Y7126000D01*
X24597000Y7284750D01*
X24597000Y7875310D01*
X24500327Y8108699D01*
X24321698Y8287327D01*
X24088309Y8384000D01*
X23247750Y8384000D01*
X23089000Y8225250D01*
X22835000Y8225250D01*
X22676250Y8384000D01*
X21835691Y8384000D01*
X21602302Y8287327D01*
X21423673Y8108699D01*
X21327000Y7875310D01*
X17907000Y7875310D01*
X17907000Y15025363D01*
X17919244Y15059003D01*
X17994447Y15485506D01*
X18007000Y15548612D01*
X18007000Y23709310D01*
X19851000Y23709310D01*
X19851000Y23018750D01*
X20009750Y22860000D01*
X21209000Y22860000D01*
X21209000Y24059250D01*
X21463000Y24059250D01*
X21463000Y22860000D01*
X22662250Y22860000D01*
X22821000Y23018750D01*
X22821000Y23709310D01*
X22724327Y23942699D01*
X22545698Y24121327D01*
X22312309Y24218000D01*
X21621750Y24218000D01*
X21463000Y24059250D01*
X21209000Y24059250D01*
X21050250Y24218000D01*
X20359691Y24218000D01*
X20126302Y24121327D01*
X19947673Y23942699D01*
X19851000Y23709310D01*
X18007000Y23709310D01*
X18007000Y25349554D01*
X20182756Y27525310D01*
X25064000Y27525310D01*
X25064000Y27209750D01*
X25222750Y27051000D01*
X26009500Y27051000D01*
X26009500Y27875250D01*
X25850750Y28034000D01*
X25572691Y28034000D01*
X25339302Y27937327D01*
X25160673Y27758699D01*
X25064000Y27525310D01*
X20182756Y27525310D01*
X22566538Y29909091D01*
X22627905Y29950095D01*
X22790354Y30193217D01*
X22833000Y30407612D01*
X22847399Y30480000D01*
X22833000Y30552388D01*
X22833000Y43125388D01*
X22820447Y43188494D01*
X22745244Y43614997D01*
X22733000Y43648637D01*
X22733000Y45167787D01*
X45377392Y45167787D01*
X45446857Y44925603D01*
X45970302Y44738856D01*
X46525368Y44766638D01*
X46909143Y44925603D01*
X46978608Y45167787D01*
X46178000Y45968395D01*
X45377392Y45167787D01*
X22733000Y45167787D01*
X22733000Y46355698D01*
X44768856Y46355698D01*
X44796638Y45800632D01*
X44955603Y45416857D01*
X45197787Y45347392D01*
X45998395Y46148000D01*
X46357605Y46148000D01*
X47158213Y45347392D01*
X47400397Y45416857D01*
X47587144Y45940302D01*
X47559362Y46495368D01*
X47400397Y46879143D01*
X47158213Y46948608D01*
X46357605Y46148000D01*
X45998395Y46148000D01*
X45197787Y46948608D01*
X44955603Y46879143D01*
X44768856Y46355698D01*
X22733000Y46355698D01*
X22733000Y47128213D01*
X45377392Y47128213D01*
X46178000Y46327605D01*
X46978608Y47128213D01*
X46909143Y47370397D01*
X46385698Y47557144D01*
X45830632Y47529362D01*
X45446857Y47370397D01*
X45377392Y47128213D01*
X22733000Y47128213D01*
X22733000Y48133000D01*
X48133416Y48133000D01*
X48237457Y16400345D01*
X48237457Y16400345D01*
G37*
X48237457Y16400345D02*
X48151331Y16486471D01*
X48108929Y16549929D01*
X47924378Y16673242D01*
X47909157Y16749765D01*
X47768809Y16959809D01*
X47705666Y17002000D01*
X47768809Y17044191D01*
X47909157Y17254235D01*
X47958440Y17502000D01*
X47958440Y18502000D01*
X47909157Y18749765D01*
X47768809Y18959809D01*
X47705666Y19002000D01*
X47768809Y19044191D01*
X47909157Y19254235D01*
X47958440Y19502000D01*
X47958440Y20502000D01*
X47909157Y20749765D01*
X47768809Y20959809D01*
X47705666Y21002000D01*
X47768809Y21044191D01*
X47909157Y21254235D01*
X47958440Y21502000D01*
X47958440Y22502000D01*
X47909157Y22749765D01*
X47768809Y22959809D01*
X47705666Y23002000D01*
X47768809Y23044191D01*
X47909157Y23254235D01*
X47958440Y23502000D01*
X47958440Y24502000D01*
X47909157Y24749765D01*
X47768809Y24959809D01*
X47558765Y25100157D01*
X47311000Y25149440D01*
X44811000Y25149440D01*
X44608440Y25109149D01*
X44608440Y26402000D01*
X44559157Y26649765D01*
X44418809Y26859809D01*
X44208765Y27000157D01*
X43961000Y27049440D01*
X42961000Y27049440D01*
X42713235Y27000157D01*
X42503191Y26859809D01*
X42461000Y26796666D01*
X42418809Y26859809D01*
X42208765Y27000157D01*
X41961000Y27049440D01*
X40961000Y27049440D01*
X40713235Y27000157D01*
X40503191Y26859809D01*
X40461000Y26796666D01*
X40418809Y26859809D01*
X40208765Y27000157D01*
X39961000Y27049440D01*
X38961000Y27049440D01*
X38713235Y27000157D01*
X38503191Y26859809D01*
X38461000Y26796666D01*
X38418809Y26859809D01*
X38208765Y27000157D01*
X37961000Y27049440D01*
X36961000Y27049440D01*
X36713235Y27000157D01*
X36503191Y26859809D01*
X36461000Y26796666D01*
X36418809Y26859809D01*
X36208765Y27000157D01*
X35961000Y27049440D01*
X34961000Y27049440D01*
X34713235Y27000157D01*
X34503191Y26859809D01*
X34461000Y26796666D01*
X34418809Y26859809D01*
X34208765Y27000157D01*
X33961000Y27049440D01*
X32961000Y27049440D01*
X32713235Y27000157D01*
X32503191Y26859809D01*
X32362843Y26649765D01*
X32313560Y26402000D01*
X32313560Y25105416D01*
X32237309Y25137000D01*
X31146750Y25137000D01*
X30988000Y24978250D01*
X30988000Y24129000D01*
X31008000Y24129000D01*
X31008000Y23875000D01*
X30988000Y23875000D01*
X30988000Y23025750D01*
X31011750Y23002000D01*
X30988000Y22978250D01*
X30988000Y22129000D01*
X32587250Y22129000D01*
X32746000Y22287750D01*
X32746000Y22628310D01*
X32649327Y22861699D01*
X32509025Y23002000D01*
X32649327Y23142301D01*
X32746000Y23375690D01*
X32746000Y23716250D01*
X32587252Y23874998D01*
X32746000Y23874998D01*
X32746000Y23997326D01*
X32961000Y23954560D01*
X33961000Y23954560D01*
X34208765Y24003843D01*
X34418809Y24144191D01*
X34461000Y24207334D01*
X34503191Y24144191D01*
X34713235Y24003843D01*
X34961000Y23954560D01*
X35961000Y23954560D01*
X36208765Y24003843D01*
X36418809Y24144191D01*
X36461000Y24207334D01*
X36503191Y24144191D01*
X36713235Y24003843D01*
X36961000Y23954560D01*
X37961000Y23954560D01*
X38208765Y24003843D01*
X38418809Y24144191D01*
X38461000Y24207334D01*
X38503191Y24144191D01*
X38713235Y24003843D01*
X38961000Y23954560D01*
X39961000Y23954560D01*
X40208765Y24003843D01*
X40418809Y24144191D01*
X40461000Y24207334D01*
X40503191Y24144191D01*
X40713235Y24003843D01*
X40961000Y23954560D01*
X41961000Y23954560D01*
X42196182Y24001340D01*
X38981843Y20787000D01*
X37098312Y20787000D01*
X37021000Y20802378D01*
X36943688Y20787000D01*
X32684277Y20787000D01*
X32568809Y20959809D01*
X32507680Y21000655D01*
X32649327Y21142301D01*
X32746000Y21375690D01*
X32746000Y21716250D01*
X32587250Y21875000D01*
X30988000Y21875000D01*
X30988000Y21855000D01*
X30734000Y21855000D01*
X30734000Y21875000D01*
X29134750Y21875000D01*
X28976000Y21716250D01*
X28976000Y21375690D01*
X29072673Y21142301D01*
X29214320Y21000655D01*
X29153191Y20959809D01*
X29037723Y20787000D01*
X28911000Y20787000D01*
X28911000Y20796250D01*
X28752250Y20955000D01*
X27965500Y20955000D01*
X27965500Y20935000D01*
X27711500Y20935000D01*
X27711500Y20955000D01*
X27691500Y20955000D01*
X27691500Y21209000D01*
X27711500Y21209000D01*
X27711500Y21229000D01*
X27965500Y21229000D01*
X27965500Y21209000D01*
X28752250Y21209000D01*
X28911000Y21367750D01*
X28911000Y21683310D01*
X28814327Y21916699D01*
X28635698Y22095327D01*
X28438977Y22176812D01*
X28554765Y22199843D01*
X28764809Y22340191D01*
X28905157Y22550235D01*
X28954440Y22798000D01*
X28954440Y23308000D01*
X28908251Y23540212D01*
X28942000Y23621690D01*
X28942000Y23716250D01*
X28976000Y23716250D01*
X28976000Y23375690D01*
X29072673Y23142301D01*
X29212975Y23002000D01*
X29072673Y22861699D01*
X28976000Y22628310D01*
X28976000Y22287750D01*
X29134750Y22129000D01*
X30734000Y22129000D01*
X30734000Y22978250D01*
X30710250Y23002000D01*
X30734000Y23025750D01*
X30734000Y23875000D01*
X29134750Y23875000D01*
X28976000Y23716250D01*
X28942000Y23716250D01*
X28942000Y23717250D01*
X28783250Y23876000D01*
X28599898Y23876000D01*
X28554765Y23906157D01*
X28307000Y23955440D01*
X27810000Y23955440D01*
X27810000Y24050560D01*
X28307000Y24050560D01*
X28554765Y24099843D01*
X28599898Y24130000D01*
X28783250Y24130000D01*
X28942000Y24288750D01*
X28942000Y24384310D01*
X28908251Y24465788D01*
X28940578Y24628310D01*
X28976000Y24628310D01*
X28976000Y24287750D01*
X29134750Y24129000D01*
X30734000Y24129000D01*
X30734000Y24978250D01*
X30575250Y25137000D01*
X29484691Y25137000D01*
X29251302Y25040327D01*
X29072673Y24861699D01*
X28976000Y24628310D01*
X28940578Y24628310D01*
X28954440Y24698000D01*
X28954440Y25208000D01*
X28905157Y25455765D01*
X28764809Y25665809D01*
X28554765Y25806157D01*
X28445407Y25827909D01*
X28474503Y25871454D01*
X28506209Y26030852D01*
X28542739Y26055261D01*
X28571809Y26098767D01*
X28575000Y26098132D01*
X28654773Y26114000D01*
X28654774Y26114000D01*
X28891046Y26160997D01*
X29158977Y26340023D01*
X29204168Y26407656D01*
X32734513Y29938000D01*
X45012343Y29938000D01*
X45386663Y29563680D01*
X45900119Y29351000D01*
X46455881Y29351000D01*
X46969337Y29563680D01*
X47362320Y29956663D01*
X47575000Y30470119D01*
X47575000Y31025881D01*
X47362320Y31539337D01*
X46969337Y31932320D01*
X46455881Y32145000D01*
X45900119Y32145000D01*
X45386663Y31932320D01*
X45012343Y31558000D01*
X32478774Y31558000D01*
X32399000Y31573868D01*
X32082953Y31511003D01*
X31946270Y31419673D01*
X31815023Y31331977D01*
X31769834Y31264347D01*
X28396165Y27890677D01*
X28261727Y27980505D01*
X27930250Y28046440D01*
X27492750Y28046440D01*
X27161273Y27980505D01*
X26998969Y27872057D01*
X26933698Y27937327D01*
X26700309Y28034000D01*
X26422250Y28034000D01*
X26263500Y27875250D01*
X26263500Y27051000D01*
X26283500Y27051000D01*
X26283500Y26797000D01*
X26263500Y26797000D01*
X26263500Y26777000D01*
X26009500Y26777000D01*
X26009500Y26797000D01*
X25222750Y26797000D01*
X25064000Y26638250D01*
X25064000Y26322690D01*
X25160673Y26089301D01*
X25339302Y25910673D01*
X25472646Y25855440D01*
X25287000Y25855440D01*
X25039235Y25806157D01*
X24829191Y25665809D01*
X24688843Y25455765D01*
X24639560Y25208000D01*
X24639560Y24698000D01*
X24688843Y24450235D01*
X24829191Y24240191D01*
X25039235Y24099843D01*
X25287000Y24050560D01*
X25987000Y24050560D01*
X25987000Y23955440D01*
X25287000Y23955440D01*
X25039235Y23906157D01*
X24829191Y23765809D01*
X24688843Y23555765D01*
X24639560Y23308000D01*
X24639560Y22798000D01*
X24688843Y22550235D01*
X24710166Y22518323D01*
X24645592Y22453749D01*
X24580047Y22409953D01*
X24536251Y22344408D01*
X24518590Y22326747D01*
X24453048Y22282953D01*
X24409254Y22217411D01*
X24409251Y22217408D01*
X24338059Y22110862D01*
X23180199Y20953000D01*
X22614178Y20953000D01*
X22406625Y21263625D01*
X22384967Y21278096D01*
X22545698Y21344673D01*
X22724327Y21523301D01*
X22821000Y21756690D01*
X22821000Y22447250D01*
X22662250Y22606000D01*
X21463000Y22606000D01*
X21463000Y22586000D01*
X21209000Y22586000D01*
X21209000Y22606000D01*
X20009750Y22606000D01*
X19851000Y22447250D01*
X19851000Y21756690D01*
X19947673Y21523301D01*
X20126302Y21344673D01*
X20287033Y21278096D01*
X20265375Y21263625D01*
X19937161Y20772418D01*
X19821908Y20193000D01*
X19937161Y19613582D01*
X20265375Y19122375D01*
X20563761Y18923000D01*
X20265375Y18723625D01*
X19937161Y18232418D01*
X19821908Y17653000D01*
X19937161Y17073582D01*
X20265375Y16582375D01*
X20563761Y16383000D01*
X20265375Y16183625D01*
X19937161Y15692418D01*
X19821908Y15113000D01*
X19937161Y14533582D01*
X20265375Y14042375D01*
X20563761Y13843000D01*
X20265375Y13643625D01*
X19937161Y13152418D01*
X19821908Y12573000D01*
X19937161Y11993582D01*
X20265375Y11502375D01*
X20563761Y11303000D01*
X20265375Y11103625D01*
X19937161Y10612418D01*
X19821908Y10033000D01*
X19937161Y9453582D01*
X20265375Y8962375D01*
X20756582Y8634161D01*
X21189744Y8548000D01*
X21482256Y8548000D01*
X21915418Y8634161D01*
X22406625Y8962375D01*
X22734839Y9453582D01*
X22850092Y10033000D01*
X22734839Y10612418D01*
X22406625Y11103625D01*
X22108239Y11303000D01*
X22406625Y11502375D01*
X22734839Y11993582D01*
X22850092Y12573000D01*
X22734839Y13152418D01*
X22406625Y13643625D01*
X22108239Y13843000D01*
X22406625Y14042375D01*
X22734839Y14533582D01*
X22850092Y15113000D01*
X22734839Y15692418D01*
X22406625Y16183625D01*
X22108239Y16383000D01*
X22406625Y16582375D01*
X22734839Y17073582D01*
X22850092Y17653000D01*
X22734839Y18232418D01*
X22406625Y18723625D01*
X22108239Y18923000D01*
X22406625Y19122375D01*
X22614178Y19433000D01*
X23420153Y19433000D01*
X23495000Y19418112D01*
X23569847Y19433000D01*
X23569852Y19433000D01*
X23791537Y19477096D01*
X24042929Y19645071D01*
X24085331Y19708530D01*
X24234001Y19857199D01*
X24234000Y19127316D01*
X24234000Y18365312D01*
X24218622Y18288000D01*
X24234000Y18210688D01*
X24234000Y17448685D01*
X24234001Y17448681D01*
X24234000Y16587312D01*
X24218622Y16510000D01*
X24234000Y16432688D01*
X24234000Y16432685D01*
X24234001Y16432681D01*
X24234000Y15547316D01*
X24234000Y14579312D01*
X24218622Y14502000D01*
X24234000Y14424687D01*
X24234001Y13172316D01*
X24218622Y13095000D01*
X24279546Y12788709D01*
X24409251Y12594592D01*
X24409254Y12594589D01*
X24453048Y12529047D01*
X24518590Y12485253D01*
X25003560Y12000283D01*
X25003560Y11700500D01*
X25070922Y11361848D01*
X25262753Y11074753D01*
X25435642Y10959232D01*
X25339302Y10919327D01*
X25160673Y10740699D01*
X25064000Y10507310D01*
X25064000Y10191750D01*
X25222750Y10033000D01*
X26009500Y10033000D01*
X26009500Y10053000D01*
X26263500Y10053000D01*
X26263500Y10033000D01*
X26283500Y10033000D01*
X26283500Y9779000D01*
X26263500Y9779000D01*
X26263500Y9759000D01*
X26009500Y9759000D01*
X26009500Y9779000D01*
X25222750Y9779000D01*
X25095750Y9652000D01*
X24765000Y9652000D01*
X24716399Y9642333D01*
X24675197Y9614803D01*
X24647667Y9573601D01*
X24638000Y9525000D01*
X24638000Y1399330D01*
X24559834Y1400751D01*
X24560157Y1401235D01*
X24609440Y1649000D01*
X24609440Y3149000D01*
X24560157Y3396765D01*
X24458436Y3549000D01*
X24560157Y3701235D01*
X24609440Y3949000D01*
X24609440Y5449000D01*
X24560157Y5696765D01*
X24459073Y5848047D01*
X24500327Y5889301D01*
X24597000Y6122690D01*
X24597000Y6713250D01*
X24438250Y6872000D01*
X23089000Y6872000D01*
X23089000Y6852000D01*
X22835000Y6852000D01*
X22835000Y6872000D01*
X21485750Y6872000D01*
X21327000Y6713250D01*
X21327000Y6122690D01*
X21423673Y5889301D01*
X21464927Y5848047D01*
X21363843Y5696765D01*
X21326495Y5509000D01*
X18309440Y5509000D01*
X18309440Y6599000D01*
X18260157Y6846765D01*
X18119809Y7056809D01*
X17909765Y7197157D01*
X17907000Y7197707D01*
X17907000Y7875310D01*
X21327000Y7875310D01*
X21327000Y7284750D01*
X21485750Y7126000D01*
X22835000Y7126000D01*
X22835000Y8225250D01*
X23089000Y8225250D01*
X23089000Y7126000D01*
X24438250Y7126000D01*
X24597000Y7284750D01*
X24597000Y7875310D01*
X24500327Y8108699D01*
X24321698Y8287327D01*
X24088309Y8384000D01*
X23247750Y8384000D01*
X23089000Y8225250D01*
X22835000Y8225250D01*
X22676250Y8384000D01*
X21835691Y8384000D01*
X21602302Y8287327D01*
X21423673Y8108699D01*
X21327000Y7875310D01*
X17907000Y7875310D01*
X17907000Y15025363D01*
X17919244Y15059003D01*
X17994447Y15485506D01*
X18007000Y15548612D01*
X18007000Y23709310D01*
X19851000Y23709310D01*
X19851000Y23018750D01*
X20009750Y22860000D01*
X21209000Y22860000D01*
X21209000Y24059250D01*
X21463000Y24059250D01*
X21463000Y22860000D01*
X22662250Y22860000D01*
X22821000Y23018750D01*
X22821000Y23709310D01*
X22724327Y23942699D01*
X22545698Y24121327D01*
X22312309Y24218000D01*
X21621750Y24218000D01*
X21463000Y24059250D01*
X21209000Y24059250D01*
X21050250Y24218000D01*
X20359691Y24218000D01*
X20126302Y24121327D01*
X19947673Y23942699D01*
X19851000Y23709310D01*
X18007000Y23709310D01*
X18007000Y25349554D01*
X20182756Y27525310D01*
X25064000Y27525310D01*
X25064000Y27209750D01*
X25222750Y27051000D01*
X26009500Y27051000D01*
X26009500Y27875250D01*
X25850750Y28034000D01*
X25572691Y28034000D01*
X25339302Y27937327D01*
X25160673Y27758699D01*
X25064000Y27525310D01*
X20182756Y27525310D01*
X22566538Y29909091D01*
X22627905Y29950095D01*
X22790354Y30193217D01*
X22833000Y30407612D01*
X22847399Y30480000D01*
X22833000Y30552388D01*
X22833000Y43125388D01*
X22820447Y43188494D01*
X22745244Y43614997D01*
X22733000Y43648637D01*
X22733000Y45167787D01*
X45377392Y45167787D01*
X45446857Y44925603D01*
X45970302Y44738856D01*
X46525368Y44766638D01*
X46909143Y44925603D01*
X46978608Y45167787D01*
X46178000Y45968395D01*
X45377392Y45167787D01*
X22733000Y45167787D01*
X22733000Y46355698D01*
X44768856Y46355698D01*
X44796638Y45800632D01*
X44955603Y45416857D01*
X45197787Y45347392D01*
X45998395Y46148000D01*
X46357605Y46148000D01*
X47158213Y45347392D01*
X47400397Y45416857D01*
X47587144Y45940302D01*
X47559362Y46495368D01*
X47400397Y46879143D01*
X47158213Y46948608D01*
X46357605Y46148000D01*
X45998395Y46148000D01*
X45197787Y46948608D01*
X44955603Y46879143D01*
X44768856Y46355698D01*
X22733000Y46355698D01*
X22733000Y47128213D01*
X45377392Y47128213D01*
X46178000Y46327605D01*
X46978608Y47128213D01*
X46909143Y47370397D01*
X46385698Y47557144D01*
X45830632Y47529362D01*
X45446857Y47370397D01*
X45377392Y47128213D01*
X22733000Y47128213D01*
X22733000Y48133000D01*
X48133416Y48133000D01*
X48237457Y16400345D01*
G04 #@! TD*
M02*
