M48
;DRILL file {KiCad 5.0.2-bee76a0~70~ubuntu18.04.1} date lun 14 ene 2019 20:29:55 CET
;FORMAT={-:-/ absolute / metric / decimal}
FMAT,2
METRIC,TZ
T1C0.400
T2C0.850
T3C1.000
T4C1.300
T5C1.320
%
G90
G05
T1
X28.956Y13.152
X34.036Y12.065
X34.036Y10.033
X34.163Y18.034
X43.942Y10.033
T2
X16.778Y40.948
X16.778Y35.948
X46.178Y46.148
X46.178Y30.748
T3
X21.336Y22.733
X21.336Y20.193
X21.336Y17.653
X21.336Y15.113
X21.336Y12.573
X21.336Y10.033
T4
X4.435Y19.895
X4.435Y4.655
X12.035Y17.355
X12.035Y4.655
T5
X7.112Y41.068
X7.112Y36.068
X7.112Y29.638
X7.112Y24.638
T0
M30
