G04 #@! TF.GenerationSoftware,KiCad,Pcbnew,5.0.2-bee76a0~70~ubuntu18.04.1*
G04 #@! TF.CreationDate,2019-12-10T21:20:44+01:00*
G04 #@! TF.ProjectId,RGB_strip,5247425f-7374-4726-9970-2e6b69636164,rev?*
G04 #@! TF.SameCoordinates,Original*
G04 #@! TF.FileFunction,Paste,Top*
G04 #@! TF.FilePolarity,Positive*
%FSLAX46Y46*%
G04 Gerber Fmt 4.6, Leading zero omitted, Abs format (unit mm)*
G04 Created by KiCad (PCBNEW 5.0.2-bee76a0~70~ubuntu18.04.1) date mar 10 dic 2019 21:20:44 CET*
%MOMM*%
%LPD*%
G01*
G04 APERTURE LIST*
%ADD10R,0.850000X0.550000*%
%ADD11C,0.100000*%
%ADD12C,0.950000*%
%ADD13R,1.500000X1.500000*%
%ADD14R,2.500000X1.000000*%
%ADD15R,1.000000X1.800000*%
G04 APERTURE END LIST*
D10*
G04 #@! TO.C,D2*
X137359000Y-92782000D03*
X139109000Y-92782000D03*
X137359000Y-93832000D03*
X139109000Y-93832000D03*
G04 #@! TD*
D11*
G04 #@! TO.C,R1*
G36*
X132249779Y-91347144D02*
X132272834Y-91350563D01*
X132295443Y-91356227D01*
X132317387Y-91364079D01*
X132338457Y-91374044D01*
X132358448Y-91386026D01*
X132377168Y-91399910D01*
X132394438Y-91415562D01*
X132410090Y-91432832D01*
X132423974Y-91451552D01*
X132435956Y-91471543D01*
X132445921Y-91492613D01*
X132453773Y-91514557D01*
X132459437Y-91537166D01*
X132462856Y-91560221D01*
X132464000Y-91583500D01*
X132464000Y-92058500D01*
X132462856Y-92081779D01*
X132459437Y-92104834D01*
X132453773Y-92127443D01*
X132445921Y-92149387D01*
X132435956Y-92170457D01*
X132423974Y-92190448D01*
X132410090Y-92209168D01*
X132394438Y-92226438D01*
X132377168Y-92242090D01*
X132358448Y-92255974D01*
X132338457Y-92267956D01*
X132317387Y-92277921D01*
X132295443Y-92285773D01*
X132272834Y-92291437D01*
X132249779Y-92294856D01*
X132226500Y-92296000D01*
X131651500Y-92296000D01*
X131628221Y-92294856D01*
X131605166Y-92291437D01*
X131582557Y-92285773D01*
X131560613Y-92277921D01*
X131539543Y-92267956D01*
X131519552Y-92255974D01*
X131500832Y-92242090D01*
X131483562Y-92226438D01*
X131467910Y-92209168D01*
X131454026Y-92190448D01*
X131442044Y-92170457D01*
X131432079Y-92149387D01*
X131424227Y-92127443D01*
X131418563Y-92104834D01*
X131415144Y-92081779D01*
X131414000Y-92058500D01*
X131414000Y-91583500D01*
X131415144Y-91560221D01*
X131418563Y-91537166D01*
X131424227Y-91514557D01*
X131432079Y-91492613D01*
X131442044Y-91471543D01*
X131454026Y-91451552D01*
X131467910Y-91432832D01*
X131483562Y-91415562D01*
X131500832Y-91399910D01*
X131519552Y-91386026D01*
X131539543Y-91374044D01*
X131560613Y-91364079D01*
X131582557Y-91356227D01*
X131605166Y-91350563D01*
X131628221Y-91347144D01*
X131651500Y-91346000D01*
X132226500Y-91346000D01*
X132249779Y-91347144D01*
X132249779Y-91347144D01*
G37*
D12*
X131939000Y-91821000D03*
D11*
G36*
X130499779Y-91347144D02*
X130522834Y-91350563D01*
X130545443Y-91356227D01*
X130567387Y-91364079D01*
X130588457Y-91374044D01*
X130608448Y-91386026D01*
X130627168Y-91399910D01*
X130644438Y-91415562D01*
X130660090Y-91432832D01*
X130673974Y-91451552D01*
X130685956Y-91471543D01*
X130695921Y-91492613D01*
X130703773Y-91514557D01*
X130709437Y-91537166D01*
X130712856Y-91560221D01*
X130714000Y-91583500D01*
X130714000Y-92058500D01*
X130712856Y-92081779D01*
X130709437Y-92104834D01*
X130703773Y-92127443D01*
X130695921Y-92149387D01*
X130685956Y-92170457D01*
X130673974Y-92190448D01*
X130660090Y-92209168D01*
X130644438Y-92226438D01*
X130627168Y-92242090D01*
X130608448Y-92255974D01*
X130588457Y-92267956D01*
X130567387Y-92277921D01*
X130545443Y-92285773D01*
X130522834Y-92291437D01*
X130499779Y-92294856D01*
X130476500Y-92296000D01*
X129901500Y-92296000D01*
X129878221Y-92294856D01*
X129855166Y-92291437D01*
X129832557Y-92285773D01*
X129810613Y-92277921D01*
X129789543Y-92267956D01*
X129769552Y-92255974D01*
X129750832Y-92242090D01*
X129733562Y-92226438D01*
X129717910Y-92209168D01*
X129704026Y-92190448D01*
X129692044Y-92170457D01*
X129682079Y-92149387D01*
X129674227Y-92127443D01*
X129668563Y-92104834D01*
X129665144Y-92081779D01*
X129664000Y-92058500D01*
X129664000Y-91583500D01*
X129665144Y-91560221D01*
X129668563Y-91537166D01*
X129674227Y-91514557D01*
X129682079Y-91492613D01*
X129692044Y-91471543D01*
X129704026Y-91451552D01*
X129717910Y-91432832D01*
X129733562Y-91415562D01*
X129750832Y-91399910D01*
X129769552Y-91386026D01*
X129789543Y-91374044D01*
X129810613Y-91364079D01*
X129832557Y-91356227D01*
X129855166Y-91350563D01*
X129878221Y-91347144D01*
X129901500Y-91346000D01*
X130476500Y-91346000D01*
X130499779Y-91347144D01*
X130499779Y-91347144D01*
G37*
D12*
X130189000Y-91821000D03*
G04 #@! TD*
D11*
G04 #@! TO.C,R2*
G36*
X130499779Y-93125144D02*
X130522834Y-93128563D01*
X130545443Y-93134227D01*
X130567387Y-93142079D01*
X130588457Y-93152044D01*
X130608448Y-93164026D01*
X130627168Y-93177910D01*
X130644438Y-93193562D01*
X130660090Y-93210832D01*
X130673974Y-93229552D01*
X130685956Y-93249543D01*
X130695921Y-93270613D01*
X130703773Y-93292557D01*
X130709437Y-93315166D01*
X130712856Y-93338221D01*
X130714000Y-93361500D01*
X130714000Y-93836500D01*
X130712856Y-93859779D01*
X130709437Y-93882834D01*
X130703773Y-93905443D01*
X130695921Y-93927387D01*
X130685956Y-93948457D01*
X130673974Y-93968448D01*
X130660090Y-93987168D01*
X130644438Y-94004438D01*
X130627168Y-94020090D01*
X130608448Y-94033974D01*
X130588457Y-94045956D01*
X130567387Y-94055921D01*
X130545443Y-94063773D01*
X130522834Y-94069437D01*
X130499779Y-94072856D01*
X130476500Y-94074000D01*
X129901500Y-94074000D01*
X129878221Y-94072856D01*
X129855166Y-94069437D01*
X129832557Y-94063773D01*
X129810613Y-94055921D01*
X129789543Y-94045956D01*
X129769552Y-94033974D01*
X129750832Y-94020090D01*
X129733562Y-94004438D01*
X129717910Y-93987168D01*
X129704026Y-93968448D01*
X129692044Y-93948457D01*
X129682079Y-93927387D01*
X129674227Y-93905443D01*
X129668563Y-93882834D01*
X129665144Y-93859779D01*
X129664000Y-93836500D01*
X129664000Y-93361500D01*
X129665144Y-93338221D01*
X129668563Y-93315166D01*
X129674227Y-93292557D01*
X129682079Y-93270613D01*
X129692044Y-93249543D01*
X129704026Y-93229552D01*
X129717910Y-93210832D01*
X129733562Y-93193562D01*
X129750832Y-93177910D01*
X129769552Y-93164026D01*
X129789543Y-93152044D01*
X129810613Y-93142079D01*
X129832557Y-93134227D01*
X129855166Y-93128563D01*
X129878221Y-93125144D01*
X129901500Y-93124000D01*
X130476500Y-93124000D01*
X130499779Y-93125144D01*
X130499779Y-93125144D01*
G37*
D12*
X130189000Y-93599000D03*
D11*
G36*
X132249779Y-93125144D02*
X132272834Y-93128563D01*
X132295443Y-93134227D01*
X132317387Y-93142079D01*
X132338457Y-93152044D01*
X132358448Y-93164026D01*
X132377168Y-93177910D01*
X132394438Y-93193562D01*
X132410090Y-93210832D01*
X132423974Y-93229552D01*
X132435956Y-93249543D01*
X132445921Y-93270613D01*
X132453773Y-93292557D01*
X132459437Y-93315166D01*
X132462856Y-93338221D01*
X132464000Y-93361500D01*
X132464000Y-93836500D01*
X132462856Y-93859779D01*
X132459437Y-93882834D01*
X132453773Y-93905443D01*
X132445921Y-93927387D01*
X132435956Y-93948457D01*
X132423974Y-93968448D01*
X132410090Y-93987168D01*
X132394438Y-94004438D01*
X132377168Y-94020090D01*
X132358448Y-94033974D01*
X132338457Y-94045956D01*
X132317387Y-94055921D01*
X132295443Y-94063773D01*
X132272834Y-94069437D01*
X132249779Y-94072856D01*
X132226500Y-94074000D01*
X131651500Y-94074000D01*
X131628221Y-94072856D01*
X131605166Y-94069437D01*
X131582557Y-94063773D01*
X131560613Y-94055921D01*
X131539543Y-94045956D01*
X131519552Y-94033974D01*
X131500832Y-94020090D01*
X131483562Y-94004438D01*
X131467910Y-93987168D01*
X131454026Y-93968448D01*
X131442044Y-93948457D01*
X131432079Y-93927387D01*
X131424227Y-93905443D01*
X131418563Y-93882834D01*
X131415144Y-93859779D01*
X131414000Y-93836500D01*
X131414000Y-93361500D01*
X131415144Y-93338221D01*
X131418563Y-93315166D01*
X131424227Y-93292557D01*
X131432079Y-93270613D01*
X131442044Y-93249543D01*
X131454026Y-93229552D01*
X131467910Y-93210832D01*
X131483562Y-93193562D01*
X131500832Y-93177910D01*
X131519552Y-93164026D01*
X131539543Y-93152044D01*
X131560613Y-93142079D01*
X131582557Y-93134227D01*
X131605166Y-93128563D01*
X131628221Y-93125144D01*
X131651500Y-93124000D01*
X132226500Y-93124000D01*
X132249779Y-93125144D01*
X132249779Y-93125144D01*
G37*
D12*
X131939000Y-93599000D03*
G04 #@! TD*
D11*
G04 #@! TO.C,R3*
G36*
X132249779Y-89569144D02*
X132272834Y-89572563D01*
X132295443Y-89578227D01*
X132317387Y-89586079D01*
X132338457Y-89596044D01*
X132358448Y-89608026D01*
X132377168Y-89621910D01*
X132394438Y-89637562D01*
X132410090Y-89654832D01*
X132423974Y-89673552D01*
X132435956Y-89693543D01*
X132445921Y-89714613D01*
X132453773Y-89736557D01*
X132459437Y-89759166D01*
X132462856Y-89782221D01*
X132464000Y-89805500D01*
X132464000Y-90280500D01*
X132462856Y-90303779D01*
X132459437Y-90326834D01*
X132453773Y-90349443D01*
X132445921Y-90371387D01*
X132435956Y-90392457D01*
X132423974Y-90412448D01*
X132410090Y-90431168D01*
X132394438Y-90448438D01*
X132377168Y-90464090D01*
X132358448Y-90477974D01*
X132338457Y-90489956D01*
X132317387Y-90499921D01*
X132295443Y-90507773D01*
X132272834Y-90513437D01*
X132249779Y-90516856D01*
X132226500Y-90518000D01*
X131651500Y-90518000D01*
X131628221Y-90516856D01*
X131605166Y-90513437D01*
X131582557Y-90507773D01*
X131560613Y-90499921D01*
X131539543Y-90489956D01*
X131519552Y-90477974D01*
X131500832Y-90464090D01*
X131483562Y-90448438D01*
X131467910Y-90431168D01*
X131454026Y-90412448D01*
X131442044Y-90392457D01*
X131432079Y-90371387D01*
X131424227Y-90349443D01*
X131418563Y-90326834D01*
X131415144Y-90303779D01*
X131414000Y-90280500D01*
X131414000Y-89805500D01*
X131415144Y-89782221D01*
X131418563Y-89759166D01*
X131424227Y-89736557D01*
X131432079Y-89714613D01*
X131442044Y-89693543D01*
X131454026Y-89673552D01*
X131467910Y-89654832D01*
X131483562Y-89637562D01*
X131500832Y-89621910D01*
X131519552Y-89608026D01*
X131539543Y-89596044D01*
X131560613Y-89586079D01*
X131582557Y-89578227D01*
X131605166Y-89572563D01*
X131628221Y-89569144D01*
X131651500Y-89568000D01*
X132226500Y-89568000D01*
X132249779Y-89569144D01*
X132249779Y-89569144D01*
G37*
D12*
X131939000Y-90043000D03*
D11*
G36*
X130499779Y-89569144D02*
X130522834Y-89572563D01*
X130545443Y-89578227D01*
X130567387Y-89586079D01*
X130588457Y-89596044D01*
X130608448Y-89608026D01*
X130627168Y-89621910D01*
X130644438Y-89637562D01*
X130660090Y-89654832D01*
X130673974Y-89673552D01*
X130685956Y-89693543D01*
X130695921Y-89714613D01*
X130703773Y-89736557D01*
X130709437Y-89759166D01*
X130712856Y-89782221D01*
X130714000Y-89805500D01*
X130714000Y-90280500D01*
X130712856Y-90303779D01*
X130709437Y-90326834D01*
X130703773Y-90349443D01*
X130695921Y-90371387D01*
X130685956Y-90392457D01*
X130673974Y-90412448D01*
X130660090Y-90431168D01*
X130644438Y-90448438D01*
X130627168Y-90464090D01*
X130608448Y-90477974D01*
X130588457Y-90489956D01*
X130567387Y-90499921D01*
X130545443Y-90507773D01*
X130522834Y-90513437D01*
X130499779Y-90516856D01*
X130476500Y-90518000D01*
X129901500Y-90518000D01*
X129878221Y-90516856D01*
X129855166Y-90513437D01*
X129832557Y-90507773D01*
X129810613Y-90499921D01*
X129789543Y-90489956D01*
X129769552Y-90477974D01*
X129750832Y-90464090D01*
X129733562Y-90448438D01*
X129717910Y-90431168D01*
X129704026Y-90412448D01*
X129692044Y-90392457D01*
X129682079Y-90371387D01*
X129674227Y-90349443D01*
X129668563Y-90326834D01*
X129665144Y-90303779D01*
X129664000Y-90280500D01*
X129664000Y-89805500D01*
X129665144Y-89782221D01*
X129668563Y-89759166D01*
X129674227Y-89736557D01*
X129682079Y-89714613D01*
X129692044Y-89693543D01*
X129704026Y-89673552D01*
X129717910Y-89654832D01*
X129733562Y-89637562D01*
X129750832Y-89621910D01*
X129769552Y-89608026D01*
X129789543Y-89596044D01*
X129810613Y-89586079D01*
X129832557Y-89578227D01*
X129855166Y-89572563D01*
X129878221Y-89569144D01*
X129901500Y-89568000D01*
X130476500Y-89568000D01*
X130499779Y-89569144D01*
X130499779Y-89569144D01*
G37*
D12*
X130189000Y-90043000D03*
G04 #@! TD*
D11*
G04 #@! TO.C,R4*
G36*
X134182779Y-91347144D02*
X134205834Y-91350563D01*
X134228443Y-91356227D01*
X134250387Y-91364079D01*
X134271457Y-91374044D01*
X134291448Y-91386026D01*
X134310168Y-91399910D01*
X134327438Y-91415562D01*
X134343090Y-91432832D01*
X134356974Y-91451552D01*
X134368956Y-91471543D01*
X134378921Y-91492613D01*
X134386773Y-91514557D01*
X134392437Y-91537166D01*
X134395856Y-91560221D01*
X134397000Y-91583500D01*
X134397000Y-92058500D01*
X134395856Y-92081779D01*
X134392437Y-92104834D01*
X134386773Y-92127443D01*
X134378921Y-92149387D01*
X134368956Y-92170457D01*
X134356974Y-92190448D01*
X134343090Y-92209168D01*
X134327438Y-92226438D01*
X134310168Y-92242090D01*
X134291448Y-92255974D01*
X134271457Y-92267956D01*
X134250387Y-92277921D01*
X134228443Y-92285773D01*
X134205834Y-92291437D01*
X134182779Y-92294856D01*
X134159500Y-92296000D01*
X133584500Y-92296000D01*
X133561221Y-92294856D01*
X133538166Y-92291437D01*
X133515557Y-92285773D01*
X133493613Y-92277921D01*
X133472543Y-92267956D01*
X133452552Y-92255974D01*
X133433832Y-92242090D01*
X133416562Y-92226438D01*
X133400910Y-92209168D01*
X133387026Y-92190448D01*
X133375044Y-92170457D01*
X133365079Y-92149387D01*
X133357227Y-92127443D01*
X133351563Y-92104834D01*
X133348144Y-92081779D01*
X133347000Y-92058500D01*
X133347000Y-91583500D01*
X133348144Y-91560221D01*
X133351563Y-91537166D01*
X133357227Y-91514557D01*
X133365079Y-91492613D01*
X133375044Y-91471543D01*
X133387026Y-91451552D01*
X133400910Y-91432832D01*
X133416562Y-91415562D01*
X133433832Y-91399910D01*
X133452552Y-91386026D01*
X133472543Y-91374044D01*
X133493613Y-91364079D01*
X133515557Y-91356227D01*
X133538166Y-91350563D01*
X133561221Y-91347144D01*
X133584500Y-91346000D01*
X134159500Y-91346000D01*
X134182779Y-91347144D01*
X134182779Y-91347144D01*
G37*
D12*
X133872000Y-91821000D03*
D11*
G36*
X135932779Y-91347144D02*
X135955834Y-91350563D01*
X135978443Y-91356227D01*
X136000387Y-91364079D01*
X136021457Y-91374044D01*
X136041448Y-91386026D01*
X136060168Y-91399910D01*
X136077438Y-91415562D01*
X136093090Y-91432832D01*
X136106974Y-91451552D01*
X136118956Y-91471543D01*
X136128921Y-91492613D01*
X136136773Y-91514557D01*
X136142437Y-91537166D01*
X136145856Y-91560221D01*
X136147000Y-91583500D01*
X136147000Y-92058500D01*
X136145856Y-92081779D01*
X136142437Y-92104834D01*
X136136773Y-92127443D01*
X136128921Y-92149387D01*
X136118956Y-92170457D01*
X136106974Y-92190448D01*
X136093090Y-92209168D01*
X136077438Y-92226438D01*
X136060168Y-92242090D01*
X136041448Y-92255974D01*
X136021457Y-92267956D01*
X136000387Y-92277921D01*
X135978443Y-92285773D01*
X135955834Y-92291437D01*
X135932779Y-92294856D01*
X135909500Y-92296000D01*
X135334500Y-92296000D01*
X135311221Y-92294856D01*
X135288166Y-92291437D01*
X135265557Y-92285773D01*
X135243613Y-92277921D01*
X135222543Y-92267956D01*
X135202552Y-92255974D01*
X135183832Y-92242090D01*
X135166562Y-92226438D01*
X135150910Y-92209168D01*
X135137026Y-92190448D01*
X135125044Y-92170457D01*
X135115079Y-92149387D01*
X135107227Y-92127443D01*
X135101563Y-92104834D01*
X135098144Y-92081779D01*
X135097000Y-92058500D01*
X135097000Y-91583500D01*
X135098144Y-91560221D01*
X135101563Y-91537166D01*
X135107227Y-91514557D01*
X135115079Y-91492613D01*
X135125044Y-91471543D01*
X135137026Y-91451552D01*
X135150910Y-91432832D01*
X135166562Y-91415562D01*
X135183832Y-91399910D01*
X135202552Y-91386026D01*
X135222543Y-91374044D01*
X135243613Y-91364079D01*
X135265557Y-91356227D01*
X135288166Y-91350563D01*
X135311221Y-91347144D01*
X135334500Y-91346000D01*
X135909500Y-91346000D01*
X135932779Y-91347144D01*
X135932779Y-91347144D01*
G37*
D12*
X135622000Y-91821000D03*
G04 #@! TD*
D11*
G04 #@! TO.C,R5*
G36*
X135932779Y-93125144D02*
X135955834Y-93128563D01*
X135978443Y-93134227D01*
X136000387Y-93142079D01*
X136021457Y-93152044D01*
X136041448Y-93164026D01*
X136060168Y-93177910D01*
X136077438Y-93193562D01*
X136093090Y-93210832D01*
X136106974Y-93229552D01*
X136118956Y-93249543D01*
X136128921Y-93270613D01*
X136136773Y-93292557D01*
X136142437Y-93315166D01*
X136145856Y-93338221D01*
X136147000Y-93361500D01*
X136147000Y-93836500D01*
X136145856Y-93859779D01*
X136142437Y-93882834D01*
X136136773Y-93905443D01*
X136128921Y-93927387D01*
X136118956Y-93948457D01*
X136106974Y-93968448D01*
X136093090Y-93987168D01*
X136077438Y-94004438D01*
X136060168Y-94020090D01*
X136041448Y-94033974D01*
X136021457Y-94045956D01*
X136000387Y-94055921D01*
X135978443Y-94063773D01*
X135955834Y-94069437D01*
X135932779Y-94072856D01*
X135909500Y-94074000D01*
X135334500Y-94074000D01*
X135311221Y-94072856D01*
X135288166Y-94069437D01*
X135265557Y-94063773D01*
X135243613Y-94055921D01*
X135222543Y-94045956D01*
X135202552Y-94033974D01*
X135183832Y-94020090D01*
X135166562Y-94004438D01*
X135150910Y-93987168D01*
X135137026Y-93968448D01*
X135125044Y-93948457D01*
X135115079Y-93927387D01*
X135107227Y-93905443D01*
X135101563Y-93882834D01*
X135098144Y-93859779D01*
X135097000Y-93836500D01*
X135097000Y-93361500D01*
X135098144Y-93338221D01*
X135101563Y-93315166D01*
X135107227Y-93292557D01*
X135115079Y-93270613D01*
X135125044Y-93249543D01*
X135137026Y-93229552D01*
X135150910Y-93210832D01*
X135166562Y-93193562D01*
X135183832Y-93177910D01*
X135202552Y-93164026D01*
X135222543Y-93152044D01*
X135243613Y-93142079D01*
X135265557Y-93134227D01*
X135288166Y-93128563D01*
X135311221Y-93125144D01*
X135334500Y-93124000D01*
X135909500Y-93124000D01*
X135932779Y-93125144D01*
X135932779Y-93125144D01*
G37*
D12*
X135622000Y-93599000D03*
D11*
G36*
X134182779Y-93125144D02*
X134205834Y-93128563D01*
X134228443Y-93134227D01*
X134250387Y-93142079D01*
X134271457Y-93152044D01*
X134291448Y-93164026D01*
X134310168Y-93177910D01*
X134327438Y-93193562D01*
X134343090Y-93210832D01*
X134356974Y-93229552D01*
X134368956Y-93249543D01*
X134378921Y-93270613D01*
X134386773Y-93292557D01*
X134392437Y-93315166D01*
X134395856Y-93338221D01*
X134397000Y-93361500D01*
X134397000Y-93836500D01*
X134395856Y-93859779D01*
X134392437Y-93882834D01*
X134386773Y-93905443D01*
X134378921Y-93927387D01*
X134368956Y-93948457D01*
X134356974Y-93968448D01*
X134343090Y-93987168D01*
X134327438Y-94004438D01*
X134310168Y-94020090D01*
X134291448Y-94033974D01*
X134271457Y-94045956D01*
X134250387Y-94055921D01*
X134228443Y-94063773D01*
X134205834Y-94069437D01*
X134182779Y-94072856D01*
X134159500Y-94074000D01*
X133584500Y-94074000D01*
X133561221Y-94072856D01*
X133538166Y-94069437D01*
X133515557Y-94063773D01*
X133493613Y-94055921D01*
X133472543Y-94045956D01*
X133452552Y-94033974D01*
X133433832Y-94020090D01*
X133416562Y-94004438D01*
X133400910Y-93987168D01*
X133387026Y-93968448D01*
X133375044Y-93948457D01*
X133365079Y-93927387D01*
X133357227Y-93905443D01*
X133351563Y-93882834D01*
X133348144Y-93859779D01*
X133347000Y-93836500D01*
X133347000Y-93361500D01*
X133348144Y-93338221D01*
X133351563Y-93315166D01*
X133357227Y-93292557D01*
X133365079Y-93270613D01*
X133375044Y-93249543D01*
X133387026Y-93229552D01*
X133400910Y-93210832D01*
X133416562Y-93193562D01*
X133433832Y-93177910D01*
X133452552Y-93164026D01*
X133472543Y-93152044D01*
X133493613Y-93142079D01*
X133515557Y-93134227D01*
X133538166Y-93128563D01*
X133561221Y-93125144D01*
X133584500Y-93124000D01*
X134159500Y-93124000D01*
X134182779Y-93125144D01*
X134182779Y-93125144D01*
G37*
D12*
X133872000Y-93599000D03*
G04 #@! TD*
D13*
G04 #@! TO.C,SW1*
X130212000Y-86868000D03*
X138012000Y-86868000D03*
G04 #@! TD*
D14*
G04 #@! TO.C,U2*
X112161000Y-93528000D03*
X112161000Y-95528000D03*
X112161000Y-97528000D03*
X112161000Y-99528000D03*
X112161000Y-101528000D03*
X112161000Y-103528000D03*
X112161000Y-105528000D03*
X112161000Y-107528000D03*
D15*
X114761000Y-109028000D03*
X116761000Y-109028000D03*
X118761000Y-109028000D03*
X120761000Y-109028000D03*
X122761000Y-109028000D03*
X124761000Y-109028000D03*
D14*
X127361000Y-107528000D03*
X127361000Y-105528000D03*
X127361000Y-103528000D03*
X127361000Y-101528000D03*
X127361000Y-99528000D03*
X127361000Y-97528000D03*
X127361000Y-95528000D03*
X127361000Y-93528000D03*
G04 #@! TD*
M02*
