M48
;DRILL file {KiCad 5.0.2-bee76a0~70~ubuntu18.04.1} date mar 10 dic 2019 21:20:36 CET
;FORMAT={-:-/ absolute / metric / decimal}
FMAT,2
METRIC,TZ
T1C0.300
T2C0.800
T3C1.000
T4C1.200
%
G90
G05
T1
X114.173Y-103.124
X115.697Y-92.964
X116.078Y-100.076
X117.983Y-96.52
X117.983Y-101.854
X118.11Y-93.489
X118.745Y-92.583
X123.444Y-98.171
X124.714Y-92.837
X125.603Y-92.837
X133.223Y-90.043
T3
X105.283Y-88.138
X105.283Y-90.678
X105.283Y-93.218
X107.823Y-88.138
X107.823Y-90.678
X107.823Y-93.218
T4
X106.553Y-98.171
X106.553Y-100.711
X106.553Y-103.251
X106.553Y-105.791
X106.553Y-108.331
T2
X133.066Y-96.52G85X135.666Y-96.52
G05
X133.266Y-102.32G85X135.466Y-102.32
G05
X139.166Y-100.62G85X139.166Y-98.42
G05
T0
M30
