G04 #@! TF.GenerationSoftware,KiCad,Pcbnew,5.0.2-bee76a0~70~ubuntu18.04.1*
G04 #@! TF.CreationDate,2019-12-10T21:20:44+01:00*
G04 #@! TF.ProjectId,RGB_strip,5247425f-7374-4726-9970-2e6b69636164,rev?*
G04 #@! TF.SameCoordinates,Original*
G04 #@! TF.FileFunction,Copper,L2,Bot*
G04 #@! TF.FilePolarity,Positive*
%FSLAX46Y46*%
G04 Gerber Fmt 4.6, Leading zero omitted, Abs format (unit mm)*
G04 Created by KiCad (PCBNEW 5.0.2-bee76a0~70~ubuntu18.04.1) date mar 10 dic 2019 21:20:44 CET*
%MOMM*%
%LPD*%
G01*
G04 APERTURE LIST*
G04 #@! TA.AperFunction,ComponentPad*
%ADD10O,1.700000X1.700000*%
G04 #@! TD*
G04 #@! TA.AperFunction,ComponentPad*
%ADD11R,1.700000X1.700000*%
G04 #@! TD*
G04 #@! TA.AperFunction,Conductor*
%ADD12C,0.100000*%
G04 #@! TD*
G04 #@! TA.AperFunction,SMDPad,CuDef*
%ADD13C,0.875000*%
G04 #@! TD*
G04 #@! TA.AperFunction,ComponentPad*
%ADD14O,1.800000X4.000000*%
G04 #@! TD*
G04 #@! TA.AperFunction,ComponentPad*
%ADD15O,4.000000X1.800000*%
G04 #@! TD*
G04 #@! TA.AperFunction,ComponentPad*
%ADD16R,4.400000X1.800000*%
G04 #@! TD*
G04 #@! TA.AperFunction,ComponentPad*
%ADD17C,1.740000*%
G04 #@! TD*
G04 #@! TA.AperFunction,ComponentPad*
%ADD18O,2.200000X1.740000*%
G04 #@! TD*
G04 #@! TA.AperFunction,SMDPad,CuDef*
%ADD19R,0.900000X0.800000*%
G04 #@! TD*
G04 #@! TA.AperFunction,SMDPad,CuDef*
%ADD20R,1.200000X2.200000*%
G04 #@! TD*
G04 #@! TA.AperFunction,SMDPad,CuDef*
%ADD21R,5.800000X6.400000*%
G04 #@! TD*
G04 #@! TA.AperFunction,ViaPad*
%ADD22C,0.600000*%
G04 #@! TD*
G04 #@! TA.AperFunction,Conductor*
%ADD23C,0.250000*%
G04 #@! TD*
G04 #@! TA.AperFunction,Conductor*
%ADD24C,1.000000*%
G04 #@! TD*
G04 #@! TA.AperFunction,Conductor*
%ADD25C,0.500000*%
G04 #@! TD*
G04 #@! TA.AperFunction,Conductor*
%ADD26C,0.254000*%
G04 #@! TD*
G04 APERTURE END LIST*
D10*
G04 #@! TO.P,J3,6*
G04 #@! TO.N,/TX*
X105283000Y-88138000D03*
G04 #@! TO.P,J3,5*
G04 #@! TO.N,/RX*
X107823000Y-88138000D03*
G04 #@! TO.P,J3,4*
G04 #@! TO.N,/Rst*
X105283000Y-90678000D03*
G04 #@! TO.P,J3,3*
G04 #@! TO.N,/Flash*
X107823000Y-90678000D03*
G04 #@! TO.P,J3,2*
G04 #@! TO.N,+3V3*
X105283000Y-93218000D03*
D11*
G04 #@! TO.P,J3,1*
G04 #@! TO.N,GND*
X107823000Y-93218000D03*
G04 #@! TD*
D12*
G04 #@! TO.N,GND*
G04 #@! TO.C,C1*
G36*
X121562691Y-93518053D02*
X121583926Y-93521203D01*
X121604750Y-93526419D01*
X121624962Y-93533651D01*
X121644368Y-93542830D01*
X121662781Y-93553866D01*
X121680024Y-93566654D01*
X121695930Y-93581070D01*
X121710346Y-93596976D01*
X121723134Y-93614219D01*
X121734170Y-93632632D01*
X121743349Y-93652038D01*
X121750581Y-93672250D01*
X121755797Y-93693074D01*
X121758947Y-93714309D01*
X121760000Y-93735750D01*
X121760000Y-94173250D01*
X121758947Y-94194691D01*
X121755797Y-94215926D01*
X121750581Y-94236750D01*
X121743349Y-94256962D01*
X121734170Y-94276368D01*
X121723134Y-94294781D01*
X121710346Y-94312024D01*
X121695930Y-94327930D01*
X121680024Y-94342346D01*
X121662781Y-94355134D01*
X121644368Y-94366170D01*
X121624962Y-94375349D01*
X121604750Y-94382581D01*
X121583926Y-94387797D01*
X121562691Y-94390947D01*
X121541250Y-94392000D01*
X121028750Y-94392000D01*
X121007309Y-94390947D01*
X120986074Y-94387797D01*
X120965250Y-94382581D01*
X120945038Y-94375349D01*
X120925632Y-94366170D01*
X120907219Y-94355134D01*
X120889976Y-94342346D01*
X120874070Y-94327930D01*
X120859654Y-94312024D01*
X120846866Y-94294781D01*
X120835830Y-94276368D01*
X120826651Y-94256962D01*
X120819419Y-94236750D01*
X120814203Y-94215926D01*
X120811053Y-94194691D01*
X120810000Y-94173250D01*
X120810000Y-93735750D01*
X120811053Y-93714309D01*
X120814203Y-93693074D01*
X120819419Y-93672250D01*
X120826651Y-93652038D01*
X120835830Y-93632632D01*
X120846866Y-93614219D01*
X120859654Y-93596976D01*
X120874070Y-93581070D01*
X120889976Y-93566654D01*
X120907219Y-93553866D01*
X120925632Y-93542830D01*
X120945038Y-93533651D01*
X120965250Y-93526419D01*
X120986074Y-93521203D01*
X121007309Y-93518053D01*
X121028750Y-93517000D01*
X121541250Y-93517000D01*
X121562691Y-93518053D01*
X121562691Y-93518053D01*
G37*
D13*
G04 #@! TD*
G04 #@! TO.P,C1,2*
G04 #@! TO.N,GND*
X121285000Y-93954500D03*
D12*
G04 #@! TO.N,+12V*
G04 #@! TO.C,C1*
G36*
X121562691Y-95093053D02*
X121583926Y-95096203D01*
X121604750Y-95101419D01*
X121624962Y-95108651D01*
X121644368Y-95117830D01*
X121662781Y-95128866D01*
X121680024Y-95141654D01*
X121695930Y-95156070D01*
X121710346Y-95171976D01*
X121723134Y-95189219D01*
X121734170Y-95207632D01*
X121743349Y-95227038D01*
X121750581Y-95247250D01*
X121755797Y-95268074D01*
X121758947Y-95289309D01*
X121760000Y-95310750D01*
X121760000Y-95748250D01*
X121758947Y-95769691D01*
X121755797Y-95790926D01*
X121750581Y-95811750D01*
X121743349Y-95831962D01*
X121734170Y-95851368D01*
X121723134Y-95869781D01*
X121710346Y-95887024D01*
X121695930Y-95902930D01*
X121680024Y-95917346D01*
X121662781Y-95930134D01*
X121644368Y-95941170D01*
X121624962Y-95950349D01*
X121604750Y-95957581D01*
X121583926Y-95962797D01*
X121562691Y-95965947D01*
X121541250Y-95967000D01*
X121028750Y-95967000D01*
X121007309Y-95965947D01*
X120986074Y-95962797D01*
X120965250Y-95957581D01*
X120945038Y-95950349D01*
X120925632Y-95941170D01*
X120907219Y-95930134D01*
X120889976Y-95917346D01*
X120874070Y-95902930D01*
X120859654Y-95887024D01*
X120846866Y-95869781D01*
X120835830Y-95851368D01*
X120826651Y-95831962D01*
X120819419Y-95811750D01*
X120814203Y-95790926D01*
X120811053Y-95769691D01*
X120810000Y-95748250D01*
X120810000Y-95310750D01*
X120811053Y-95289309D01*
X120814203Y-95268074D01*
X120819419Y-95247250D01*
X120826651Y-95227038D01*
X120835830Y-95207632D01*
X120846866Y-95189219D01*
X120859654Y-95171976D01*
X120874070Y-95156070D01*
X120889976Y-95141654D01*
X120907219Y-95128866D01*
X120925632Y-95117830D01*
X120945038Y-95108651D01*
X120965250Y-95101419D01*
X120986074Y-95096203D01*
X121007309Y-95093053D01*
X121028750Y-95092000D01*
X121541250Y-95092000D01*
X121562691Y-95093053D01*
X121562691Y-95093053D01*
G37*
D13*
G04 #@! TD*
G04 #@! TO.P,C1,1*
G04 #@! TO.N,+12V*
X121285000Y-95529500D03*
D12*
G04 #@! TO.N,+3V3*
G04 #@! TO.C,C2*
G36*
X126134691Y-95093053D02*
X126155926Y-95096203D01*
X126176750Y-95101419D01*
X126196962Y-95108651D01*
X126216368Y-95117830D01*
X126234781Y-95128866D01*
X126252024Y-95141654D01*
X126267930Y-95156070D01*
X126282346Y-95171976D01*
X126295134Y-95189219D01*
X126306170Y-95207632D01*
X126315349Y-95227038D01*
X126322581Y-95247250D01*
X126327797Y-95268074D01*
X126330947Y-95289309D01*
X126332000Y-95310750D01*
X126332000Y-95748250D01*
X126330947Y-95769691D01*
X126327797Y-95790926D01*
X126322581Y-95811750D01*
X126315349Y-95831962D01*
X126306170Y-95851368D01*
X126295134Y-95869781D01*
X126282346Y-95887024D01*
X126267930Y-95902930D01*
X126252024Y-95917346D01*
X126234781Y-95930134D01*
X126216368Y-95941170D01*
X126196962Y-95950349D01*
X126176750Y-95957581D01*
X126155926Y-95962797D01*
X126134691Y-95965947D01*
X126113250Y-95967000D01*
X125600750Y-95967000D01*
X125579309Y-95965947D01*
X125558074Y-95962797D01*
X125537250Y-95957581D01*
X125517038Y-95950349D01*
X125497632Y-95941170D01*
X125479219Y-95930134D01*
X125461976Y-95917346D01*
X125446070Y-95902930D01*
X125431654Y-95887024D01*
X125418866Y-95869781D01*
X125407830Y-95851368D01*
X125398651Y-95831962D01*
X125391419Y-95811750D01*
X125386203Y-95790926D01*
X125383053Y-95769691D01*
X125382000Y-95748250D01*
X125382000Y-95310750D01*
X125383053Y-95289309D01*
X125386203Y-95268074D01*
X125391419Y-95247250D01*
X125398651Y-95227038D01*
X125407830Y-95207632D01*
X125418866Y-95189219D01*
X125431654Y-95171976D01*
X125446070Y-95156070D01*
X125461976Y-95141654D01*
X125479219Y-95128866D01*
X125497632Y-95117830D01*
X125517038Y-95108651D01*
X125537250Y-95101419D01*
X125558074Y-95096203D01*
X125579309Y-95093053D01*
X125600750Y-95092000D01*
X126113250Y-95092000D01*
X126134691Y-95093053D01*
X126134691Y-95093053D01*
G37*
D13*
G04 #@! TD*
G04 #@! TO.P,C2,1*
G04 #@! TO.N,+3V3*
X125857000Y-95529500D03*
D12*
G04 #@! TO.N,GND*
G04 #@! TO.C,C2*
G36*
X126134691Y-93518053D02*
X126155926Y-93521203D01*
X126176750Y-93526419D01*
X126196962Y-93533651D01*
X126216368Y-93542830D01*
X126234781Y-93553866D01*
X126252024Y-93566654D01*
X126267930Y-93581070D01*
X126282346Y-93596976D01*
X126295134Y-93614219D01*
X126306170Y-93632632D01*
X126315349Y-93652038D01*
X126322581Y-93672250D01*
X126327797Y-93693074D01*
X126330947Y-93714309D01*
X126332000Y-93735750D01*
X126332000Y-94173250D01*
X126330947Y-94194691D01*
X126327797Y-94215926D01*
X126322581Y-94236750D01*
X126315349Y-94256962D01*
X126306170Y-94276368D01*
X126295134Y-94294781D01*
X126282346Y-94312024D01*
X126267930Y-94327930D01*
X126252024Y-94342346D01*
X126234781Y-94355134D01*
X126216368Y-94366170D01*
X126196962Y-94375349D01*
X126176750Y-94382581D01*
X126155926Y-94387797D01*
X126134691Y-94390947D01*
X126113250Y-94392000D01*
X125600750Y-94392000D01*
X125579309Y-94390947D01*
X125558074Y-94387797D01*
X125537250Y-94382581D01*
X125517038Y-94375349D01*
X125497632Y-94366170D01*
X125479219Y-94355134D01*
X125461976Y-94342346D01*
X125446070Y-94327930D01*
X125431654Y-94312024D01*
X125418866Y-94294781D01*
X125407830Y-94276368D01*
X125398651Y-94256962D01*
X125391419Y-94236750D01*
X125386203Y-94215926D01*
X125383053Y-94194691D01*
X125382000Y-94173250D01*
X125382000Y-93735750D01*
X125383053Y-93714309D01*
X125386203Y-93693074D01*
X125391419Y-93672250D01*
X125398651Y-93652038D01*
X125407830Y-93632632D01*
X125418866Y-93614219D01*
X125431654Y-93596976D01*
X125446070Y-93581070D01*
X125461976Y-93566654D01*
X125479219Y-93553866D01*
X125497632Y-93542830D01*
X125517038Y-93533651D01*
X125537250Y-93526419D01*
X125558074Y-93521203D01*
X125579309Y-93518053D01*
X125600750Y-93517000D01*
X126113250Y-93517000D01*
X126134691Y-93518053D01*
X126134691Y-93518053D01*
G37*
D13*
G04 #@! TD*
G04 #@! TO.P,C2,2*
G04 #@! TO.N,GND*
X125857000Y-93954500D03*
D14*
G04 #@! TO.P,J1,3*
G04 #@! TO.N,GND*
X139166000Y-99520000D03*
D15*
G04 #@! TO.P,J1,2*
X134366000Y-102320000D03*
D16*
G04 #@! TO.P,J1,1*
G04 #@! TO.N,+12V*
X134366000Y-96520000D03*
G04 #@! TD*
D12*
G04 #@! TO.N,+12V*
G04 #@! TO.C,J2*
G36*
X107427505Y-97302204D02*
X107451773Y-97305804D01*
X107475572Y-97311765D01*
X107498671Y-97320030D01*
X107520850Y-97330520D01*
X107541893Y-97343132D01*
X107561599Y-97357747D01*
X107579777Y-97374223D01*
X107596253Y-97392401D01*
X107610868Y-97412107D01*
X107623480Y-97433150D01*
X107633970Y-97455329D01*
X107642235Y-97478428D01*
X107648196Y-97502227D01*
X107651796Y-97526495D01*
X107653000Y-97550999D01*
X107653000Y-98791001D01*
X107651796Y-98815505D01*
X107648196Y-98839773D01*
X107642235Y-98863572D01*
X107633970Y-98886671D01*
X107623480Y-98908850D01*
X107610868Y-98929893D01*
X107596253Y-98949599D01*
X107579777Y-98967777D01*
X107561599Y-98984253D01*
X107541893Y-98998868D01*
X107520850Y-99011480D01*
X107498671Y-99021970D01*
X107475572Y-99030235D01*
X107451773Y-99036196D01*
X107427505Y-99039796D01*
X107403001Y-99041000D01*
X105702999Y-99041000D01*
X105678495Y-99039796D01*
X105654227Y-99036196D01*
X105630428Y-99030235D01*
X105607329Y-99021970D01*
X105585150Y-99011480D01*
X105564107Y-98998868D01*
X105544401Y-98984253D01*
X105526223Y-98967777D01*
X105509747Y-98949599D01*
X105495132Y-98929893D01*
X105482520Y-98908850D01*
X105472030Y-98886671D01*
X105463765Y-98863572D01*
X105457804Y-98839773D01*
X105454204Y-98815505D01*
X105453000Y-98791001D01*
X105453000Y-97550999D01*
X105454204Y-97526495D01*
X105457804Y-97502227D01*
X105463765Y-97478428D01*
X105472030Y-97455329D01*
X105482520Y-97433150D01*
X105495132Y-97412107D01*
X105509747Y-97392401D01*
X105526223Y-97374223D01*
X105544401Y-97357747D01*
X105564107Y-97343132D01*
X105585150Y-97330520D01*
X105607329Y-97320030D01*
X105630428Y-97311765D01*
X105654227Y-97305804D01*
X105678495Y-97302204D01*
X105702999Y-97301000D01*
X107403001Y-97301000D01*
X107427505Y-97302204D01*
X107427505Y-97302204D01*
G37*
D17*
G04 #@! TD*
G04 #@! TO.P,J2,1*
G04 #@! TO.N,+12V*
X106553000Y-98171000D03*
D18*
G04 #@! TO.P,J2,2*
G04 #@! TO.N,Net-(J2-Pad2)*
X106553000Y-100711000D03*
G04 #@! TO.P,J2,3*
G04 #@! TO.N,Net-(J2-Pad3)*
X106553000Y-103251000D03*
G04 #@! TO.P,J2,4*
G04 #@! TO.N,Net-(J2-Pad4)*
X106553000Y-105791000D03*
G04 #@! TO.P,J2,5*
G04 #@! TO.N,Net-(J2-Pad5)*
X106553000Y-108331000D03*
G04 #@! TD*
D19*
G04 #@! TO.P,Q1,1*
G04 #@! TO.N,/red_c*
X116951000Y-93030000D03*
G04 #@! TO.P,Q1,2*
G04 #@! TO.N,GND*
X116951000Y-94930000D03*
G04 #@! TO.P,Q1,3*
G04 #@! TO.N,Net-(J2-Pad2)*
X114951000Y-93980000D03*
G04 #@! TD*
G04 #@! TO.P,Q2,1*
G04 #@! TO.N,/green_c*
X116951000Y-97094000D03*
G04 #@! TO.P,Q2,2*
G04 #@! TO.N,GND*
X116951000Y-98994000D03*
G04 #@! TO.P,Q2,3*
G04 #@! TO.N,Net-(J2-Pad3)*
X114951000Y-98044000D03*
G04 #@! TD*
G04 #@! TO.P,Q3,3*
G04 #@! TO.N,Net-(J2-Pad4)*
X114951000Y-102108000D03*
G04 #@! TO.P,Q3,2*
G04 #@! TO.N,GND*
X116951000Y-103058000D03*
G04 #@! TO.P,Q3,1*
G04 #@! TO.N,/blue_c*
X116951000Y-101158000D03*
G04 #@! TD*
G04 #@! TO.P,Q4,3*
G04 #@! TO.N,Net-(J2-Pad5)*
X114951000Y-106172000D03*
G04 #@! TO.P,Q4,2*
G04 #@! TO.N,GND*
X116951000Y-107122000D03*
G04 #@! TO.P,Q4,1*
G04 #@! TO.N,/white_c*
X116951000Y-105222000D03*
G04 #@! TD*
D20*
G04 #@! TO.P,U1,1*
G04 #@! TO.N,+12V*
X121291000Y-98162000D03*
G04 #@! TO.P,U1,3*
G04 #@! TO.N,+3V3*
X125851000Y-98162000D03*
D21*
G04 #@! TO.P,U1,2*
G04 #@! TO.N,GND*
X123571000Y-104462000D03*
G04 #@! TD*
D22*
G04 #@! TO.N,GND*
X117983000Y-96520000D03*
G04 #@! TO.N,+3V3*
X133223000Y-90043000D03*
X123444000Y-98171000D03*
G04 #@! TO.N,/Flash*
X115697000Y-92964000D03*
G04 #@! TO.N,/Rst*
X118745000Y-92583000D03*
G04 #@! TO.N,/RX*
X124714000Y-92837000D03*
G04 #@! TO.N,/TX*
X125603000Y-92837000D03*
G04 #@! TO.N,/red_c*
X118110000Y-93489000D03*
G04 #@! TO.N,/green_c*
X116078000Y-100076000D03*
G04 #@! TO.N,/blue_c*
X117983000Y-101854000D03*
G04 #@! TO.N,/white_c*
X114173000Y-103124000D03*
G04 #@! TD*
D23*
G04 #@! TO.N,GND*
X139166000Y-99139000D02*
X139166000Y-100239000D01*
D24*
X133743000Y-104462000D02*
X134366000Y-103839000D01*
X123571000Y-104462000D02*
X133743000Y-104462000D01*
X118401000Y-94930000D02*
X116951000Y-94930000D01*
X118999000Y-95528000D02*
X118401000Y-94930000D01*
X119671000Y-104462000D02*
X118999000Y-103790000D01*
X123571000Y-104462000D02*
X119671000Y-104462000D01*
X116951000Y-98994000D02*
X117155000Y-98994000D01*
X117155000Y-98994000D02*
X118999000Y-100838000D01*
X118999000Y-103790000D02*
X118999000Y-100838000D01*
X118999000Y-100838000D02*
X118999000Y-95528000D01*
X116951000Y-103058000D02*
X116951000Y-103108000D01*
X118305000Y-104462000D02*
X119671000Y-104462000D01*
X116951000Y-103108000D02*
X118305000Y-104462000D01*
X117001000Y-107122000D02*
X119094000Y-105029000D01*
X116951000Y-107122000D02*
X117001000Y-107122000D01*
D25*
X119136500Y-95528000D02*
X118999000Y-95528000D01*
X120710000Y-93954500D02*
X119136500Y-95528000D01*
X121285000Y-93954500D02*
X120710000Y-93954500D01*
X121285000Y-93954500D02*
X125857000Y-93954500D01*
D24*
X134366000Y-103839000D02*
X134366000Y-102320000D01*
D23*
X139166000Y-100620000D02*
X139166000Y-99520000D01*
D25*
X137466000Y-102320000D02*
X139166000Y-100620000D01*
X134366000Y-102320000D02*
X137466000Y-102320000D01*
D24*
X119104000Y-105029000D02*
X119671000Y-104462000D01*
X119094000Y-105029000D02*
X119104000Y-105029000D01*
D25*
X118306999Y-96220001D02*
X118999000Y-95528000D01*
X118282999Y-96220001D02*
X118306999Y-96220001D01*
X117983000Y-96520000D02*
X118282999Y-96220001D01*
D23*
G04 #@! TO.N,+3V3*
X125851000Y-95535500D02*
X125857000Y-95529500D01*
D25*
X125851000Y-98162000D02*
X125851000Y-95535500D01*
D23*
X126432000Y-95529500D02*
X131918500Y-90043000D01*
X125857000Y-95529500D02*
X126432000Y-95529500D01*
X131918500Y-90043000D02*
X133223000Y-90043000D01*
D25*
X125851000Y-98162000D02*
X123453000Y-98162000D01*
X123453000Y-98162000D02*
X123444000Y-98171000D01*
G04 #@! TO.N,+12V*
X134366000Y-98039000D02*
X132202000Y-100203000D01*
X132202000Y-100203000D02*
X122047000Y-100203000D01*
X121291000Y-99447000D02*
X121291000Y-98162000D01*
X122047000Y-100203000D02*
X121291000Y-99447000D01*
D24*
X121291000Y-95535500D02*
X121285000Y-95529500D01*
D25*
X121291000Y-98162000D02*
X121291000Y-95535500D01*
X134366000Y-98039000D02*
X134366000Y-96520000D01*
D24*
G04 #@! TO.N,Net-(J2-Pad2)*
X114901000Y-93980000D02*
X108170000Y-100711000D01*
X108170000Y-100711000D02*
X106553000Y-100711000D01*
X114951000Y-93980000D02*
X114901000Y-93980000D01*
G04 #@! TO.N,Net-(J2-Pad3)*
X113501000Y-98044000D02*
X108294000Y-103251000D01*
X108294000Y-103251000D02*
X106553000Y-103251000D01*
X114951000Y-98044000D02*
X113501000Y-98044000D01*
G04 #@! TO.N,Net-(J2-Pad4)*
X106553000Y-105791000D02*
X108653000Y-105791000D01*
X112336000Y-102108000D02*
X114951000Y-102108000D01*
X108653000Y-105791000D02*
X112336000Y-102108000D01*
G04 #@! TO.N,Net-(J2-Pad5)*
X106553000Y-108331000D02*
X108712000Y-108331000D01*
X110871000Y-106172000D02*
X114951000Y-106172000D01*
X108712000Y-108331000D02*
X110871000Y-106172000D01*
D23*
G04 #@! TO.N,/Flash*
X110109000Y-92964000D02*
X107823000Y-90678000D01*
X115697000Y-92964000D02*
X110109000Y-92964000D01*
G04 #@! TO.N,/Rst*
X118745000Y-92583000D02*
X118110000Y-92583000D01*
X118110000Y-92583000D02*
X117602000Y-92075000D01*
X117602000Y-92075000D02*
X110236000Y-92075000D01*
X110236000Y-92075000D02*
X109093000Y-90932000D01*
X109093000Y-90932000D02*
X109093000Y-90043000D01*
X109093000Y-90043000D02*
X108458000Y-89408000D01*
X106553000Y-89408000D02*
X105283000Y-90678000D01*
X108458000Y-89408000D02*
X106553000Y-89408000D01*
G04 #@! TO.N,/RX*
X109025081Y-88138000D02*
X107823000Y-88138000D01*
X124714000Y-92837000D02*
X120269000Y-92837000D01*
X120269000Y-92837000D02*
X118491000Y-91567000D01*
X118491000Y-91567000D02*
X110364410Y-91567000D01*
X109543010Y-88655929D02*
X109025081Y-88138000D01*
X110364410Y-91567000D02*
X109543010Y-90745600D01*
X109543010Y-90745600D02*
X109543010Y-88655929D01*
G04 #@! TO.N,/TX*
X106132999Y-87288001D02*
X105283000Y-88138000D01*
X106458001Y-86962999D02*
X106132999Y-87288001D01*
X108486490Y-86962999D02*
X106458001Y-86962999D01*
X109993020Y-90559200D02*
X109993019Y-88469528D01*
X110492820Y-91059000D02*
X109993020Y-90559200D01*
X125603000Y-92837000D02*
X125303001Y-92537001D01*
X109993019Y-88469528D02*
X108486490Y-86962999D01*
X118745000Y-91059000D02*
X110492820Y-91059000D01*
X125303001Y-92537001D02*
X125303001Y-92410001D01*
X125303001Y-92410001D02*
X125095000Y-92202000D01*
X125095000Y-92202000D02*
X120523000Y-92202000D01*
X120523000Y-92202000D02*
X118745000Y-91059000D01*
G04 #@! TO.N,/red_c*
X117651000Y-93030000D02*
X118110000Y-93489000D01*
X116951000Y-93030000D02*
X117651000Y-93030000D01*
X118110000Y-93489000D02*
X118110000Y-93489000D01*
G04 #@! TO.N,/green_c*
X116078000Y-97917000D02*
X116078000Y-100076000D01*
X116951000Y-97094000D02*
X116901000Y-97094000D01*
X116901000Y-97094000D02*
X116078000Y-97917000D01*
G04 #@! TO.N,/blue_c*
X116951000Y-101158000D02*
X117287000Y-101158000D01*
X117287000Y-101158000D02*
X117983000Y-101854000D01*
G04 #@! TO.N,/white_c*
X114803000Y-103124000D02*
X114173000Y-103124000D01*
X116951000Y-105222000D02*
X116901000Y-105222000D01*
X116901000Y-105222000D02*
X114803000Y-103124000D01*
G04 #@! TD*
D26*
G04 #@! TO.N,GND*
G36*
X111506000Y-90607000D02*
X110680045Y-90607000D01*
X110445020Y-90371975D01*
X110445018Y-88514050D01*
X110453874Y-88469528D01*
X110418794Y-88293166D01*
X110344110Y-88181394D01*
X110344107Y-88181391D01*
X110318892Y-88143654D01*
X110281154Y-88118439D01*
X108837583Y-86674868D01*
X108812364Y-86637125D01*
X108662852Y-86537224D01*
X108531008Y-86510999D01*
X108486490Y-86502144D01*
X108441972Y-86510999D01*
X106502517Y-86510999D01*
X106458000Y-86502144D01*
X106413484Y-86510999D01*
X106413483Y-86510999D01*
X106281639Y-86537224D01*
X106132127Y-86637125D01*
X106106909Y-86674866D01*
X105844868Y-86936908D01*
X105844865Y-86936910D01*
X105748382Y-87033393D01*
X105742242Y-87029291D01*
X105398920Y-86961000D01*
X105167080Y-86961000D01*
X104823758Y-87029291D01*
X104434431Y-87289431D01*
X104174291Y-87678758D01*
X104082942Y-88138000D01*
X104174291Y-88597242D01*
X104434431Y-88986569D01*
X104823758Y-89246709D01*
X105167080Y-89315000D01*
X105398920Y-89315000D01*
X105742242Y-89246709D01*
X106131569Y-88986569D01*
X106391709Y-88597242D01*
X106483058Y-88138000D01*
X106391709Y-87678758D01*
X106387607Y-87672618D01*
X106484090Y-87576135D01*
X106484092Y-87576132D01*
X106645226Y-87414999D01*
X106890529Y-87414999D01*
X106714291Y-87678758D01*
X106622942Y-88138000D01*
X106714291Y-88597242D01*
X106954005Y-88956000D01*
X106597516Y-88956000D01*
X106552999Y-88947145D01*
X106508483Y-88956000D01*
X106508482Y-88956000D01*
X106376638Y-88982225D01*
X106227126Y-89082126D01*
X106201909Y-89119867D01*
X105748382Y-89573394D01*
X105742242Y-89569291D01*
X105398920Y-89501000D01*
X105167080Y-89501000D01*
X104823758Y-89569291D01*
X104434431Y-89829431D01*
X104174291Y-90218758D01*
X104082942Y-90678000D01*
X104174291Y-91137242D01*
X104434431Y-91526569D01*
X104823758Y-91786709D01*
X105167080Y-91855000D01*
X105398920Y-91855000D01*
X105742242Y-91786709D01*
X106131569Y-91526569D01*
X106391709Y-91137242D01*
X106483058Y-90678000D01*
X106391709Y-90218758D01*
X106387606Y-90212618D01*
X106740225Y-89860000D01*
X106954005Y-89860000D01*
X106714291Y-90218758D01*
X106622942Y-90678000D01*
X106714291Y-91137242D01*
X106974431Y-91526569D01*
X107283377Y-91733000D01*
X106846691Y-91733000D01*
X106613302Y-91829673D01*
X106434673Y-92008301D01*
X106338000Y-92241690D01*
X106338000Y-92678377D01*
X106131569Y-92369431D01*
X105742242Y-92109291D01*
X105398920Y-92041000D01*
X105167080Y-92041000D01*
X104823758Y-92109291D01*
X104434431Y-92369431D01*
X104174291Y-92758758D01*
X104082942Y-93218000D01*
X104174291Y-93677242D01*
X104434431Y-94066569D01*
X104823758Y-94326709D01*
X105167080Y-94395000D01*
X105398920Y-94395000D01*
X105742242Y-94326709D01*
X106131569Y-94066569D01*
X106338000Y-93757623D01*
X106338000Y-94194310D01*
X106434673Y-94427699D01*
X106613302Y-94606327D01*
X106846691Y-94703000D01*
X107537250Y-94703000D01*
X107696000Y-94544250D01*
X107696000Y-93345000D01*
X107950000Y-93345000D01*
X107950000Y-94544250D01*
X108108750Y-94703000D01*
X108799309Y-94703000D01*
X109032698Y-94606327D01*
X109211327Y-94427699D01*
X109308000Y-94194310D01*
X109308000Y-93503750D01*
X109149250Y-93345000D01*
X107950000Y-93345000D01*
X107696000Y-93345000D01*
X107676000Y-93345000D01*
X107676000Y-93091000D01*
X107696000Y-93091000D01*
X107696000Y-93071000D01*
X107950000Y-93071000D01*
X107950000Y-93091000D01*
X109149250Y-93091000D01*
X109308000Y-92932250D01*
X109308000Y-92802225D01*
X109757909Y-93252134D01*
X109783126Y-93289874D01*
X109826966Y-93319167D01*
X109932638Y-93389775D01*
X110108999Y-93424855D01*
X110153517Y-93416000D01*
X114217302Y-93416000D01*
X114192973Y-93452411D01*
X114176570Y-93534875D01*
X107827447Y-99884000D01*
X107670035Y-99884000D01*
X107645988Y-99848012D01*
X107250046Y-99583451D01*
X106900891Y-99514000D01*
X106205109Y-99514000D01*
X105855954Y-99583451D01*
X105460012Y-99848012D01*
X105195451Y-100243954D01*
X105102550Y-100711000D01*
X105195451Y-101178046D01*
X105460012Y-101573988D01*
X105855954Y-101838549D01*
X106205109Y-101908000D01*
X106900891Y-101908000D01*
X107250046Y-101838549D01*
X107645988Y-101573988D01*
X107670035Y-101538000D01*
X108088556Y-101538000D01*
X108170000Y-101554200D01*
X108251444Y-101538000D01*
X108251448Y-101538000D01*
X108492679Y-101490016D01*
X108766233Y-101307233D01*
X108812372Y-101238181D01*
X114834804Y-95215750D01*
X115866000Y-95215750D01*
X115866000Y-95456310D01*
X115962673Y-95689699D01*
X116141302Y-95868327D01*
X116374691Y-95965000D01*
X116665250Y-95965000D01*
X116824000Y-95806250D01*
X116824000Y-95057000D01*
X117078000Y-95057000D01*
X117078000Y-95806250D01*
X117236750Y-95965000D01*
X117527309Y-95965000D01*
X117760698Y-95868327D01*
X117939327Y-95689699D01*
X118036000Y-95456310D01*
X118036000Y-95215750D01*
X117877250Y-95057000D01*
X117078000Y-95057000D01*
X116824000Y-95057000D01*
X116024750Y-95057000D01*
X115866000Y-95215750D01*
X114834804Y-95215750D01*
X115327503Y-94723052D01*
X115341939Y-94713406D01*
X115401000Y-94713406D01*
X115528589Y-94688027D01*
X115636754Y-94615754D01*
X115709027Y-94507589D01*
X115729693Y-94403690D01*
X115866000Y-94403690D01*
X115866000Y-94644250D01*
X116024750Y-94803000D01*
X116824000Y-94803000D01*
X116824000Y-94053750D01*
X116665250Y-93895000D01*
X116374691Y-93895000D01*
X116141302Y-93991673D01*
X115962673Y-94170301D01*
X115866000Y-94403690D01*
X115729693Y-94403690D01*
X115734406Y-94380000D01*
X115734406Y-94280609D01*
X115794201Y-93980000D01*
X115734406Y-93679391D01*
X115734406Y-93591000D01*
X115821718Y-93591000D01*
X116052167Y-93495545D01*
X116167594Y-93380118D01*
X116167594Y-93430000D01*
X116192973Y-93557589D01*
X116265246Y-93665754D01*
X116373411Y-93738027D01*
X116501000Y-93763406D01*
X117401000Y-93763406D01*
X117528589Y-93738027D01*
X117533211Y-93734939D01*
X117578455Y-93844167D01*
X117701398Y-93967110D01*
X117527309Y-93895000D01*
X117236750Y-93895000D01*
X117078000Y-94053750D01*
X117078000Y-94803000D01*
X117877250Y-94803000D01*
X118036000Y-94644250D01*
X118036000Y-94403690D01*
X117939327Y-94170301D01*
X117814133Y-94045108D01*
X117985282Y-94116000D01*
X118234718Y-94116000D01*
X118465167Y-94020545D01*
X118641545Y-93844167D01*
X118737000Y-93613718D01*
X118737000Y-93364282D01*
X118673094Y-93210000D01*
X118869718Y-93210000D01*
X119100167Y-93114545D01*
X119276545Y-92938167D01*
X119357926Y-92741697D01*
X119939065Y-93156797D01*
X119943126Y-93162874D01*
X120012028Y-93208913D01*
X120042506Y-93230683D01*
X120048984Y-93233606D01*
X120092638Y-93262775D01*
X120130164Y-93270239D01*
X120165035Y-93285975D01*
X120217508Y-93287613D01*
X120217682Y-93287647D01*
X120175000Y-93390691D01*
X120175000Y-93668750D01*
X120333750Y-93827500D01*
X121158000Y-93827500D01*
X121158000Y-93807500D01*
X121412000Y-93807500D01*
X121412000Y-93827500D01*
X122236250Y-93827500D01*
X122395000Y-93668750D01*
X122395000Y-93390691D01*
X122352878Y-93289000D01*
X124279288Y-93289000D01*
X124358833Y-93368545D01*
X124589282Y-93464000D01*
X124747000Y-93464000D01*
X124747000Y-93668750D01*
X124905750Y-93827500D01*
X125730000Y-93827500D01*
X125730000Y-93807500D01*
X125984000Y-93807500D01*
X125984000Y-93827500D01*
X126808250Y-93827500D01*
X126967000Y-93668750D01*
X126967000Y-93390691D01*
X126870327Y-93157302D01*
X126691699Y-92978673D01*
X126458310Y-92882000D01*
X126230000Y-92882000D01*
X126230000Y-92712282D01*
X126134545Y-92481833D01*
X125958167Y-92305455D01*
X125941585Y-92298587D01*
X127887016Y-92328984D01*
X127937601Y-92319333D01*
X127978803Y-92291803D01*
X128006333Y-92250601D01*
X128016000Y-92202000D01*
X128016000Y-85598000D01*
X139446000Y-85598000D01*
X139446000Y-96971971D01*
X139293000Y-97049622D01*
X139293000Y-99393000D01*
X139313000Y-99393000D01*
X139313000Y-99647000D01*
X139293000Y-99647000D01*
X139293000Y-101990378D01*
X139446000Y-102068029D01*
X139446000Y-110617450D01*
X103886638Y-110743547D01*
X103898700Y-108331000D01*
X105102550Y-108331000D01*
X105195451Y-108798046D01*
X105460012Y-109193988D01*
X105855954Y-109458549D01*
X106205109Y-109528000D01*
X106900891Y-109528000D01*
X107250046Y-109458549D01*
X107645988Y-109193988D01*
X107670035Y-109158000D01*
X108630556Y-109158000D01*
X108712000Y-109174200D01*
X108793444Y-109158000D01*
X108793448Y-109158000D01*
X109034679Y-109110016D01*
X109308233Y-108927233D01*
X109354372Y-108858181D01*
X110804803Y-107407750D01*
X115866000Y-107407750D01*
X115866000Y-107648310D01*
X115962673Y-107881699D01*
X116141302Y-108060327D01*
X116374691Y-108157000D01*
X116665250Y-108157000D01*
X116824000Y-107998250D01*
X116824000Y-107249000D01*
X117078000Y-107249000D01*
X117078000Y-107998250D01*
X117236750Y-108157000D01*
X117527309Y-108157000D01*
X117760698Y-108060327D01*
X117939327Y-107881699D01*
X118036000Y-107648310D01*
X118036000Y-107407750D01*
X117877250Y-107249000D01*
X117078000Y-107249000D01*
X116824000Y-107249000D01*
X116024750Y-107249000D01*
X115866000Y-107407750D01*
X110804803Y-107407750D01*
X111213554Y-106999000D01*
X115032448Y-106999000D01*
X115273679Y-106951016D01*
X115341939Y-106905406D01*
X115401000Y-106905406D01*
X115528589Y-106880027D01*
X115636754Y-106807754D01*
X115709027Y-106699589D01*
X115729693Y-106595690D01*
X115866000Y-106595690D01*
X115866000Y-106836250D01*
X116024750Y-106995000D01*
X116824000Y-106995000D01*
X116824000Y-106245750D01*
X117078000Y-106245750D01*
X117078000Y-106995000D01*
X117877250Y-106995000D01*
X118036000Y-106836250D01*
X118036000Y-106595690D01*
X117939327Y-106362301D01*
X117760698Y-106183673D01*
X117527309Y-106087000D01*
X117236750Y-106087000D01*
X117078000Y-106245750D01*
X116824000Y-106245750D01*
X116665250Y-106087000D01*
X116374691Y-106087000D01*
X116141302Y-106183673D01*
X115962673Y-106362301D01*
X115866000Y-106595690D01*
X115729693Y-106595690D01*
X115734406Y-106572000D01*
X115734406Y-106472609D01*
X115794201Y-106172000D01*
X115734406Y-105871391D01*
X115734406Y-105772000D01*
X115709027Y-105644411D01*
X115636754Y-105536246D01*
X115528589Y-105463973D01*
X115401000Y-105438594D01*
X115341939Y-105438594D01*
X115273679Y-105392984D01*
X115032448Y-105345000D01*
X110952442Y-105345000D01*
X110870999Y-105328800D01*
X110789556Y-105345000D01*
X110789552Y-105345000D01*
X110548321Y-105392984D01*
X110274767Y-105575767D01*
X110228630Y-105644816D01*
X108369447Y-107504000D01*
X107670035Y-107504000D01*
X107645988Y-107468012D01*
X107250046Y-107203451D01*
X106900891Y-107134000D01*
X106205109Y-107134000D01*
X105855954Y-107203451D01*
X105460012Y-107468012D01*
X105195451Y-107863954D01*
X105102550Y-108331000D01*
X103898700Y-108331000D01*
X103911400Y-105791000D01*
X105102550Y-105791000D01*
X105195451Y-106258046D01*
X105460012Y-106653988D01*
X105855954Y-106918549D01*
X106205109Y-106988000D01*
X106900891Y-106988000D01*
X107250046Y-106918549D01*
X107645988Y-106653988D01*
X107670035Y-106618000D01*
X108571556Y-106618000D01*
X108653000Y-106634200D01*
X108734444Y-106618000D01*
X108734448Y-106618000D01*
X108975679Y-106570016D01*
X109249233Y-106387233D01*
X109295372Y-106318181D01*
X112678555Y-102935000D01*
X113572626Y-102935000D01*
X113546000Y-102999282D01*
X113546000Y-103248718D01*
X113641455Y-103479167D01*
X113817833Y-103655545D01*
X114048282Y-103751000D01*
X114297718Y-103751000D01*
X114528167Y-103655545D01*
X114607712Y-103576000D01*
X114615776Y-103576000D01*
X116167594Y-105127819D01*
X116167594Y-105622000D01*
X116192973Y-105749589D01*
X116265246Y-105857754D01*
X116373411Y-105930027D01*
X116501000Y-105955406D01*
X117401000Y-105955406D01*
X117528589Y-105930027D01*
X117636754Y-105857754D01*
X117709027Y-105749589D01*
X117734406Y-105622000D01*
X117734406Y-104822000D01*
X117719637Y-104747750D01*
X120036000Y-104747750D01*
X120036000Y-107788309D01*
X120132673Y-108021698D01*
X120311301Y-108200327D01*
X120544690Y-108297000D01*
X123285250Y-108297000D01*
X123444000Y-108138250D01*
X123444000Y-104589000D01*
X123698000Y-104589000D01*
X123698000Y-108138250D01*
X123856750Y-108297000D01*
X126597310Y-108297000D01*
X126830699Y-108200327D01*
X127009327Y-108021698D01*
X127106000Y-107788309D01*
X127106000Y-104747750D01*
X126947250Y-104589000D01*
X123698000Y-104589000D01*
X123444000Y-104589000D01*
X120194750Y-104589000D01*
X120036000Y-104747750D01*
X117719637Y-104747750D01*
X117709027Y-104694411D01*
X117636754Y-104586246D01*
X117528589Y-104513973D01*
X117401000Y-104488594D01*
X116806819Y-104488594D01*
X116411225Y-104093000D01*
X116665250Y-104093000D01*
X116824000Y-103934250D01*
X116824000Y-103185000D01*
X117078000Y-103185000D01*
X117078000Y-103934250D01*
X117236750Y-104093000D01*
X117527309Y-104093000D01*
X117760698Y-103996327D01*
X117939327Y-103817699D01*
X118036000Y-103584310D01*
X118036000Y-103343750D01*
X117877250Y-103185000D01*
X117078000Y-103185000D01*
X116824000Y-103185000D01*
X116024750Y-103185000D01*
X115866000Y-103343750D01*
X115866000Y-103547776D01*
X115216595Y-102898371D01*
X115273679Y-102887016D01*
X115341939Y-102841406D01*
X115401000Y-102841406D01*
X115528589Y-102816027D01*
X115636754Y-102743754D01*
X115709027Y-102635589D01*
X115729693Y-102531690D01*
X115866000Y-102531690D01*
X115866000Y-102772250D01*
X116024750Y-102931000D01*
X116824000Y-102931000D01*
X116824000Y-102181750D01*
X116665250Y-102023000D01*
X116374691Y-102023000D01*
X116141302Y-102119673D01*
X115962673Y-102298301D01*
X115866000Y-102531690D01*
X115729693Y-102531690D01*
X115734406Y-102508000D01*
X115734406Y-102408609D01*
X115794201Y-102108000D01*
X115734406Y-101807391D01*
X115734406Y-101708000D01*
X115709027Y-101580411D01*
X115636754Y-101472246D01*
X115528589Y-101399973D01*
X115401000Y-101374594D01*
X115341939Y-101374594D01*
X115273679Y-101328984D01*
X115032448Y-101281000D01*
X112417448Y-101281000D01*
X112336000Y-101264799D01*
X112013321Y-101328984D01*
X111808815Y-101465630D01*
X111808813Y-101465632D01*
X111739767Y-101511767D01*
X111693632Y-101580813D01*
X108310447Y-104964000D01*
X107670035Y-104964000D01*
X107645988Y-104928012D01*
X107250046Y-104663451D01*
X106900891Y-104594000D01*
X106205109Y-104594000D01*
X105855954Y-104663451D01*
X105460012Y-104928012D01*
X105195451Y-105323954D01*
X105102550Y-105791000D01*
X103911400Y-105791000D01*
X103924100Y-103251000D01*
X105102550Y-103251000D01*
X105195451Y-103718046D01*
X105460012Y-104113988D01*
X105855954Y-104378549D01*
X106205109Y-104448000D01*
X106900891Y-104448000D01*
X107250046Y-104378549D01*
X107645988Y-104113988D01*
X107670035Y-104078000D01*
X108212556Y-104078000D01*
X108294000Y-104094200D01*
X108375444Y-104078000D01*
X108375448Y-104078000D01*
X108616679Y-104030016D01*
X108890233Y-103847233D01*
X108936372Y-103778181D01*
X113843554Y-98871000D01*
X115032448Y-98871000D01*
X115273679Y-98823016D01*
X115341939Y-98777406D01*
X115401000Y-98777406D01*
X115528589Y-98752027D01*
X115626000Y-98686939D01*
X115626001Y-99641287D01*
X115546455Y-99720833D01*
X115451000Y-99951282D01*
X115451000Y-100200718D01*
X115546455Y-100431167D01*
X115722833Y-100607545D01*
X115953282Y-100703000D01*
X116178534Y-100703000D01*
X116167594Y-100758000D01*
X116167594Y-101558000D01*
X116192973Y-101685589D01*
X116265246Y-101793754D01*
X116373411Y-101866027D01*
X116501000Y-101891406D01*
X117356000Y-101891406D01*
X117356000Y-101978718D01*
X117374342Y-102023000D01*
X117236750Y-102023000D01*
X117078000Y-102181750D01*
X117078000Y-102931000D01*
X117877250Y-102931000D01*
X118036000Y-102772250D01*
X118036000Y-102531690D01*
X118015003Y-102481000D01*
X118107718Y-102481000D01*
X118338167Y-102385545D01*
X118514545Y-102209167D01*
X118610000Y-101978718D01*
X118610000Y-101729282D01*
X118514545Y-101498833D01*
X118338167Y-101322455D01*
X118107718Y-101227000D01*
X117995225Y-101227000D01*
X117903916Y-101135691D01*
X120036000Y-101135691D01*
X120036000Y-104176250D01*
X120194750Y-104335000D01*
X123444000Y-104335000D01*
X123444000Y-104315000D01*
X123698000Y-104315000D01*
X123698000Y-104335000D01*
X126947250Y-104335000D01*
X127106000Y-104176250D01*
X127106000Y-102684740D01*
X131774964Y-102684740D01*
X131799244Y-102790086D01*
X132090788Y-103315606D01*
X132561248Y-103689554D01*
X133139000Y-103855000D01*
X134239000Y-103855000D01*
X134239000Y-102447000D01*
X134493000Y-102447000D01*
X134493000Y-103855000D01*
X135593000Y-103855000D01*
X136170752Y-103689554D01*
X136641212Y-103315606D01*
X136932756Y-102790086D01*
X136957036Y-102684740D01*
X136836378Y-102447000D01*
X134493000Y-102447000D01*
X134239000Y-102447000D01*
X131895622Y-102447000D01*
X131774964Y-102684740D01*
X127106000Y-102684740D01*
X127106000Y-101955260D01*
X131774964Y-101955260D01*
X131895622Y-102193000D01*
X134239000Y-102193000D01*
X134239000Y-100785000D01*
X134493000Y-100785000D01*
X134493000Y-102193000D01*
X136836378Y-102193000D01*
X136957036Y-101955260D01*
X136932756Y-101849914D01*
X136641212Y-101324394D01*
X136170752Y-100950446D01*
X135593000Y-100785000D01*
X134493000Y-100785000D01*
X134239000Y-100785000D01*
X133139000Y-100785000D01*
X132561248Y-100950446D01*
X132090788Y-101324394D01*
X131799244Y-101849914D01*
X131774964Y-101955260D01*
X127106000Y-101955260D01*
X127106000Y-101135691D01*
X127009327Y-100902302D01*
X126887026Y-100780000D01*
X132145172Y-100780000D01*
X132202000Y-100791304D01*
X132258828Y-100780000D01*
X132258829Y-100780000D01*
X132427134Y-100746522D01*
X132617994Y-100618994D01*
X132650188Y-100570812D01*
X133574000Y-99647000D01*
X137631000Y-99647000D01*
X137631000Y-100747000D01*
X137796446Y-101324752D01*
X138170394Y-101795212D01*
X138695914Y-102086756D01*
X138801260Y-102111036D01*
X139039000Y-101990378D01*
X139039000Y-99647000D01*
X137631000Y-99647000D01*
X133574000Y-99647000D01*
X134733815Y-98487186D01*
X134781994Y-98454994D01*
X134890234Y-98293000D01*
X137631000Y-98293000D01*
X137631000Y-99393000D01*
X139039000Y-99393000D01*
X139039000Y-97049622D01*
X138801260Y-96928964D01*
X138695914Y-96953244D01*
X138170394Y-97244788D01*
X137796446Y-97715248D01*
X137631000Y-98293000D01*
X134890234Y-98293000D01*
X134909522Y-98264134D01*
X134943000Y-98095829D01*
X134943000Y-98095828D01*
X134954304Y-98039001D01*
X134943000Y-97982173D01*
X134943000Y-97753406D01*
X136566000Y-97753406D01*
X136693589Y-97728027D01*
X136801754Y-97655754D01*
X136874027Y-97547589D01*
X136899406Y-97420000D01*
X136899406Y-95620000D01*
X136874027Y-95492411D01*
X136801754Y-95384246D01*
X136693589Y-95311973D01*
X136566000Y-95286594D01*
X132166000Y-95286594D01*
X132038411Y-95311973D01*
X131930246Y-95384246D01*
X131857973Y-95492411D01*
X131832594Y-95620000D01*
X131832594Y-97420000D01*
X131857973Y-97547589D01*
X131930246Y-97655754D01*
X132038411Y-97728027D01*
X132166000Y-97753406D01*
X133789000Y-97753406D01*
X133789000Y-97799999D01*
X131963000Y-99626000D01*
X122286001Y-99626000D01*
X122139171Y-99479170D01*
X122199027Y-99389589D01*
X122224406Y-99262000D01*
X122224406Y-98046282D01*
X122817000Y-98046282D01*
X122817000Y-98295718D01*
X122912455Y-98526167D01*
X123088833Y-98702545D01*
X123319282Y-98798000D01*
X123568718Y-98798000D01*
X123711157Y-98739000D01*
X124917594Y-98739000D01*
X124917594Y-99262000D01*
X124942973Y-99389589D01*
X125015246Y-99497754D01*
X125123411Y-99570027D01*
X125251000Y-99595406D01*
X126451000Y-99595406D01*
X126578589Y-99570027D01*
X126686754Y-99497754D01*
X126759027Y-99389589D01*
X126784406Y-99262000D01*
X126784406Y-97062000D01*
X126759027Y-96934411D01*
X126686754Y-96826246D01*
X126578589Y-96753973D01*
X126451000Y-96728594D01*
X126428000Y-96728594D01*
X126428000Y-96189253D01*
X126503683Y-96138683D01*
X126623376Y-95959551D01*
X126626658Y-95943050D01*
X126757874Y-95855374D01*
X126783093Y-95817631D01*
X132105725Y-90495000D01*
X132788288Y-90495000D01*
X132867833Y-90574545D01*
X133098282Y-90670000D01*
X133347718Y-90670000D01*
X133578167Y-90574545D01*
X133754545Y-90398167D01*
X133850000Y-90167718D01*
X133850000Y-89918282D01*
X133754545Y-89687833D01*
X133578167Y-89511455D01*
X133347718Y-89416000D01*
X133098282Y-89416000D01*
X132867833Y-89511455D01*
X132788288Y-89591000D01*
X131963018Y-89591000D01*
X131918500Y-89582145D01*
X131873982Y-89591000D01*
X131742138Y-89617225D01*
X131592626Y-89717126D01*
X131567409Y-89754866D01*
X126967000Y-94355276D01*
X126967000Y-94240250D01*
X126808250Y-94081500D01*
X125984000Y-94081500D01*
X125984000Y-94101500D01*
X125730000Y-94101500D01*
X125730000Y-94081500D01*
X124905750Y-94081500D01*
X124747000Y-94240250D01*
X124747000Y-94518309D01*
X124843673Y-94751698D01*
X125022301Y-94930327D01*
X125164321Y-94989154D01*
X125090624Y-95099449D01*
X125048594Y-95310750D01*
X125048594Y-95748250D01*
X125090624Y-95959551D01*
X125210317Y-96138683D01*
X125274001Y-96181235D01*
X125274001Y-96728594D01*
X125251000Y-96728594D01*
X125123411Y-96753973D01*
X125015246Y-96826246D01*
X124942973Y-96934411D01*
X124917594Y-97062000D01*
X124917594Y-97585000D01*
X123667701Y-97585000D01*
X123568718Y-97544000D01*
X123319282Y-97544000D01*
X123088833Y-97639455D01*
X122912455Y-97815833D01*
X122817000Y-98046282D01*
X122224406Y-98046282D01*
X122224406Y-97062000D01*
X122199027Y-96934411D01*
X122126754Y-96826246D01*
X122018589Y-96753973D01*
X121891000Y-96728594D01*
X121868000Y-96728594D01*
X121868000Y-96181235D01*
X121931683Y-96138683D01*
X122051376Y-95959551D01*
X122093406Y-95748250D01*
X122093406Y-95740584D01*
X122134200Y-95535499D01*
X122093406Y-95330415D01*
X122093406Y-95310750D01*
X122051376Y-95099449D01*
X121977679Y-94989154D01*
X122119699Y-94930327D01*
X122298327Y-94751698D01*
X122395000Y-94518309D01*
X122395000Y-94240250D01*
X122236250Y-94081500D01*
X121412000Y-94081500D01*
X121412000Y-94101500D01*
X121158000Y-94101500D01*
X121158000Y-94081500D01*
X120333750Y-94081500D01*
X120175000Y-94240250D01*
X120175000Y-94518309D01*
X120271673Y-94751698D01*
X120450301Y-94930327D01*
X120592321Y-94989154D01*
X120518624Y-95099449D01*
X120476594Y-95310750D01*
X120476594Y-95354577D01*
X120441800Y-95529500D01*
X120476594Y-95704423D01*
X120476594Y-95748250D01*
X120518624Y-95959551D01*
X120638317Y-96138683D01*
X120714001Y-96189254D01*
X120714001Y-96728594D01*
X120691000Y-96728594D01*
X120563411Y-96753973D01*
X120455246Y-96826246D01*
X120382973Y-96934411D01*
X120357594Y-97062000D01*
X120357594Y-99262000D01*
X120382973Y-99389589D01*
X120455246Y-99497754D01*
X120563411Y-99570027D01*
X120691000Y-99595406D01*
X120732216Y-99595406D01*
X120747478Y-99672133D01*
X120875006Y-99862994D01*
X120923188Y-99895188D01*
X121598814Y-100570815D01*
X121631006Y-100618994D01*
X121642988Y-100627000D01*
X120544690Y-100627000D01*
X120311301Y-100723673D01*
X120132673Y-100902302D01*
X120036000Y-101135691D01*
X117903916Y-101135691D01*
X117734406Y-100966182D01*
X117734406Y-100758000D01*
X117709027Y-100630411D01*
X117636754Y-100522246D01*
X117528589Y-100449973D01*
X117401000Y-100424594D01*
X116612268Y-100424594D01*
X116705000Y-100200718D01*
X116705000Y-99989250D01*
X116824000Y-99870250D01*
X116824000Y-99121000D01*
X117078000Y-99121000D01*
X117078000Y-99870250D01*
X117236750Y-100029000D01*
X117527309Y-100029000D01*
X117760698Y-99932327D01*
X117939327Y-99753699D01*
X118036000Y-99520310D01*
X118036000Y-99279750D01*
X117877250Y-99121000D01*
X117078000Y-99121000D01*
X116824000Y-99121000D01*
X116804000Y-99121000D01*
X116804000Y-98867000D01*
X116824000Y-98867000D01*
X116824000Y-98117750D01*
X117078000Y-98117750D01*
X117078000Y-98867000D01*
X117877250Y-98867000D01*
X118036000Y-98708250D01*
X118036000Y-98467690D01*
X117939327Y-98234301D01*
X117760698Y-98055673D01*
X117527309Y-97959000D01*
X117236750Y-97959000D01*
X117078000Y-98117750D01*
X116824000Y-98117750D01*
X116670237Y-97963987D01*
X116806818Y-97827406D01*
X117401000Y-97827406D01*
X117528589Y-97802027D01*
X117636754Y-97729754D01*
X117709027Y-97621589D01*
X117734406Y-97494000D01*
X117734406Y-96694000D01*
X117709027Y-96566411D01*
X117636754Y-96458246D01*
X117528589Y-96385973D01*
X117401000Y-96360594D01*
X116501000Y-96360594D01*
X116373411Y-96385973D01*
X116265246Y-96458246D01*
X116192973Y-96566411D01*
X116167594Y-96694000D01*
X116167594Y-97188182D01*
X115789869Y-97565907D01*
X115752126Y-97591126D01*
X115730366Y-97623692D01*
X115709027Y-97516411D01*
X115636754Y-97408246D01*
X115528589Y-97335973D01*
X115401000Y-97310594D01*
X115341939Y-97310594D01*
X115273679Y-97264984D01*
X115032448Y-97217000D01*
X113582442Y-97217000D01*
X113500999Y-97200800D01*
X113419556Y-97217000D01*
X113419552Y-97217000D01*
X113178321Y-97264984D01*
X112904767Y-97447767D01*
X112858630Y-97516816D01*
X107951447Y-102424000D01*
X107670035Y-102424000D01*
X107645988Y-102388012D01*
X107250046Y-102123451D01*
X106900891Y-102054000D01*
X106205109Y-102054000D01*
X105855954Y-102123451D01*
X105460012Y-102388012D01*
X105195451Y-102783954D01*
X105102550Y-103251000D01*
X103924100Y-103251000D01*
X103952600Y-97550999D01*
X105119594Y-97550999D01*
X105119594Y-98791001D01*
X105164003Y-99014260D01*
X105290469Y-99203531D01*
X105479740Y-99329997D01*
X105702999Y-99374406D01*
X107403001Y-99374406D01*
X107626260Y-99329997D01*
X107815531Y-99203531D01*
X107941997Y-99014260D01*
X107986406Y-98791001D01*
X107986406Y-97550999D01*
X107941997Y-97327740D01*
X107815531Y-97138469D01*
X107626260Y-97012003D01*
X107403001Y-96967594D01*
X105702999Y-96967594D01*
X105479740Y-97012003D01*
X105290469Y-97138469D01*
X105164003Y-97327740D01*
X105119594Y-97550999D01*
X103952600Y-97550999D01*
X104012366Y-85598000D01*
X111506000Y-85598000D01*
X111506000Y-90607000D01*
X111506000Y-90607000D01*
G37*
X111506000Y-90607000D02*
X110680045Y-90607000D01*
X110445020Y-90371975D01*
X110445018Y-88514050D01*
X110453874Y-88469528D01*
X110418794Y-88293166D01*
X110344110Y-88181394D01*
X110344107Y-88181391D01*
X110318892Y-88143654D01*
X110281154Y-88118439D01*
X108837583Y-86674868D01*
X108812364Y-86637125D01*
X108662852Y-86537224D01*
X108531008Y-86510999D01*
X108486490Y-86502144D01*
X108441972Y-86510999D01*
X106502517Y-86510999D01*
X106458000Y-86502144D01*
X106413484Y-86510999D01*
X106413483Y-86510999D01*
X106281639Y-86537224D01*
X106132127Y-86637125D01*
X106106909Y-86674866D01*
X105844868Y-86936908D01*
X105844865Y-86936910D01*
X105748382Y-87033393D01*
X105742242Y-87029291D01*
X105398920Y-86961000D01*
X105167080Y-86961000D01*
X104823758Y-87029291D01*
X104434431Y-87289431D01*
X104174291Y-87678758D01*
X104082942Y-88138000D01*
X104174291Y-88597242D01*
X104434431Y-88986569D01*
X104823758Y-89246709D01*
X105167080Y-89315000D01*
X105398920Y-89315000D01*
X105742242Y-89246709D01*
X106131569Y-88986569D01*
X106391709Y-88597242D01*
X106483058Y-88138000D01*
X106391709Y-87678758D01*
X106387607Y-87672618D01*
X106484090Y-87576135D01*
X106484092Y-87576132D01*
X106645226Y-87414999D01*
X106890529Y-87414999D01*
X106714291Y-87678758D01*
X106622942Y-88138000D01*
X106714291Y-88597242D01*
X106954005Y-88956000D01*
X106597516Y-88956000D01*
X106552999Y-88947145D01*
X106508483Y-88956000D01*
X106508482Y-88956000D01*
X106376638Y-88982225D01*
X106227126Y-89082126D01*
X106201909Y-89119867D01*
X105748382Y-89573394D01*
X105742242Y-89569291D01*
X105398920Y-89501000D01*
X105167080Y-89501000D01*
X104823758Y-89569291D01*
X104434431Y-89829431D01*
X104174291Y-90218758D01*
X104082942Y-90678000D01*
X104174291Y-91137242D01*
X104434431Y-91526569D01*
X104823758Y-91786709D01*
X105167080Y-91855000D01*
X105398920Y-91855000D01*
X105742242Y-91786709D01*
X106131569Y-91526569D01*
X106391709Y-91137242D01*
X106483058Y-90678000D01*
X106391709Y-90218758D01*
X106387606Y-90212618D01*
X106740225Y-89860000D01*
X106954005Y-89860000D01*
X106714291Y-90218758D01*
X106622942Y-90678000D01*
X106714291Y-91137242D01*
X106974431Y-91526569D01*
X107283377Y-91733000D01*
X106846691Y-91733000D01*
X106613302Y-91829673D01*
X106434673Y-92008301D01*
X106338000Y-92241690D01*
X106338000Y-92678377D01*
X106131569Y-92369431D01*
X105742242Y-92109291D01*
X105398920Y-92041000D01*
X105167080Y-92041000D01*
X104823758Y-92109291D01*
X104434431Y-92369431D01*
X104174291Y-92758758D01*
X104082942Y-93218000D01*
X104174291Y-93677242D01*
X104434431Y-94066569D01*
X104823758Y-94326709D01*
X105167080Y-94395000D01*
X105398920Y-94395000D01*
X105742242Y-94326709D01*
X106131569Y-94066569D01*
X106338000Y-93757623D01*
X106338000Y-94194310D01*
X106434673Y-94427699D01*
X106613302Y-94606327D01*
X106846691Y-94703000D01*
X107537250Y-94703000D01*
X107696000Y-94544250D01*
X107696000Y-93345000D01*
X107950000Y-93345000D01*
X107950000Y-94544250D01*
X108108750Y-94703000D01*
X108799309Y-94703000D01*
X109032698Y-94606327D01*
X109211327Y-94427699D01*
X109308000Y-94194310D01*
X109308000Y-93503750D01*
X109149250Y-93345000D01*
X107950000Y-93345000D01*
X107696000Y-93345000D01*
X107676000Y-93345000D01*
X107676000Y-93091000D01*
X107696000Y-93091000D01*
X107696000Y-93071000D01*
X107950000Y-93071000D01*
X107950000Y-93091000D01*
X109149250Y-93091000D01*
X109308000Y-92932250D01*
X109308000Y-92802225D01*
X109757909Y-93252134D01*
X109783126Y-93289874D01*
X109826966Y-93319167D01*
X109932638Y-93389775D01*
X110108999Y-93424855D01*
X110153517Y-93416000D01*
X114217302Y-93416000D01*
X114192973Y-93452411D01*
X114176570Y-93534875D01*
X107827447Y-99884000D01*
X107670035Y-99884000D01*
X107645988Y-99848012D01*
X107250046Y-99583451D01*
X106900891Y-99514000D01*
X106205109Y-99514000D01*
X105855954Y-99583451D01*
X105460012Y-99848012D01*
X105195451Y-100243954D01*
X105102550Y-100711000D01*
X105195451Y-101178046D01*
X105460012Y-101573988D01*
X105855954Y-101838549D01*
X106205109Y-101908000D01*
X106900891Y-101908000D01*
X107250046Y-101838549D01*
X107645988Y-101573988D01*
X107670035Y-101538000D01*
X108088556Y-101538000D01*
X108170000Y-101554200D01*
X108251444Y-101538000D01*
X108251448Y-101538000D01*
X108492679Y-101490016D01*
X108766233Y-101307233D01*
X108812372Y-101238181D01*
X114834804Y-95215750D01*
X115866000Y-95215750D01*
X115866000Y-95456310D01*
X115962673Y-95689699D01*
X116141302Y-95868327D01*
X116374691Y-95965000D01*
X116665250Y-95965000D01*
X116824000Y-95806250D01*
X116824000Y-95057000D01*
X117078000Y-95057000D01*
X117078000Y-95806250D01*
X117236750Y-95965000D01*
X117527309Y-95965000D01*
X117760698Y-95868327D01*
X117939327Y-95689699D01*
X118036000Y-95456310D01*
X118036000Y-95215750D01*
X117877250Y-95057000D01*
X117078000Y-95057000D01*
X116824000Y-95057000D01*
X116024750Y-95057000D01*
X115866000Y-95215750D01*
X114834804Y-95215750D01*
X115327503Y-94723052D01*
X115341939Y-94713406D01*
X115401000Y-94713406D01*
X115528589Y-94688027D01*
X115636754Y-94615754D01*
X115709027Y-94507589D01*
X115729693Y-94403690D01*
X115866000Y-94403690D01*
X115866000Y-94644250D01*
X116024750Y-94803000D01*
X116824000Y-94803000D01*
X116824000Y-94053750D01*
X116665250Y-93895000D01*
X116374691Y-93895000D01*
X116141302Y-93991673D01*
X115962673Y-94170301D01*
X115866000Y-94403690D01*
X115729693Y-94403690D01*
X115734406Y-94380000D01*
X115734406Y-94280609D01*
X115794201Y-93980000D01*
X115734406Y-93679391D01*
X115734406Y-93591000D01*
X115821718Y-93591000D01*
X116052167Y-93495545D01*
X116167594Y-93380118D01*
X116167594Y-93430000D01*
X116192973Y-93557589D01*
X116265246Y-93665754D01*
X116373411Y-93738027D01*
X116501000Y-93763406D01*
X117401000Y-93763406D01*
X117528589Y-93738027D01*
X117533211Y-93734939D01*
X117578455Y-93844167D01*
X117701398Y-93967110D01*
X117527309Y-93895000D01*
X117236750Y-93895000D01*
X117078000Y-94053750D01*
X117078000Y-94803000D01*
X117877250Y-94803000D01*
X118036000Y-94644250D01*
X118036000Y-94403690D01*
X117939327Y-94170301D01*
X117814133Y-94045108D01*
X117985282Y-94116000D01*
X118234718Y-94116000D01*
X118465167Y-94020545D01*
X118641545Y-93844167D01*
X118737000Y-93613718D01*
X118737000Y-93364282D01*
X118673094Y-93210000D01*
X118869718Y-93210000D01*
X119100167Y-93114545D01*
X119276545Y-92938167D01*
X119357926Y-92741697D01*
X119939065Y-93156797D01*
X119943126Y-93162874D01*
X120012028Y-93208913D01*
X120042506Y-93230683D01*
X120048984Y-93233606D01*
X120092638Y-93262775D01*
X120130164Y-93270239D01*
X120165035Y-93285975D01*
X120217508Y-93287613D01*
X120217682Y-93287647D01*
X120175000Y-93390691D01*
X120175000Y-93668750D01*
X120333750Y-93827500D01*
X121158000Y-93827500D01*
X121158000Y-93807500D01*
X121412000Y-93807500D01*
X121412000Y-93827500D01*
X122236250Y-93827500D01*
X122395000Y-93668750D01*
X122395000Y-93390691D01*
X122352878Y-93289000D01*
X124279288Y-93289000D01*
X124358833Y-93368545D01*
X124589282Y-93464000D01*
X124747000Y-93464000D01*
X124747000Y-93668750D01*
X124905750Y-93827500D01*
X125730000Y-93827500D01*
X125730000Y-93807500D01*
X125984000Y-93807500D01*
X125984000Y-93827500D01*
X126808250Y-93827500D01*
X126967000Y-93668750D01*
X126967000Y-93390691D01*
X126870327Y-93157302D01*
X126691699Y-92978673D01*
X126458310Y-92882000D01*
X126230000Y-92882000D01*
X126230000Y-92712282D01*
X126134545Y-92481833D01*
X125958167Y-92305455D01*
X125941585Y-92298587D01*
X127887016Y-92328984D01*
X127937601Y-92319333D01*
X127978803Y-92291803D01*
X128006333Y-92250601D01*
X128016000Y-92202000D01*
X128016000Y-85598000D01*
X139446000Y-85598000D01*
X139446000Y-96971971D01*
X139293000Y-97049622D01*
X139293000Y-99393000D01*
X139313000Y-99393000D01*
X139313000Y-99647000D01*
X139293000Y-99647000D01*
X139293000Y-101990378D01*
X139446000Y-102068029D01*
X139446000Y-110617450D01*
X103886638Y-110743547D01*
X103898700Y-108331000D01*
X105102550Y-108331000D01*
X105195451Y-108798046D01*
X105460012Y-109193988D01*
X105855954Y-109458549D01*
X106205109Y-109528000D01*
X106900891Y-109528000D01*
X107250046Y-109458549D01*
X107645988Y-109193988D01*
X107670035Y-109158000D01*
X108630556Y-109158000D01*
X108712000Y-109174200D01*
X108793444Y-109158000D01*
X108793448Y-109158000D01*
X109034679Y-109110016D01*
X109308233Y-108927233D01*
X109354372Y-108858181D01*
X110804803Y-107407750D01*
X115866000Y-107407750D01*
X115866000Y-107648310D01*
X115962673Y-107881699D01*
X116141302Y-108060327D01*
X116374691Y-108157000D01*
X116665250Y-108157000D01*
X116824000Y-107998250D01*
X116824000Y-107249000D01*
X117078000Y-107249000D01*
X117078000Y-107998250D01*
X117236750Y-108157000D01*
X117527309Y-108157000D01*
X117760698Y-108060327D01*
X117939327Y-107881699D01*
X118036000Y-107648310D01*
X118036000Y-107407750D01*
X117877250Y-107249000D01*
X117078000Y-107249000D01*
X116824000Y-107249000D01*
X116024750Y-107249000D01*
X115866000Y-107407750D01*
X110804803Y-107407750D01*
X111213554Y-106999000D01*
X115032448Y-106999000D01*
X115273679Y-106951016D01*
X115341939Y-106905406D01*
X115401000Y-106905406D01*
X115528589Y-106880027D01*
X115636754Y-106807754D01*
X115709027Y-106699589D01*
X115729693Y-106595690D01*
X115866000Y-106595690D01*
X115866000Y-106836250D01*
X116024750Y-106995000D01*
X116824000Y-106995000D01*
X116824000Y-106245750D01*
X117078000Y-106245750D01*
X117078000Y-106995000D01*
X117877250Y-106995000D01*
X118036000Y-106836250D01*
X118036000Y-106595690D01*
X117939327Y-106362301D01*
X117760698Y-106183673D01*
X117527309Y-106087000D01*
X117236750Y-106087000D01*
X117078000Y-106245750D01*
X116824000Y-106245750D01*
X116665250Y-106087000D01*
X116374691Y-106087000D01*
X116141302Y-106183673D01*
X115962673Y-106362301D01*
X115866000Y-106595690D01*
X115729693Y-106595690D01*
X115734406Y-106572000D01*
X115734406Y-106472609D01*
X115794201Y-106172000D01*
X115734406Y-105871391D01*
X115734406Y-105772000D01*
X115709027Y-105644411D01*
X115636754Y-105536246D01*
X115528589Y-105463973D01*
X115401000Y-105438594D01*
X115341939Y-105438594D01*
X115273679Y-105392984D01*
X115032448Y-105345000D01*
X110952442Y-105345000D01*
X110870999Y-105328800D01*
X110789556Y-105345000D01*
X110789552Y-105345000D01*
X110548321Y-105392984D01*
X110274767Y-105575767D01*
X110228630Y-105644816D01*
X108369447Y-107504000D01*
X107670035Y-107504000D01*
X107645988Y-107468012D01*
X107250046Y-107203451D01*
X106900891Y-107134000D01*
X106205109Y-107134000D01*
X105855954Y-107203451D01*
X105460012Y-107468012D01*
X105195451Y-107863954D01*
X105102550Y-108331000D01*
X103898700Y-108331000D01*
X103911400Y-105791000D01*
X105102550Y-105791000D01*
X105195451Y-106258046D01*
X105460012Y-106653988D01*
X105855954Y-106918549D01*
X106205109Y-106988000D01*
X106900891Y-106988000D01*
X107250046Y-106918549D01*
X107645988Y-106653988D01*
X107670035Y-106618000D01*
X108571556Y-106618000D01*
X108653000Y-106634200D01*
X108734444Y-106618000D01*
X108734448Y-106618000D01*
X108975679Y-106570016D01*
X109249233Y-106387233D01*
X109295372Y-106318181D01*
X112678555Y-102935000D01*
X113572626Y-102935000D01*
X113546000Y-102999282D01*
X113546000Y-103248718D01*
X113641455Y-103479167D01*
X113817833Y-103655545D01*
X114048282Y-103751000D01*
X114297718Y-103751000D01*
X114528167Y-103655545D01*
X114607712Y-103576000D01*
X114615776Y-103576000D01*
X116167594Y-105127819D01*
X116167594Y-105622000D01*
X116192973Y-105749589D01*
X116265246Y-105857754D01*
X116373411Y-105930027D01*
X116501000Y-105955406D01*
X117401000Y-105955406D01*
X117528589Y-105930027D01*
X117636754Y-105857754D01*
X117709027Y-105749589D01*
X117734406Y-105622000D01*
X117734406Y-104822000D01*
X117719637Y-104747750D01*
X120036000Y-104747750D01*
X120036000Y-107788309D01*
X120132673Y-108021698D01*
X120311301Y-108200327D01*
X120544690Y-108297000D01*
X123285250Y-108297000D01*
X123444000Y-108138250D01*
X123444000Y-104589000D01*
X123698000Y-104589000D01*
X123698000Y-108138250D01*
X123856750Y-108297000D01*
X126597310Y-108297000D01*
X126830699Y-108200327D01*
X127009327Y-108021698D01*
X127106000Y-107788309D01*
X127106000Y-104747750D01*
X126947250Y-104589000D01*
X123698000Y-104589000D01*
X123444000Y-104589000D01*
X120194750Y-104589000D01*
X120036000Y-104747750D01*
X117719637Y-104747750D01*
X117709027Y-104694411D01*
X117636754Y-104586246D01*
X117528589Y-104513973D01*
X117401000Y-104488594D01*
X116806819Y-104488594D01*
X116411225Y-104093000D01*
X116665250Y-104093000D01*
X116824000Y-103934250D01*
X116824000Y-103185000D01*
X117078000Y-103185000D01*
X117078000Y-103934250D01*
X117236750Y-104093000D01*
X117527309Y-104093000D01*
X117760698Y-103996327D01*
X117939327Y-103817699D01*
X118036000Y-103584310D01*
X118036000Y-103343750D01*
X117877250Y-103185000D01*
X117078000Y-103185000D01*
X116824000Y-103185000D01*
X116024750Y-103185000D01*
X115866000Y-103343750D01*
X115866000Y-103547776D01*
X115216595Y-102898371D01*
X115273679Y-102887016D01*
X115341939Y-102841406D01*
X115401000Y-102841406D01*
X115528589Y-102816027D01*
X115636754Y-102743754D01*
X115709027Y-102635589D01*
X115729693Y-102531690D01*
X115866000Y-102531690D01*
X115866000Y-102772250D01*
X116024750Y-102931000D01*
X116824000Y-102931000D01*
X116824000Y-102181750D01*
X116665250Y-102023000D01*
X116374691Y-102023000D01*
X116141302Y-102119673D01*
X115962673Y-102298301D01*
X115866000Y-102531690D01*
X115729693Y-102531690D01*
X115734406Y-102508000D01*
X115734406Y-102408609D01*
X115794201Y-102108000D01*
X115734406Y-101807391D01*
X115734406Y-101708000D01*
X115709027Y-101580411D01*
X115636754Y-101472246D01*
X115528589Y-101399973D01*
X115401000Y-101374594D01*
X115341939Y-101374594D01*
X115273679Y-101328984D01*
X115032448Y-101281000D01*
X112417448Y-101281000D01*
X112336000Y-101264799D01*
X112013321Y-101328984D01*
X111808815Y-101465630D01*
X111808813Y-101465632D01*
X111739767Y-101511767D01*
X111693632Y-101580813D01*
X108310447Y-104964000D01*
X107670035Y-104964000D01*
X107645988Y-104928012D01*
X107250046Y-104663451D01*
X106900891Y-104594000D01*
X106205109Y-104594000D01*
X105855954Y-104663451D01*
X105460012Y-104928012D01*
X105195451Y-105323954D01*
X105102550Y-105791000D01*
X103911400Y-105791000D01*
X103924100Y-103251000D01*
X105102550Y-103251000D01*
X105195451Y-103718046D01*
X105460012Y-104113988D01*
X105855954Y-104378549D01*
X106205109Y-104448000D01*
X106900891Y-104448000D01*
X107250046Y-104378549D01*
X107645988Y-104113988D01*
X107670035Y-104078000D01*
X108212556Y-104078000D01*
X108294000Y-104094200D01*
X108375444Y-104078000D01*
X108375448Y-104078000D01*
X108616679Y-104030016D01*
X108890233Y-103847233D01*
X108936372Y-103778181D01*
X113843554Y-98871000D01*
X115032448Y-98871000D01*
X115273679Y-98823016D01*
X115341939Y-98777406D01*
X115401000Y-98777406D01*
X115528589Y-98752027D01*
X115626000Y-98686939D01*
X115626001Y-99641287D01*
X115546455Y-99720833D01*
X115451000Y-99951282D01*
X115451000Y-100200718D01*
X115546455Y-100431167D01*
X115722833Y-100607545D01*
X115953282Y-100703000D01*
X116178534Y-100703000D01*
X116167594Y-100758000D01*
X116167594Y-101558000D01*
X116192973Y-101685589D01*
X116265246Y-101793754D01*
X116373411Y-101866027D01*
X116501000Y-101891406D01*
X117356000Y-101891406D01*
X117356000Y-101978718D01*
X117374342Y-102023000D01*
X117236750Y-102023000D01*
X117078000Y-102181750D01*
X117078000Y-102931000D01*
X117877250Y-102931000D01*
X118036000Y-102772250D01*
X118036000Y-102531690D01*
X118015003Y-102481000D01*
X118107718Y-102481000D01*
X118338167Y-102385545D01*
X118514545Y-102209167D01*
X118610000Y-101978718D01*
X118610000Y-101729282D01*
X118514545Y-101498833D01*
X118338167Y-101322455D01*
X118107718Y-101227000D01*
X117995225Y-101227000D01*
X117903916Y-101135691D01*
X120036000Y-101135691D01*
X120036000Y-104176250D01*
X120194750Y-104335000D01*
X123444000Y-104335000D01*
X123444000Y-104315000D01*
X123698000Y-104315000D01*
X123698000Y-104335000D01*
X126947250Y-104335000D01*
X127106000Y-104176250D01*
X127106000Y-102684740D01*
X131774964Y-102684740D01*
X131799244Y-102790086D01*
X132090788Y-103315606D01*
X132561248Y-103689554D01*
X133139000Y-103855000D01*
X134239000Y-103855000D01*
X134239000Y-102447000D01*
X134493000Y-102447000D01*
X134493000Y-103855000D01*
X135593000Y-103855000D01*
X136170752Y-103689554D01*
X136641212Y-103315606D01*
X136932756Y-102790086D01*
X136957036Y-102684740D01*
X136836378Y-102447000D01*
X134493000Y-102447000D01*
X134239000Y-102447000D01*
X131895622Y-102447000D01*
X131774964Y-102684740D01*
X127106000Y-102684740D01*
X127106000Y-101955260D01*
X131774964Y-101955260D01*
X131895622Y-102193000D01*
X134239000Y-102193000D01*
X134239000Y-100785000D01*
X134493000Y-100785000D01*
X134493000Y-102193000D01*
X136836378Y-102193000D01*
X136957036Y-101955260D01*
X136932756Y-101849914D01*
X136641212Y-101324394D01*
X136170752Y-100950446D01*
X135593000Y-100785000D01*
X134493000Y-100785000D01*
X134239000Y-100785000D01*
X133139000Y-100785000D01*
X132561248Y-100950446D01*
X132090788Y-101324394D01*
X131799244Y-101849914D01*
X131774964Y-101955260D01*
X127106000Y-101955260D01*
X127106000Y-101135691D01*
X127009327Y-100902302D01*
X126887026Y-100780000D01*
X132145172Y-100780000D01*
X132202000Y-100791304D01*
X132258828Y-100780000D01*
X132258829Y-100780000D01*
X132427134Y-100746522D01*
X132617994Y-100618994D01*
X132650188Y-100570812D01*
X133574000Y-99647000D01*
X137631000Y-99647000D01*
X137631000Y-100747000D01*
X137796446Y-101324752D01*
X138170394Y-101795212D01*
X138695914Y-102086756D01*
X138801260Y-102111036D01*
X139039000Y-101990378D01*
X139039000Y-99647000D01*
X137631000Y-99647000D01*
X133574000Y-99647000D01*
X134733815Y-98487186D01*
X134781994Y-98454994D01*
X134890234Y-98293000D01*
X137631000Y-98293000D01*
X137631000Y-99393000D01*
X139039000Y-99393000D01*
X139039000Y-97049622D01*
X138801260Y-96928964D01*
X138695914Y-96953244D01*
X138170394Y-97244788D01*
X137796446Y-97715248D01*
X137631000Y-98293000D01*
X134890234Y-98293000D01*
X134909522Y-98264134D01*
X134943000Y-98095829D01*
X134943000Y-98095828D01*
X134954304Y-98039001D01*
X134943000Y-97982173D01*
X134943000Y-97753406D01*
X136566000Y-97753406D01*
X136693589Y-97728027D01*
X136801754Y-97655754D01*
X136874027Y-97547589D01*
X136899406Y-97420000D01*
X136899406Y-95620000D01*
X136874027Y-95492411D01*
X136801754Y-95384246D01*
X136693589Y-95311973D01*
X136566000Y-95286594D01*
X132166000Y-95286594D01*
X132038411Y-95311973D01*
X131930246Y-95384246D01*
X131857973Y-95492411D01*
X131832594Y-95620000D01*
X131832594Y-97420000D01*
X131857973Y-97547589D01*
X131930246Y-97655754D01*
X132038411Y-97728027D01*
X132166000Y-97753406D01*
X133789000Y-97753406D01*
X133789000Y-97799999D01*
X131963000Y-99626000D01*
X122286001Y-99626000D01*
X122139171Y-99479170D01*
X122199027Y-99389589D01*
X122224406Y-99262000D01*
X122224406Y-98046282D01*
X122817000Y-98046282D01*
X122817000Y-98295718D01*
X122912455Y-98526167D01*
X123088833Y-98702545D01*
X123319282Y-98798000D01*
X123568718Y-98798000D01*
X123711157Y-98739000D01*
X124917594Y-98739000D01*
X124917594Y-99262000D01*
X124942973Y-99389589D01*
X125015246Y-99497754D01*
X125123411Y-99570027D01*
X125251000Y-99595406D01*
X126451000Y-99595406D01*
X126578589Y-99570027D01*
X126686754Y-99497754D01*
X126759027Y-99389589D01*
X126784406Y-99262000D01*
X126784406Y-97062000D01*
X126759027Y-96934411D01*
X126686754Y-96826246D01*
X126578589Y-96753973D01*
X126451000Y-96728594D01*
X126428000Y-96728594D01*
X126428000Y-96189253D01*
X126503683Y-96138683D01*
X126623376Y-95959551D01*
X126626658Y-95943050D01*
X126757874Y-95855374D01*
X126783093Y-95817631D01*
X132105725Y-90495000D01*
X132788288Y-90495000D01*
X132867833Y-90574545D01*
X133098282Y-90670000D01*
X133347718Y-90670000D01*
X133578167Y-90574545D01*
X133754545Y-90398167D01*
X133850000Y-90167718D01*
X133850000Y-89918282D01*
X133754545Y-89687833D01*
X133578167Y-89511455D01*
X133347718Y-89416000D01*
X133098282Y-89416000D01*
X132867833Y-89511455D01*
X132788288Y-89591000D01*
X131963018Y-89591000D01*
X131918500Y-89582145D01*
X131873982Y-89591000D01*
X131742138Y-89617225D01*
X131592626Y-89717126D01*
X131567409Y-89754866D01*
X126967000Y-94355276D01*
X126967000Y-94240250D01*
X126808250Y-94081500D01*
X125984000Y-94081500D01*
X125984000Y-94101500D01*
X125730000Y-94101500D01*
X125730000Y-94081500D01*
X124905750Y-94081500D01*
X124747000Y-94240250D01*
X124747000Y-94518309D01*
X124843673Y-94751698D01*
X125022301Y-94930327D01*
X125164321Y-94989154D01*
X125090624Y-95099449D01*
X125048594Y-95310750D01*
X125048594Y-95748250D01*
X125090624Y-95959551D01*
X125210317Y-96138683D01*
X125274001Y-96181235D01*
X125274001Y-96728594D01*
X125251000Y-96728594D01*
X125123411Y-96753973D01*
X125015246Y-96826246D01*
X124942973Y-96934411D01*
X124917594Y-97062000D01*
X124917594Y-97585000D01*
X123667701Y-97585000D01*
X123568718Y-97544000D01*
X123319282Y-97544000D01*
X123088833Y-97639455D01*
X122912455Y-97815833D01*
X122817000Y-98046282D01*
X122224406Y-98046282D01*
X122224406Y-97062000D01*
X122199027Y-96934411D01*
X122126754Y-96826246D01*
X122018589Y-96753973D01*
X121891000Y-96728594D01*
X121868000Y-96728594D01*
X121868000Y-96181235D01*
X121931683Y-96138683D01*
X122051376Y-95959551D01*
X122093406Y-95748250D01*
X122093406Y-95740584D01*
X122134200Y-95535499D01*
X122093406Y-95330415D01*
X122093406Y-95310750D01*
X122051376Y-95099449D01*
X121977679Y-94989154D01*
X122119699Y-94930327D01*
X122298327Y-94751698D01*
X122395000Y-94518309D01*
X122395000Y-94240250D01*
X122236250Y-94081500D01*
X121412000Y-94081500D01*
X121412000Y-94101500D01*
X121158000Y-94101500D01*
X121158000Y-94081500D01*
X120333750Y-94081500D01*
X120175000Y-94240250D01*
X120175000Y-94518309D01*
X120271673Y-94751698D01*
X120450301Y-94930327D01*
X120592321Y-94989154D01*
X120518624Y-95099449D01*
X120476594Y-95310750D01*
X120476594Y-95354577D01*
X120441800Y-95529500D01*
X120476594Y-95704423D01*
X120476594Y-95748250D01*
X120518624Y-95959551D01*
X120638317Y-96138683D01*
X120714001Y-96189254D01*
X120714001Y-96728594D01*
X120691000Y-96728594D01*
X120563411Y-96753973D01*
X120455246Y-96826246D01*
X120382973Y-96934411D01*
X120357594Y-97062000D01*
X120357594Y-99262000D01*
X120382973Y-99389589D01*
X120455246Y-99497754D01*
X120563411Y-99570027D01*
X120691000Y-99595406D01*
X120732216Y-99595406D01*
X120747478Y-99672133D01*
X120875006Y-99862994D01*
X120923188Y-99895188D01*
X121598814Y-100570815D01*
X121631006Y-100618994D01*
X121642988Y-100627000D01*
X120544690Y-100627000D01*
X120311301Y-100723673D01*
X120132673Y-100902302D01*
X120036000Y-101135691D01*
X117903916Y-101135691D01*
X117734406Y-100966182D01*
X117734406Y-100758000D01*
X117709027Y-100630411D01*
X117636754Y-100522246D01*
X117528589Y-100449973D01*
X117401000Y-100424594D01*
X116612268Y-100424594D01*
X116705000Y-100200718D01*
X116705000Y-99989250D01*
X116824000Y-99870250D01*
X116824000Y-99121000D01*
X117078000Y-99121000D01*
X117078000Y-99870250D01*
X117236750Y-100029000D01*
X117527309Y-100029000D01*
X117760698Y-99932327D01*
X117939327Y-99753699D01*
X118036000Y-99520310D01*
X118036000Y-99279750D01*
X117877250Y-99121000D01*
X117078000Y-99121000D01*
X116824000Y-99121000D01*
X116804000Y-99121000D01*
X116804000Y-98867000D01*
X116824000Y-98867000D01*
X116824000Y-98117750D01*
X117078000Y-98117750D01*
X117078000Y-98867000D01*
X117877250Y-98867000D01*
X118036000Y-98708250D01*
X118036000Y-98467690D01*
X117939327Y-98234301D01*
X117760698Y-98055673D01*
X117527309Y-97959000D01*
X117236750Y-97959000D01*
X117078000Y-98117750D01*
X116824000Y-98117750D01*
X116670237Y-97963987D01*
X116806818Y-97827406D01*
X117401000Y-97827406D01*
X117528589Y-97802027D01*
X117636754Y-97729754D01*
X117709027Y-97621589D01*
X117734406Y-97494000D01*
X117734406Y-96694000D01*
X117709027Y-96566411D01*
X117636754Y-96458246D01*
X117528589Y-96385973D01*
X117401000Y-96360594D01*
X116501000Y-96360594D01*
X116373411Y-96385973D01*
X116265246Y-96458246D01*
X116192973Y-96566411D01*
X116167594Y-96694000D01*
X116167594Y-97188182D01*
X115789869Y-97565907D01*
X115752126Y-97591126D01*
X115730366Y-97623692D01*
X115709027Y-97516411D01*
X115636754Y-97408246D01*
X115528589Y-97335973D01*
X115401000Y-97310594D01*
X115341939Y-97310594D01*
X115273679Y-97264984D01*
X115032448Y-97217000D01*
X113582442Y-97217000D01*
X113500999Y-97200800D01*
X113419556Y-97217000D01*
X113419552Y-97217000D01*
X113178321Y-97264984D01*
X112904767Y-97447767D01*
X112858630Y-97516816D01*
X107951447Y-102424000D01*
X107670035Y-102424000D01*
X107645988Y-102388012D01*
X107250046Y-102123451D01*
X106900891Y-102054000D01*
X106205109Y-102054000D01*
X105855954Y-102123451D01*
X105460012Y-102388012D01*
X105195451Y-102783954D01*
X105102550Y-103251000D01*
X103924100Y-103251000D01*
X103952600Y-97550999D01*
X105119594Y-97550999D01*
X105119594Y-98791001D01*
X105164003Y-99014260D01*
X105290469Y-99203531D01*
X105479740Y-99329997D01*
X105702999Y-99374406D01*
X107403001Y-99374406D01*
X107626260Y-99329997D01*
X107815531Y-99203531D01*
X107941997Y-99014260D01*
X107986406Y-98791001D01*
X107986406Y-97550999D01*
X107941997Y-97327740D01*
X107815531Y-97138469D01*
X107626260Y-97012003D01*
X107403001Y-96967594D01*
X105702999Y-96967594D01*
X105479740Y-97012003D01*
X105290469Y-97138469D01*
X105164003Y-97327740D01*
X105119594Y-97550999D01*
X103952600Y-97550999D01*
X104012366Y-85598000D01*
X111506000Y-85598000D01*
X111506000Y-90607000D01*
G04 #@! TD*
M02*
